<svg width="831" height="261" viewBox="0 0 831 261" fill="none" xmlns="http://www.w3.org/2000/svg">
<rect x="1" y="2" width="123" height="52" fill="#1A69C6"/>
<path d="M22.272 34.724C23.808 34.724 25.072 34.132 26.048 32.996L24.8 31.508C24.176 32.196 23.376 32.676 22.368 32.676C20.48 32.676 19.28 31.14 19.28 28.548C19.28 26.02 20.624 24.484 22.4 24.484C23.312 24.484 23.984 24.884 24.592 25.476L25.84 23.956C25.072 23.156 23.872 22.452 22.368 22.452C19.36 22.452 16.864 24.724 16.864 28.628C16.864 32.58 19.28 34.724 22.272 34.724ZM30.1704 34.724C31.3864 34.724 32.2344 34.132 33.0184 33.22H33.0664L33.2424 34.5H35.1624V25.556H32.8264V31.588C32.2184 32.388 31.7384 32.708 31.0024 32.708C30.1224 32.708 29.7384 32.228 29.7384 30.852V25.556H27.3864V31.14C27.3864 33.396 28.2344 34.724 30.1704 34.724ZM40.2459 34.724C42.5659 34.724 43.7979 33.476 43.7979 31.892C43.7979 30.244 42.5019 29.636 41.3179 29.188C40.3579 28.852 39.5419 28.596 39.5419 27.956C39.5419 27.428 39.9099 27.076 40.7259 27.076C41.3819 27.076 42.0219 27.396 42.6459 27.844L43.7179 26.436C42.9819 25.86 41.9579 25.332 40.6619 25.332C38.6139 25.332 37.3339 26.468 37.3339 28.052C37.3339 29.572 38.5979 30.244 39.7339 30.692C40.6619 31.044 41.6059 31.364 41.6059 32.02C41.6059 32.58 41.1899 32.98 40.2939 32.98C39.4619 32.98 38.7099 32.612 37.8939 31.988L36.8379 33.476C37.7179 34.212 39.0459 34.724 40.2459 34.724ZM48.4186 34.724C49.2186 34.724 49.8426 34.548 50.3226 34.388L49.9386 32.676C49.6826 32.772 49.3466 32.884 49.0426 32.884C48.2586 32.884 47.8266 32.404 47.8266 31.38V27.396H50.0506V25.556H47.8266V23.124H45.8746L45.6186 25.556L44.2266 25.652V27.396H45.4746V31.38C45.4746 33.38 46.2906 34.724 48.4186 34.724ZM55.2424 34.724C57.4824 34.724 59.5304 32.996 59.5304 30.036C59.5304 27.06 57.4824 25.332 55.2424 25.332C52.9864 25.332 50.9384 27.06 50.9384 30.036C50.9384 32.996 52.9864 34.724 55.2424 34.724ZM55.2424 32.82C54.0104 32.82 53.3384 31.716 53.3384 30.036C53.3384 28.34 54.0104 27.252 55.2424 27.252C56.4584 27.252 57.1304 28.34 57.1304 30.036C57.1304 31.716 56.4584 32.82 55.2424 32.82ZM61.514 34.5H63.866V28.34C64.474 27.668 65.066 27.348 65.562 27.348C66.426 27.348 66.826 27.812 66.826 29.22V34.5H69.178V28.34C69.818 27.668 70.378 27.348 70.89 27.348C71.754 27.348 72.138 27.812 72.138 29.22V34.5H74.49V28.916C74.49 26.676 73.626 25.332 71.722 25.332C70.554 25.332 69.69 26.036 68.858 26.884C68.442 25.892 67.69 25.332 66.394 25.332C65.242 25.332 64.41 25.972 63.658 26.74H63.61L63.418 25.556H61.514V34.5ZM80.8399 34.724C81.9439 34.724 83.0639 34.356 83.9439 33.748L83.1599 32.292C82.5039 32.692 81.8639 32.916 81.1439 32.916C79.8159 32.916 78.8559 32.164 78.6479 30.692H84.1839C84.2319 30.468 84.2799 30.052 84.2799 29.604C84.2799 27.124 83.0159 25.332 80.5359 25.332C78.4239 25.332 76.3759 27.124 76.3759 30.036C76.3759 32.996 78.3279 34.724 80.8399 34.724ZM78.6159 29.124C78.8079 27.812 79.6399 27.14 80.5839 27.14C81.7359 27.14 82.2799 27.908 82.2799 29.124H78.6159ZM86.2328 34.5H88.5848V29.172C89.0807 27.876 89.9288 27.396 90.6168 27.396C91.0008 27.396 91.2408 27.46 91.5608 27.54L91.9608 25.524C91.6888 25.396 91.4008 25.332 90.9208 25.332C89.9928 25.332 89.0168 25.956 88.3768 27.14H88.3288L88.1368 25.556H86.2328V34.5ZM93.4091 34.5H95.7771V22.66H93.4091V34.5ZM98.6904 34.5H102.066C105.554 34.5 107.778 32.516 107.778 28.532C107.778 24.532 105.554 22.66 101.938 22.66H98.6904V34.5ZM101.058 32.596V24.548H101.778C104.002 24.548 105.362 25.652 105.362 28.532C105.362 31.412 104.002 32.596 101.778 32.596H101.058Z" fill="white"/>
<rect x="1" y="2" width="123" height="52" stroke="#B3B3B3"/>
<rect x="1" y="54" width="123" height="49" fill="white"/>
<path d="M41.408 85H47.84V83.784H45.472V73.272H44.352C43.728 73.656 42.976 73.928 41.92 74.104V75.048H44.016V83.784H41.408V85ZM53.323 85.224C55.531 85.224 56.955 83.192 56.955 79.096C56.955 75.032 55.531 73.064 53.323 73.064C51.083 73.064 49.659 75.032 49.659 79.096C49.659 83.192 51.083 85.224 53.323 85.224ZM53.323 84.04C51.979 84.04 51.067 82.552 51.067 79.096C51.067 75.688 51.979 74.232 53.323 74.232C54.651 74.232 55.547 75.688 55.547 79.096C55.547 82.552 54.651 84.04 53.323 84.04ZM62.198 85.224C64.406 85.224 65.83 83.192 65.83 79.096C65.83 75.032 64.406 73.064 62.198 73.064C59.958 73.064 58.534 75.032 58.534 79.096C58.534 83.192 59.958 85.224 62.198 85.224ZM62.198 84.04C60.854 84.04 59.942 82.552 59.942 79.096C59.942 75.688 60.854 74.232 62.198 74.232C63.526 74.232 64.422 75.688 64.422 79.096C64.422 82.552 63.526 84.04 62.198 84.04ZM71.073 85.224C73.281 85.224 74.705 83.192 74.705 79.096C74.705 75.032 73.281 73.064 71.073 73.064C68.833 73.064 67.409 75.032 67.409 79.096C67.409 83.192 68.833 85.224 71.073 85.224ZM71.073 84.04C69.729 84.04 68.817 82.552 68.817 79.096C68.817 75.688 69.729 74.232 71.073 74.232C72.401 74.232 73.297 75.688 73.297 79.096C73.297 82.552 72.401 84.04 71.073 84.04ZM76.908 85H83.34V83.784H80.972V73.272H79.852C79.228 73.656 78.476 73.928 77.42 74.104V75.048H79.516V83.784H76.908V85Z" fill="black"/>
<rect x="1" y="54" width="123" height="49" stroke="#B3B3B3"/>
<rect x="1" y="103" width="123" height="50" fill="white"/>
<path d="M41.408 134.5H47.84V133.284H45.472V122.772H44.352C43.728 123.156 42.976 123.428 41.92 123.604V124.548H44.016V133.284H41.408V134.5ZM53.323 134.724C55.531 134.724 56.955 132.692 56.955 128.596C56.955 124.532 55.531 122.564 53.323 122.564C51.083 122.564 49.659 124.532 49.659 128.596C49.659 132.692 51.083 134.724 53.323 134.724ZM53.323 133.54C51.979 133.54 51.067 132.052 51.067 128.596C51.067 125.188 51.979 123.732 53.323 123.732C54.651 123.732 55.547 125.188 55.547 128.596C55.547 132.052 54.651 133.54 53.323 133.54ZM62.198 134.724C64.406 134.724 65.83 132.692 65.83 128.596C65.83 124.532 64.406 122.564 62.198 122.564C59.958 122.564 58.534 124.532 58.534 128.596C58.534 132.692 59.958 134.724 62.198 134.724ZM62.198 133.54C60.854 133.54 59.942 132.052 59.942 128.596C59.942 125.188 60.854 123.732 62.198 123.732C63.526 123.732 64.422 125.188 64.422 128.596C64.422 132.052 63.526 133.54 62.198 133.54ZM71.073 134.724C73.281 134.724 74.705 132.692 74.705 128.596C74.705 124.532 73.281 122.564 71.073 122.564C68.833 122.564 67.409 124.532 67.409 128.596C67.409 132.692 68.833 134.724 71.073 134.724ZM71.073 133.54C69.729 133.54 68.817 132.052 68.817 128.596C68.817 125.188 69.729 123.732 71.073 123.732C72.401 123.732 73.297 125.188 73.297 128.596C73.297 132.052 72.401 133.54 71.073 133.54ZM76.204 134.5H83.564V133.252H80.316C79.724 133.252 79.02 133.3 78.396 133.364C81.164 130.756 83.004 128.372 83.004 126.02C83.004 123.924 81.692 122.564 79.596 122.564C78.108 122.564 77.084 123.252 76.124 124.292L76.972 125.108C77.628 124.34 78.46 123.748 79.42 123.748C80.876 123.748 81.564 124.74 81.564 126.084C81.564 128.084 79.884 130.436 76.204 133.652V134.5Z" fill="black"/>
<rect x="1" y="103" width="123" height="50" stroke="#B3B3B3"/>
<rect x="1" y="153" width="123" height="50" fill="white"/>
<path d="M41.408 184.5H47.84V183.284H45.472V172.772H44.352C43.728 173.156 42.976 173.428 41.92 173.604V174.548H44.016V183.284H41.408V184.5ZM53.323 184.724C55.531 184.724 56.955 182.692 56.955 178.596C56.955 174.532 55.531 172.564 53.323 172.564C51.083 172.564 49.659 174.532 49.659 178.596C49.659 182.692 51.083 184.724 53.323 184.724ZM53.323 183.54C51.979 183.54 51.067 182.052 51.067 178.596C51.067 175.188 51.979 173.732 53.323 173.732C54.651 173.732 55.547 175.188 55.547 178.596C55.547 182.052 54.651 183.54 53.323 183.54ZM62.198 184.724C64.406 184.724 65.83 182.692 65.83 178.596C65.83 174.532 64.406 172.564 62.198 172.564C59.958 172.564 58.534 174.532 58.534 178.596C58.534 182.692 59.958 184.724 62.198 184.724ZM62.198 183.54C60.854 183.54 59.942 182.052 59.942 178.596C59.942 175.188 60.854 173.732 62.198 173.732C63.526 173.732 64.422 175.188 64.422 178.596C64.422 182.052 63.526 183.54 62.198 183.54ZM71.073 184.724C73.281 184.724 74.705 182.692 74.705 178.596C74.705 174.532 73.281 172.564 71.073 172.564C68.833 172.564 67.409 174.532 67.409 178.596C67.409 182.692 68.833 184.724 71.073 184.724ZM71.073 183.54C69.729 183.54 68.817 182.052 68.817 178.596C68.817 175.188 69.729 173.732 71.073 173.732C72.401 173.732 73.297 175.188 73.297 178.596C73.297 182.052 72.401 183.54 71.073 183.54ZM79.708 184.724C81.804 184.724 83.484 183.46 83.484 181.38C83.484 179.764 82.364 178.724 80.988 178.388V178.324C82.236 177.876 83.068 176.932 83.068 175.508C83.068 173.636 81.628 172.564 79.66 172.564C78.316 172.564 77.276 173.156 76.396 173.956L77.18 174.9C77.836 174.228 78.668 173.748 79.612 173.748C80.828 173.748 81.58 174.484 81.58 175.604C81.58 176.884 80.764 177.844 78.348 177.844V178.98C81.052 178.98 81.996 179.908 81.996 181.316C81.996 182.66 81.004 183.508 79.612 183.508C78.268 183.508 77.388 182.868 76.7 182.148L75.964 183.108C76.732 183.956 77.868 184.724 79.708 184.724Z" fill="black"/>
<rect x="1" y="153" width="123" height="50" stroke="#B3B3B3"/>
<rect x="582" y="2" width="123" height="52" fill="#1A69C6"/>
<path d="M603.272 34.724C604.808 34.724 606.072 34.132 607.048 32.996L605.8 31.508C605.176 32.196 604.376 32.676 603.368 32.676C601.48 32.676 600.28 31.14 600.28 28.548C600.28 26.02 601.624 24.484 603.4 24.484C604.312 24.484 604.984 24.884 605.592 25.476L606.84 23.956C606.072 23.156 604.872 22.452 603.368 22.452C600.36 22.452 597.864 24.724 597.864 28.628C597.864 32.58 600.28 34.724 603.272 34.724ZM611.17 34.724C612.386 34.724 613.234 34.132 614.018 33.22H614.066L614.242 34.5H616.162V25.556H613.826V31.588C613.218 32.388 612.738 32.708 612.002 32.708C611.122 32.708 610.738 32.228 610.738 30.852V25.556H608.386V31.14C608.386 33.396 609.234 34.724 611.17 34.724ZM621.246 34.724C623.566 34.724 624.798 33.476 624.798 31.892C624.798 30.244 623.502 29.636 622.318 29.188C621.358 28.852 620.542 28.596 620.542 27.956C620.542 27.428 620.91 27.076 621.726 27.076C622.382 27.076 623.022 27.396 623.646 27.844L624.718 26.436C623.982 25.86 622.958 25.332 621.662 25.332C619.614 25.332 618.334 26.468 618.334 28.052C618.334 29.572 619.598 30.244 620.734 30.692C621.662 31.044 622.606 31.364 622.606 32.02C622.606 32.58 622.19 32.98 621.294 32.98C620.462 32.98 619.71 32.612 618.894 31.988L617.838 33.476C618.718 34.212 620.046 34.724 621.246 34.724ZM629.419 34.724C630.219 34.724 630.843 34.548 631.323 34.388L630.939 32.676C630.683 32.772 630.347 32.884 630.043 32.884C629.259 32.884 628.827 32.404 628.827 31.38V27.396H631.051V25.556H628.827V23.124H626.875L626.619 25.556L625.227 25.652V27.396H626.475V31.38C626.475 33.38 627.291 34.724 629.419 34.724ZM636.242 34.724C638.482 34.724 640.53 32.996 640.53 30.036C640.53 27.06 638.482 25.332 636.242 25.332C633.986 25.332 631.938 27.06 631.938 30.036C631.938 32.996 633.986 34.724 636.242 34.724ZM636.242 32.82C635.01 32.82 634.338 31.716 634.338 30.036C634.338 28.34 635.01 27.252 636.242 27.252C637.458 27.252 638.13 28.34 638.13 30.036C638.13 31.716 637.458 32.82 636.242 32.82ZM642.514 34.5H644.866V28.34C645.474 27.668 646.066 27.348 646.562 27.348C647.426 27.348 647.826 27.812 647.826 29.22V34.5H650.178V28.34C650.818 27.668 651.378 27.348 651.89 27.348C652.754 27.348 653.138 27.812 653.138 29.22V34.5H655.49V28.916C655.49 26.676 654.626 25.332 652.722 25.332C651.554 25.332 650.69 26.036 649.858 26.884C649.442 25.892 648.69 25.332 647.394 25.332C646.242 25.332 645.41 25.972 644.658 26.74H644.61L644.418 25.556H642.514V34.5ZM661.84 34.724C662.944 34.724 664.064 34.356 664.944 33.748L664.16 32.292C663.504 32.692 662.864 32.916 662.144 32.916C660.816 32.916 659.856 32.164 659.648 30.692H665.184C665.232 30.468 665.28 30.052 665.28 29.604C665.28 27.124 664.016 25.332 661.536 25.332C659.424 25.332 657.376 27.124 657.376 30.036C657.376 32.996 659.328 34.724 661.84 34.724ZM659.616 29.124C659.808 27.812 660.64 27.14 661.584 27.14C662.736 27.14 663.28 27.908 663.28 29.124H659.616ZM667.233 34.5H669.585V29.172C670.081 27.876 670.929 27.396 671.617 27.396C672.001 27.396 672.241 27.46 672.561 27.54L672.961 25.524C672.689 25.396 672.401 25.332 671.921 25.332C670.993 25.332 670.017 25.956 669.377 27.14H669.329L669.137 25.556H667.233V34.5ZM674.409 34.5H676.777V22.66H674.409V34.5ZM679.69 34.5H683.066C686.554 34.5 688.778 32.516 688.778 28.532C688.778 24.532 686.554 22.66 682.938 22.66H679.69V34.5ZM682.058 32.596V24.548H682.778C685.002 24.548 686.362 25.652 686.362 28.532C686.362 31.412 685.002 32.596 682.778 32.596H682.058Z" fill="white"/>
<rect x="582" y="2" width="123" height="52" stroke="#B3B3B3"/>
<rect x="582" y="54" width="123" height="49" fill="white"/>
<path d="M622.408 85H628.84V83.784H626.472V73.272H625.352C624.728 73.656 623.976 73.928 622.92 74.104V75.048H625.016V83.784H622.408V85ZM634.323 85.224C636.531 85.224 637.955 83.192 637.955 79.096C637.955 75.032 636.531 73.064 634.323 73.064C632.083 73.064 630.659 75.032 630.659 79.096C630.659 83.192 632.083 85.224 634.323 85.224ZM634.323 84.04C632.979 84.04 632.067 82.552 632.067 79.096C632.067 75.688 632.979 74.232 634.323 74.232C635.651 74.232 636.547 75.688 636.547 79.096C636.547 82.552 635.651 84.04 634.323 84.04ZM643.198 85.224C645.406 85.224 646.83 83.192 646.83 79.096C646.83 75.032 645.406 73.064 643.198 73.064C640.958 73.064 639.534 75.032 639.534 79.096C639.534 83.192 640.958 85.224 643.198 85.224ZM643.198 84.04C641.854 84.04 640.942 82.552 640.942 79.096C640.942 75.688 641.854 74.232 643.198 74.232C644.526 74.232 645.422 75.688 645.422 79.096C645.422 82.552 644.526 84.04 643.198 84.04ZM652.073 85.224C654.281 85.224 655.705 83.192 655.705 79.096C655.705 75.032 654.281 73.064 652.073 73.064C649.833 73.064 648.409 75.032 648.409 79.096C648.409 83.192 649.833 85.224 652.073 85.224ZM652.073 84.04C650.729 84.04 649.817 82.552 649.817 79.096C649.817 75.688 650.729 74.232 652.073 74.232C653.401 74.232 654.297 75.688 654.297 79.096C654.297 82.552 653.401 84.04 652.073 84.04ZM657.908 85H664.34V83.784H661.972V73.272H660.852C660.228 73.656 659.476 73.928 658.42 74.104V75.048H660.516V83.784H657.908V85Z" fill="black"/>
<rect x="582" y="54" width="123" height="49" stroke="#B3B3B3"/>
<rect x="582" y="103" width="123" height="50" fill="white"/>
<path d="M622.408 134.5H628.84V133.284H626.472V122.772H625.352C624.728 123.156 623.976 123.428 622.92 123.604V124.548H625.016V133.284H622.408V134.5ZM634.323 134.724C636.531 134.724 637.955 132.692 637.955 128.596C637.955 124.532 636.531 122.564 634.323 122.564C632.083 122.564 630.659 124.532 630.659 128.596C630.659 132.692 632.083 134.724 634.323 134.724ZM634.323 133.54C632.979 133.54 632.067 132.052 632.067 128.596C632.067 125.188 632.979 123.732 634.323 123.732C635.651 123.732 636.547 125.188 636.547 128.596C636.547 132.052 635.651 133.54 634.323 133.54ZM643.198 134.724C645.406 134.724 646.83 132.692 646.83 128.596C646.83 124.532 645.406 122.564 643.198 122.564C640.958 122.564 639.534 124.532 639.534 128.596C639.534 132.692 640.958 134.724 643.198 134.724ZM643.198 133.54C641.854 133.54 640.942 132.052 640.942 128.596C640.942 125.188 641.854 123.732 643.198 123.732C644.526 123.732 645.422 125.188 645.422 128.596C645.422 132.052 644.526 133.54 643.198 133.54ZM652.073 134.724C654.281 134.724 655.705 132.692 655.705 128.596C655.705 124.532 654.281 122.564 652.073 122.564C649.833 122.564 648.409 124.532 648.409 128.596C648.409 132.692 649.833 134.724 652.073 134.724ZM652.073 133.54C650.729 133.54 649.817 132.052 649.817 128.596C649.817 125.188 650.729 123.732 652.073 123.732C653.401 123.732 654.297 125.188 654.297 128.596C654.297 132.052 653.401 133.54 652.073 133.54ZM657.204 134.5H664.564V133.252H661.316C660.724 133.252 660.02 133.3 659.396 133.364C662.164 130.756 664.004 128.372 664.004 126.02C664.004 123.924 662.692 122.564 660.596 122.564C659.108 122.564 658.084 123.252 657.124 124.292L657.972 125.108C658.628 124.34 659.46 123.748 660.42 123.748C661.876 123.748 662.564 124.74 662.564 126.084C662.564 128.084 660.884 130.436 657.204 133.652V134.5Z" fill="black"/>
<rect x="582" y="103" width="123" height="50" stroke="#B3B3B3"/>
<rect x="582" y="153" width="123" height="50" fill="white"/>
<path d="M622.408 184.5H628.84V183.284H626.472V172.772H625.352C624.728 173.156 623.976 173.428 622.92 173.604V174.548H625.016V183.284H622.408V184.5ZM634.323 184.724C636.531 184.724 637.955 182.692 637.955 178.596C637.955 174.532 636.531 172.564 634.323 172.564C632.083 172.564 630.659 174.532 630.659 178.596C630.659 182.692 632.083 184.724 634.323 184.724ZM634.323 183.54C632.979 183.54 632.067 182.052 632.067 178.596C632.067 175.188 632.979 173.732 634.323 173.732C635.651 173.732 636.547 175.188 636.547 178.596C636.547 182.052 635.651 183.54 634.323 183.54ZM643.198 184.724C645.406 184.724 646.83 182.692 646.83 178.596C646.83 174.532 645.406 172.564 643.198 172.564C640.958 172.564 639.534 174.532 639.534 178.596C639.534 182.692 640.958 184.724 643.198 184.724ZM643.198 183.54C641.854 183.54 640.942 182.052 640.942 178.596C640.942 175.188 641.854 173.732 643.198 173.732C644.526 173.732 645.422 175.188 645.422 178.596C645.422 182.052 644.526 183.54 643.198 183.54ZM652.073 184.724C654.281 184.724 655.705 182.692 655.705 178.596C655.705 174.532 654.281 172.564 652.073 172.564C649.833 172.564 648.409 174.532 648.409 178.596C648.409 182.692 649.833 184.724 652.073 184.724ZM652.073 183.54C650.729 183.54 649.817 182.052 649.817 178.596C649.817 175.188 650.729 173.732 652.073 173.732C653.401 173.732 654.297 175.188 654.297 178.596C654.297 182.052 653.401 183.54 652.073 183.54ZM660.708 184.724C662.804 184.724 664.484 183.46 664.484 181.38C664.484 179.764 663.364 178.724 661.988 178.388V178.324C663.236 177.876 664.068 176.932 664.068 175.508C664.068 173.636 662.628 172.564 660.66 172.564C659.316 172.564 658.276 173.156 657.396 173.956L658.18 174.9C658.836 174.228 659.668 173.748 660.612 173.748C661.828 173.748 662.58 174.484 662.58 175.604C662.58 176.884 661.764 177.844 659.348 177.844V178.98C662.052 178.98 662.996 179.908 662.996 181.316C662.996 182.66 662.004 183.508 660.612 183.508C659.268 183.508 658.388 182.868 657.7 182.148L656.964 183.108C657.732 183.956 658.868 184.724 660.708 184.724Z" fill="black"/>
<rect x="582" y="153" width="123" height="50" stroke="#B3B3B3"/>
<rect x="705" y="2" width="125" height="52" fill="#1A69C6"/>
<path d="M741.772 34.724C743.308 34.724 744.572 34.132 745.548 32.996L744.3 31.508C743.676 32.196 742.876 32.676 741.868 32.676C739.98 32.676 738.78 31.14 738.78 28.548C738.78 26.02 740.124 24.484 741.9 24.484C742.812 24.484 743.484 24.884 744.092 25.476L745.34 23.956C744.572 23.156 743.372 22.452 741.868 22.452C738.86 22.452 736.364 24.724 736.364 28.628C736.364 32.58 738.78 34.724 741.772 34.724ZM751.008 34.724C753.248 34.724 755.296 32.996 755.296 30.036C755.296 27.06 753.248 25.332 751.008 25.332C748.752 25.332 746.704 27.06 746.704 30.036C746.704 32.996 748.752 34.724 751.008 34.724ZM751.008 32.82C749.776 32.82 749.104 31.716 749.104 30.036C749.104 28.34 749.776 27.252 751.008 27.252C752.224 27.252 752.896 28.34 752.896 30.036C752.896 31.716 752.224 32.82 751.008 32.82ZM759.952 34.724C761.168 34.724 762.016 34.132 762.8 33.22H762.848L763.024 34.5H764.944V25.556H762.608V31.588C762 32.388 761.52 32.708 760.784 32.708C759.904 32.708 759.52 32.228 759.52 30.852V25.556H757.168V31.14C757.168 33.396 758.016 34.724 759.952 34.724ZM767.467 34.5H769.819V28.34C770.475 27.7 770.939 27.348 771.675 27.348C772.539 27.348 772.939 27.812 772.939 29.22V34.5H775.291V28.916C775.291 26.676 774.443 25.332 772.523 25.332C771.307 25.332 770.379 25.972 769.611 26.74H769.563L769.371 25.556H767.467V34.5ZM780.981 34.724C781.781 34.724 782.405 34.548 782.885 34.388L782.501 32.676C782.245 32.772 781.909 32.884 781.605 32.884C780.821 32.884 780.389 32.404 780.389 31.38V27.396H782.613V25.556H780.389V23.124H778.437L778.181 25.556L776.789 25.652V27.396H778.037V31.38C778.037 33.38 778.853 34.724 780.981 34.724ZM784.452 34.5H786.804V29.172C787.299 27.876 788.148 27.396 788.836 27.396C789.22 27.396 789.46 27.46 789.78 27.54L790.18 25.524C789.908 25.396 789.62 25.332 789.14 25.332C788.212 25.332 787.236 25.956 786.596 27.14H786.548L786.356 25.556H784.452V34.5ZM792.345 38.1C794.361 38.1 795.321 36.884 796.105 34.788L799.289 25.556H797.033L795.785 29.7C795.577 30.548 795.353 31.396 795.161 32.244H795.081C794.809 31.38 794.585 30.516 794.312 29.7L792.905 25.556H790.521L794.009 34.34L793.865 34.868C793.593 35.668 793.081 36.244 792.185 36.244C791.961 36.244 791.721 36.164 791.561 36.116L791.129 37.924C791.465 38.036 791.833 38.1 792.345 38.1Z" fill="white"/>
<rect x="705" y="2" width="125" height="52" stroke="#B3B3B3"/>
<rect x="705" y="54" width="125" height="49" fill="white"/>
<path d="M745.032 85.224C746.552 85.224 747.688 84.616 748.616 83.528L747.816 82.6C747.064 83.432 746.2 83.912 745.096 83.912C742.856 83.912 741.448 82.072 741.448 79.112C741.448 76.184 742.92 74.36 745.144 74.36C746.136 74.36 746.92 74.808 747.528 75.464L748.344 74.504C747.656 73.752 746.552 73.064 745.128 73.064C742.152 73.064 739.928 75.368 739.928 79.144C739.928 82.952 742.104 85.224 745.032 85.224ZM752.675 85.224C753.747 85.224 754.723 84.664 755.539 83.976H755.603L755.731 85H756.931V79.672C756.931 77.512 756.035 76.104 753.907 76.104C752.515 76.104 751.299 76.712 750.499 77.224L751.075 78.248C751.747 77.784 752.659 77.304 753.683 77.304C755.107 77.304 755.459 78.376 755.459 79.496C751.763 79.912 750.131 80.856 750.131 82.744C750.131 84.312 751.219 85.224 752.675 85.224ZM753.075 84.04C752.227 84.04 751.555 83.64 751.555 82.648C751.555 81.528 752.531 80.808 755.459 80.472V82.888C754.627 83.64 753.923 84.04 753.075 84.04ZM759.691 85H761.147V78.696C762.011 77.832 762.635 77.368 763.515 77.368C764.667 77.368 765.163 78.056 765.163 79.688V85H766.635V79.496C766.635 77.288 765.803 76.104 763.979 76.104C762.779 76.104 761.883 76.76 761.067 77.576H761.019L760.875 76.312H759.691V85ZM771.456 85.224C772.528 85.224 773.504 84.664 774.32 83.976H774.384L774.512 85H775.712V79.672C775.712 77.512 774.816 76.104 772.688 76.104C771.296 76.104 770.08 76.712 769.28 77.224L769.856 78.248C770.528 77.784 771.44 77.304 772.464 77.304C773.888 77.304 774.24 78.376 774.24 79.496C770.544 79.912 768.912 80.856 768.912 82.744C768.912 84.312 770 85.224 771.456 85.224ZM771.856 84.04C771.008 84.04 770.336 83.64 770.336 82.648C770.336 81.528 771.312 80.808 774.24 80.472V82.888C773.408 83.64 772.704 84.04 771.856 84.04ZM781.416 85.224C782.472 85.224 783.384 84.664 784.072 83.976H784.104L784.232 85H785.432V72.28H783.976V75.608L784.04 77.112C783.288 76.472 782.616 76.104 781.608 76.104C779.624 76.104 777.832 77.848 777.832 80.68C777.832 83.576 779.24 85.224 781.416 85.224ZM781.736 83.992C780.216 83.992 779.352 82.744 779.352 80.664C779.352 78.68 780.456 77.32 781.848 77.32C782.568 77.32 783.24 77.576 783.976 78.248V82.808C783.256 83.592 782.552 83.992 781.736 83.992ZM790.394 85.224C791.466 85.224 792.442 84.664 793.258 83.976H793.322L793.45 85H794.65V79.672C794.65 77.512 793.754 76.104 791.626 76.104C790.234 76.104 789.018 76.712 788.218 77.224L788.794 78.248C789.466 77.784 790.378 77.304 791.402 77.304C792.826 77.304 793.178 78.376 793.178 79.496C789.482 79.912 787.85 80.856 787.85 82.744C787.85 84.312 788.938 85.224 790.394 85.224ZM790.794 84.04C789.946 84.04 789.274 83.64 789.274 82.648C789.274 81.528 790.25 80.808 793.178 80.472V82.888C792.346 83.64 791.642 84.04 790.794 84.04Z" fill="black"/>
<rect x="705" y="54" width="125" height="49" stroke="#B3B3B3"/>
<rect x="705" y="103" width="125" height="50" fill="white"/>
<path d="M745.032 134.724C746.552 134.724 747.688 134.116 748.616 133.028L747.816 132.1C747.064 132.932 746.2 133.412 745.096 133.412C742.856 133.412 741.448 131.572 741.448 128.612C741.448 125.684 742.92 123.86 745.144 123.86C746.136 123.86 746.92 124.308 747.528 124.964L748.344 124.004C747.656 123.252 746.552 122.564 745.128 122.564C742.152 122.564 739.928 124.868 739.928 128.644C739.928 132.452 742.104 134.724 745.032 134.724ZM752.675 134.724C753.747 134.724 754.723 134.164 755.539 133.476H755.603L755.731 134.5H756.931V129.172C756.931 127.012 756.035 125.604 753.907 125.604C752.515 125.604 751.299 126.212 750.499 126.724L751.075 127.748C751.747 127.284 752.659 126.804 753.683 126.804C755.107 126.804 755.459 127.876 755.459 128.996C751.763 129.412 750.131 130.356 750.131 132.244C750.131 133.812 751.219 134.724 752.675 134.724ZM753.075 133.54C752.227 133.54 751.555 133.14 751.555 132.148C751.555 131.028 752.531 130.308 755.459 129.972V132.388C754.627 133.14 753.923 133.54 753.075 133.54ZM759.691 134.5H761.147V128.196C762.011 127.332 762.635 126.868 763.515 126.868C764.667 126.868 765.163 127.556 765.163 129.188V134.5H766.635V128.996C766.635 126.788 765.803 125.604 763.979 125.604C762.779 125.604 761.883 126.26 761.067 127.076H761.019L760.875 125.812H759.691V134.5ZM771.456 134.724C772.528 134.724 773.504 134.164 774.32 133.476H774.384L774.512 134.5H775.712V129.172C775.712 127.012 774.816 125.604 772.688 125.604C771.296 125.604 770.08 126.212 769.28 126.724L769.856 127.748C770.528 127.284 771.44 126.804 772.464 126.804C773.888 126.804 774.24 127.876 774.24 128.996C770.544 129.412 768.912 130.356 768.912 132.244C768.912 133.812 770 134.724 771.456 134.724ZM771.856 133.54C771.008 133.54 770.336 133.14 770.336 132.148C770.336 131.028 771.312 130.308 774.24 129.972V132.388C773.408 133.14 772.704 133.54 771.856 133.54ZM781.416 134.724C782.472 134.724 783.384 134.164 784.072 133.476H784.104L784.232 134.5H785.432V121.78H783.976V125.108L784.04 126.612C783.288 125.972 782.616 125.604 781.608 125.604C779.624 125.604 777.832 127.348 777.832 130.18C777.832 133.076 779.24 134.724 781.416 134.724ZM781.736 133.492C780.216 133.492 779.352 132.244 779.352 130.164C779.352 128.18 780.456 126.82 781.848 126.82C782.568 126.82 783.24 127.076 783.976 127.748V132.308C783.256 133.092 782.552 133.492 781.736 133.492ZM790.394 134.724C791.466 134.724 792.442 134.164 793.258 133.476H793.322L793.45 134.5H794.65V129.172C794.65 127.012 793.754 125.604 791.626 125.604C790.234 125.604 789.018 126.212 788.218 126.724L788.794 127.748C789.466 127.284 790.378 126.804 791.402 126.804C792.826 126.804 793.178 127.876 793.178 128.996C789.482 129.412 787.85 130.356 787.85 132.244C787.85 133.812 788.938 134.724 790.394 134.724ZM790.794 133.54C789.946 133.54 789.274 133.14 789.274 132.148C789.274 131.028 790.25 130.308 793.178 129.972V132.388C792.346 133.14 791.642 133.54 790.794 133.54Z" fill="black"/>
<rect x="705" y="103" width="125" height="50" stroke="#B3B3B3"/>
<rect x="705" y="153" width="125" height="50" fill="white"/>
<path d="M748.276 184.724C750.564 184.724 751.508 183.092 751.508 181.06V172.772H750.02V180.932C750.02 182.708 749.412 183.412 748.132 183.412C747.3 183.412 746.628 183.044 746.116 182.1L745.044 182.852C745.748 184.084 746.788 184.724 748.276 184.724ZM756.535 184.724C757.607 184.724 758.583 184.164 759.399 183.476H759.463L759.591 184.5H760.791V179.172C760.791 177.012 759.895 175.604 757.766 175.604C756.375 175.604 755.159 176.212 754.359 176.724L754.935 177.748C755.607 177.284 756.519 176.804 757.543 176.804C758.967 176.804 759.319 177.876 759.319 178.996C755.623 179.412 753.991 180.356 753.991 182.244C753.991 183.812 755.079 184.724 756.535 184.724ZM756.935 183.54C756.087 183.54 755.414 183.14 755.414 182.148C755.414 181.028 756.391 180.308 759.319 179.972V182.388C758.487 183.14 757.783 183.54 756.935 183.54ZM763.55 188.164H765.006V185.236L764.974 183.716C765.758 184.356 766.574 184.724 767.358 184.724C769.358 184.724 771.134 182.996 771.134 180.036C771.134 177.348 769.934 175.604 767.678 175.604C766.67 175.604 765.71 176.164 764.926 176.82H764.878L764.734 175.812H763.55V188.164ZM767.134 183.492C766.558 183.492 765.79 183.252 765.006 182.596V178.02C765.854 177.236 766.59 176.82 767.326 176.82C768.974 176.82 769.63 178.116 769.63 180.052C769.63 182.196 768.558 183.492 767.134 183.492ZM775.175 184.724C776.247 184.724 777.223 184.164 778.039 183.476H778.103L778.231 184.5H779.431V179.172C779.431 177.012 778.535 175.604 776.407 175.604C775.015 175.604 773.799 176.212 772.999 176.724L773.575 177.748C774.247 177.284 775.159 176.804 776.183 176.804C777.607 176.804 777.959 177.876 777.959 178.996C774.263 179.412 772.631 180.356 772.631 182.244C772.631 183.812 773.719 184.724 775.175 184.724ZM775.575 183.54C774.727 183.54 774.055 183.14 774.055 182.148C774.055 181.028 775.031 180.308 777.959 179.972V182.388C777.127 183.14 776.423 183.54 775.575 183.54ZM782.191 184.5H783.647V178.196C784.511 177.332 785.135 176.868 786.015 176.868C787.167 176.868 787.663 177.556 787.663 179.188V184.5H789.135V178.996C789.135 176.788 788.303 175.604 786.479 175.604C785.279 175.604 784.383 176.26 783.567 177.076H783.519L783.375 175.812H782.191V184.5Z" fill="black"/>
<rect x="705" y="153" width="125" height="50" stroke="#B3B3B3"/>
<rect x="239" y="1" width="123" height="52" fill="#1A69C6"/>
<path d="M260.272 33.724C261.808 33.724 263.072 33.132 264.048 31.996L262.8 30.508C262.176 31.196 261.376 31.676 260.368 31.676C258.48 31.676 257.28 30.14 257.28 27.548C257.28 25.02 258.624 23.484 260.4 23.484C261.312 23.484 261.984 23.884 262.592 24.476L263.84 22.956C263.072 22.156 261.872 21.452 260.368 21.452C257.36 21.452 254.864 23.724 254.864 27.628C254.864 31.58 257.28 33.724 260.272 33.724ZM268.17 33.724C269.386 33.724 270.234 33.132 271.018 32.22H271.066L271.242 33.5H273.162V24.556H270.826V30.588C270.218 31.388 269.738 31.708 269.002 31.708C268.122 31.708 267.738 31.228 267.738 29.852V24.556H265.386V30.14C265.386 32.396 266.234 33.724 268.17 33.724ZM278.246 33.724C280.566 33.724 281.798 32.476 281.798 30.892C281.798 29.244 280.502 28.636 279.318 28.188C278.358 27.852 277.542 27.596 277.542 26.956C277.542 26.428 277.91 26.076 278.726 26.076C279.382 26.076 280.022 26.396 280.646 26.844L281.718 25.436C280.982 24.86 279.958 24.332 278.662 24.332C276.614 24.332 275.334 25.468 275.334 27.052C275.334 28.572 276.598 29.244 277.734 29.692C278.662 30.044 279.606 30.364 279.606 31.02C279.606 31.58 279.19 31.98 278.294 31.98C277.462 31.98 276.71 31.612 275.894 30.988L274.838 32.476C275.718 33.212 277.046 33.724 278.246 33.724ZM286.419 33.724C287.219 33.724 287.843 33.548 288.323 33.388L287.939 31.676C287.683 31.772 287.347 31.884 287.043 31.884C286.259 31.884 285.827 31.404 285.827 30.38V26.396H288.051V24.556H285.827V22.124H283.875L283.619 24.556L282.227 24.652V26.396H283.475V30.38C283.475 32.38 284.291 33.724 286.419 33.724ZM293.242 33.724C295.482 33.724 297.53 31.996 297.53 29.036C297.53 26.06 295.482 24.332 293.242 24.332C290.986 24.332 288.938 26.06 288.938 29.036C288.938 31.996 290.986 33.724 293.242 33.724ZM293.242 31.82C292.01 31.82 291.338 30.716 291.338 29.036C291.338 27.34 292.01 26.252 293.242 26.252C294.458 26.252 295.13 27.34 295.13 29.036C295.13 30.716 294.458 31.82 293.242 31.82ZM299.514 33.5H301.866V27.34C302.474 26.668 303.066 26.348 303.562 26.348C304.426 26.348 304.826 26.812 304.826 28.22V33.5H307.178V27.34C307.818 26.668 308.378 26.348 308.89 26.348C309.754 26.348 310.138 26.812 310.138 28.22V33.5H312.49V27.916C312.49 25.676 311.626 24.332 309.722 24.332C308.554 24.332 307.69 25.036 306.858 25.884C306.442 24.892 305.69 24.332 304.394 24.332C303.242 24.332 302.41 24.972 301.658 25.74H301.61L301.418 24.556H299.514V33.5ZM318.84 33.724C319.944 33.724 321.064 33.356 321.944 32.748L321.16 31.292C320.504 31.692 319.864 31.916 319.144 31.916C317.816 31.916 316.856 31.164 316.648 29.692H322.184C322.232 29.468 322.28 29.052 322.28 28.604C322.28 26.124 321.016 24.332 318.536 24.332C316.424 24.332 314.376 26.124 314.376 29.036C314.376 31.996 316.328 33.724 318.84 33.724ZM316.616 28.124C316.808 26.812 317.64 26.14 318.584 26.14C319.736 26.14 320.28 26.908 320.28 28.124H316.616ZM324.233 33.5H326.585V28.172C327.081 26.876 327.929 26.396 328.617 26.396C329.001 26.396 329.241 26.46 329.561 26.54L329.961 24.524C329.689 24.396 329.401 24.332 328.921 24.332C327.993 24.332 327.017 24.956 326.377 26.14H326.329L326.137 24.556H324.233V33.5ZM331.409 33.5H333.777V21.66H331.409V33.5ZM336.69 33.5H340.066C343.554 33.5 345.778 31.516 345.778 27.532C345.778 23.532 343.554 21.66 339.938 21.66H336.69V33.5ZM339.058 31.596V23.548H339.778C342.002 23.548 343.362 24.652 343.362 27.532C343.362 30.412 342.002 31.596 339.778 31.596H339.058Z" fill="white"/>
<rect x="239" y="1" width="123" height="52" stroke="#B3B3B3"/>
<rect x="239" y="53" width="123" height="50" fill="white"/>
<path d="M279.408 84.5H285.84V83.284H283.472V72.772H282.352C281.728 73.156 280.976 73.428 279.92 73.604V74.548H282.016V83.284H279.408V84.5ZM291.323 84.724C293.531 84.724 294.955 82.692 294.955 78.596C294.955 74.532 293.531 72.564 291.323 72.564C289.083 72.564 287.659 74.532 287.659 78.596C287.659 82.692 289.083 84.724 291.323 84.724ZM291.323 83.54C289.979 83.54 289.067 82.052 289.067 78.596C289.067 75.188 289.979 73.732 291.323 73.732C292.651 73.732 293.547 75.188 293.547 78.596C293.547 82.052 292.651 83.54 291.323 83.54ZM300.198 84.724C302.406 84.724 303.83 82.692 303.83 78.596C303.83 74.532 302.406 72.564 300.198 72.564C297.958 72.564 296.534 74.532 296.534 78.596C296.534 82.692 297.958 84.724 300.198 84.724ZM300.198 83.54C298.854 83.54 297.942 82.052 297.942 78.596C297.942 75.188 298.854 73.732 300.198 73.732C301.526 73.732 302.422 75.188 302.422 78.596C302.422 82.052 301.526 83.54 300.198 83.54ZM309.073 84.724C311.281 84.724 312.705 82.692 312.705 78.596C312.705 74.532 311.281 72.564 309.073 72.564C306.833 72.564 305.409 74.532 305.409 78.596C305.409 82.692 306.833 84.724 309.073 84.724ZM309.073 83.54C307.729 83.54 306.817 82.052 306.817 78.596C306.817 75.188 307.729 73.732 309.073 73.732C310.401 73.732 311.297 75.188 311.297 78.596C311.297 82.052 310.401 83.54 309.073 83.54ZM314.908 84.5H321.34V83.284H318.972V72.772H317.852C317.228 73.156 316.476 73.428 315.42 73.604V74.548H317.516V83.284H314.908V84.5Z" fill="black"/>
<rect x="239" y="53" width="123" height="50" stroke="#B3B3B3"/>
<rect x="239" y="103" width="123" height="50" fill="white"/>
<path d="M279.408 134.5H285.84V133.284H283.472V122.772H282.352C281.728 123.156 280.976 123.428 279.92 123.604V124.548H282.016V133.284H279.408V134.5ZM291.323 134.724C293.531 134.724 294.955 132.692 294.955 128.596C294.955 124.532 293.531 122.564 291.323 122.564C289.083 122.564 287.659 124.532 287.659 128.596C287.659 132.692 289.083 134.724 291.323 134.724ZM291.323 133.54C289.979 133.54 289.067 132.052 289.067 128.596C289.067 125.188 289.979 123.732 291.323 123.732C292.651 123.732 293.547 125.188 293.547 128.596C293.547 132.052 292.651 133.54 291.323 133.54ZM300.198 134.724C302.406 134.724 303.83 132.692 303.83 128.596C303.83 124.532 302.406 122.564 300.198 122.564C297.958 122.564 296.534 124.532 296.534 128.596C296.534 132.692 297.958 134.724 300.198 134.724ZM300.198 133.54C298.854 133.54 297.942 132.052 297.942 128.596C297.942 125.188 298.854 123.732 300.198 123.732C301.526 123.732 302.422 125.188 302.422 128.596C302.422 132.052 301.526 133.54 300.198 133.54ZM309.073 134.724C311.281 134.724 312.705 132.692 312.705 128.596C312.705 124.532 311.281 122.564 309.073 122.564C306.833 122.564 305.409 124.532 305.409 128.596C305.409 132.692 306.833 134.724 309.073 134.724ZM309.073 133.54C307.729 133.54 306.817 132.052 306.817 128.596C306.817 125.188 307.729 123.732 309.073 123.732C310.401 123.732 311.297 125.188 311.297 128.596C311.297 132.052 310.401 133.54 309.073 133.54ZM314.204 134.5H321.564V133.252H318.316C317.724 133.252 317.02 133.3 316.396 133.364C319.164 130.756 321.004 128.372 321.004 126.02C321.004 123.924 319.692 122.564 317.596 122.564C316.108 122.564 315.084 123.252 314.124 124.292L314.972 125.108C315.628 124.34 316.46 123.748 317.42 123.748C318.876 123.748 319.564 124.74 319.564 126.084C319.564 128.084 317.884 130.436 314.204 133.652V134.5Z" fill="black"/>
<rect x="239" y="103" width="123" height="50" stroke="#B3B3B3"/>
<rect x="239" y="153" width="123" height="50" fill="white"/>
<path d="M279.408 184.5H285.84V183.284H283.472V172.772H282.352C281.728 173.156 280.976 173.428 279.92 173.604V174.548H282.016V183.284H279.408V184.5ZM291.323 184.724C293.531 184.724 294.955 182.692 294.955 178.596C294.955 174.532 293.531 172.564 291.323 172.564C289.083 172.564 287.659 174.532 287.659 178.596C287.659 182.692 289.083 184.724 291.323 184.724ZM291.323 183.54C289.979 183.54 289.067 182.052 289.067 178.596C289.067 175.188 289.979 173.732 291.323 173.732C292.651 173.732 293.547 175.188 293.547 178.596C293.547 182.052 292.651 183.54 291.323 183.54ZM300.198 184.724C302.406 184.724 303.83 182.692 303.83 178.596C303.83 174.532 302.406 172.564 300.198 172.564C297.958 172.564 296.534 174.532 296.534 178.596C296.534 182.692 297.958 184.724 300.198 184.724ZM300.198 183.54C298.854 183.54 297.942 182.052 297.942 178.596C297.942 175.188 298.854 173.732 300.198 173.732C301.526 173.732 302.422 175.188 302.422 178.596C302.422 182.052 301.526 183.54 300.198 183.54ZM309.073 184.724C311.281 184.724 312.705 182.692 312.705 178.596C312.705 174.532 311.281 172.564 309.073 172.564C306.833 172.564 305.409 174.532 305.409 178.596C305.409 182.692 306.833 184.724 309.073 184.724ZM309.073 183.54C307.729 183.54 306.817 182.052 306.817 178.596C306.817 175.188 307.729 173.732 309.073 173.732C310.401 173.732 311.297 175.188 311.297 178.596C311.297 182.052 310.401 183.54 309.073 183.54ZM317.708 184.724C319.804 184.724 321.484 183.46 321.484 181.38C321.484 179.764 320.364 178.724 318.988 178.388V178.324C320.236 177.876 321.068 176.932 321.068 175.508C321.068 173.636 319.628 172.564 317.66 172.564C316.316 172.564 315.276 173.156 314.396 173.956L315.18 174.9C315.836 174.228 316.668 173.748 317.612 173.748C318.828 173.748 319.58 174.484 319.58 175.604C319.58 176.884 318.764 177.844 316.348 177.844V178.98C319.052 178.98 319.996 179.908 319.996 181.316C319.996 182.66 319.004 183.508 317.612 183.508C316.268 183.508 315.388 182.868 314.7 182.148L313.964 183.108C314.732 183.956 315.868 184.724 317.708 184.724Z" fill="black"/>
<rect x="239" y="153" width="123" height="50" stroke="#B3B3B3"/>
<rect x="362" y="1" width="123" height="52" fill="#1A69C6"/>
<path d="M413.772 33.724C415.308 33.724 416.572 33.132 417.548 31.996L416.3 30.508C415.676 31.196 414.876 31.676 413.868 31.676C411.98 31.676 410.78 30.14 410.78 27.548C410.78 25.02 412.124 23.484 413.9 23.484C414.812 23.484 415.484 23.884 416.092 24.476L417.34 22.956C416.572 22.156 415.372 21.452 413.868 21.452C410.86 21.452 408.364 23.724 408.364 27.628C408.364 31.58 410.78 33.724 413.772 33.724ZM419.264 33.5H421.616V24.556H419.264V33.5ZM420.432 23.1C421.248 23.1 421.808 22.588 421.808 21.804C421.808 21.036 421.248 20.54 420.432 20.54C419.616 20.54 419.072 21.036 419.072 21.804C419.072 22.588 419.616 23.1 420.432 23.1ZM427.387 33.724C428.187 33.724 428.811 33.548 429.291 33.388L428.907 31.676C428.651 31.772 428.315 31.884 428.011 31.884C427.227 31.884 426.795 31.404 426.795 30.38V26.396H429.019V24.556H426.795V22.124H424.843L424.587 24.556L423.195 24.652V26.396H424.443V30.38C424.443 32.38 425.259 33.724 427.387 33.724ZM431.626 37.1C433.642 37.1 434.602 35.884 435.386 33.788L438.57 24.556H436.314L435.066 28.7C434.858 29.548 434.634 30.396 434.442 31.244H434.362C434.09 30.38 433.866 29.516 433.594 28.7L432.186 24.556H429.802L433.29 33.34L433.146 33.868C432.874 34.668 432.362 35.244 431.466 35.244C431.242 35.244 431.002 35.164 430.842 35.116L430.41 36.924C430.746 37.036 431.114 37.1 431.626 37.1Z" fill="white"/>
<rect x="362" y="1" width="123" height="52" stroke="#B3B3B3"/>
<rect x="362" y="53" width="123" height="50" fill="white"/>
<path d="M398.032 84.5H399.536V74.02H403.072V72.772H394.496V74.02H398.032V84.5ZM407.192 84.724C409.32 84.724 411.208 83.044 411.208 80.18C411.208 77.268 409.32 75.604 407.192 75.604C405.048 75.604 403.16 77.268 403.16 80.18C403.16 83.044 405.048 84.724 407.192 84.724ZM407.192 83.508C405.672 83.508 404.664 82.164 404.664 80.18C404.664 78.164 405.672 76.82 407.192 76.82C408.696 76.82 409.704 78.164 409.704 80.18C409.704 82.164 408.696 83.508 407.192 83.508ZM413.519 84.5H414.975V78.932C415.551 77.444 416.447 76.916 417.167 76.916C417.519 76.916 417.711 76.964 418.015 77.06L418.287 75.78C417.999 75.652 417.743 75.604 417.359 75.604C416.383 75.604 415.487 76.292 414.895 77.396H414.847L414.703 75.812H413.519V84.5ZM422.879 84.724C425.007 84.724 426.895 83.044 426.895 80.18C426.895 77.268 425.007 75.604 422.879 75.604C420.735 75.604 418.847 77.268 418.847 80.18C418.847 83.044 420.735 84.724 422.879 84.724ZM422.879 83.508C421.359 83.508 420.351 82.164 420.351 80.18C420.351 78.164 421.359 76.82 422.879 76.82C424.383 76.82 425.391 78.164 425.391 80.18C425.391 82.164 424.383 83.508 422.879 83.508ZM429.206 84.5H430.662V78.196C431.526 77.332 432.15 76.868 433.03 76.868C434.182 76.868 434.678 77.556 434.678 79.188V84.5H436.15V78.996C436.15 76.788 435.318 75.604 433.494 75.604C432.294 75.604 431.398 76.26 430.582 77.076H430.534L430.39 75.812H429.206V84.5ZM441.692 84.724C442.236 84.724 442.812 84.564 443.292 84.388L443.004 83.3C442.732 83.412 442.332 83.54 442.028 83.54C441.02 83.54 440.684 82.916 440.684 81.86V76.996H443.036V75.812H440.684V73.364H439.452L439.292 75.812L437.932 75.908V76.996H439.228V81.828C439.228 83.556 439.836 84.724 441.692 84.724ZM448.098 84.724C450.226 84.724 452.114 83.044 452.114 80.18C452.114 77.268 450.226 75.604 448.098 75.604C445.954 75.604 444.066 77.268 444.066 80.18C444.066 83.044 445.954 84.724 448.098 84.724ZM448.098 83.508C446.578 83.508 445.57 82.164 445.57 80.18C445.57 78.164 446.578 76.82 448.098 76.82C449.602 76.82 450.61 78.164 450.61 80.18C450.61 82.164 449.602 83.508 448.098 83.508Z" fill="black"/>
<rect x="362" y="53" width="123" height="50" stroke="#B3B3B3"/>
<rect x="362" y="103" width="123" height="50" fill="white"/>
<path d="M387.744 134.5H389.456L393.2 122.772H391.68L389.808 129.124C389.392 130.516 389.104 131.62 388.672 133.012H388.592C388.16 131.62 387.872 130.516 387.456 129.124L385.568 122.772H384L387.744 134.5ZM396.253 134.724C397.325 134.724 398.301 134.164 399.117 133.476H399.181L399.309 134.5H400.509V129.172C400.509 127.012 399.613 125.604 397.485 125.604C396.093 125.604 394.877 126.212 394.077 126.724L394.653 127.748C395.325 127.284 396.237 126.804 397.261 126.804C398.685 126.804 399.037 127.876 399.037 128.996C395.341 129.412 393.709 130.356 393.709 132.244C393.709 133.812 394.797 134.724 396.253 134.724ZM396.653 133.54C395.805 133.54 395.133 133.14 395.133 132.148C395.133 131.028 396.109 130.308 399.037 129.972V132.388C398.205 133.14 397.501 133.54 396.653 133.54ZM403.269 134.5H404.725V128.196C405.589 127.332 406.213 126.868 407.093 126.868C408.245 126.868 408.741 127.556 408.741 129.188V134.5H410.213V128.996C410.213 126.788 409.381 125.604 407.557 125.604C406.357 125.604 405.461 126.26 404.645 127.076H404.597L404.453 125.812H403.269V134.5ZM416.443 134.724C417.483 134.724 418.491 134.308 419.259 133.62L418.635 132.644C418.091 133.124 417.371 133.508 416.587 133.508C414.987 133.508 413.883 132.164 413.883 130.18C413.883 128.164 415.035 126.82 416.635 126.82C417.307 126.82 417.851 127.124 418.363 127.588L419.099 126.628C418.491 126.068 417.691 125.604 416.555 125.604C414.331 125.604 412.379 127.268 412.379 130.18C412.379 133.044 414.139 134.724 416.443 134.724ZM424.145 134.724C426.273 134.724 428.161 133.044 428.161 130.18C428.161 127.268 426.273 125.604 424.145 125.604C422.001 125.604 420.113 127.268 420.113 130.18C420.113 133.044 422.001 134.724 424.145 134.724ZM424.145 133.508C422.625 133.508 421.617 132.164 421.617 130.18C421.617 128.164 422.625 126.82 424.145 126.82C425.649 126.82 426.657 128.164 426.657 130.18C426.657 132.164 425.649 133.508 424.145 133.508ZM433 134.724C434.2 134.724 435.064 134.084 435.88 133.14H435.912L436.04 134.5H437.24V125.812H435.784V131.988C434.968 133.012 434.328 133.444 433.448 133.444C432.296 133.444 431.8 132.756 431.8 131.14V125.812H430.344V131.316C430.344 133.54 431.176 134.724 433 134.724ZM442.063 134.5H443.759L446.831 125.812H445.407L443.743 130.772C443.487 131.62 443.215 132.5 442.943 133.316H442.879C442.607 132.5 442.335 131.62 442.079 130.772L440.431 125.812H438.927L442.063 134.5ZM451.929 134.724C453.113 134.724 454.025 134.324 454.793 133.828L454.265 132.852C453.625 133.284 452.937 133.556 452.105 133.556C450.441 133.556 449.321 132.356 449.209 130.516H455.065C455.113 130.292 455.129 129.988 455.129 129.684C455.129 127.188 453.881 125.604 451.673 125.604C449.673 125.604 447.769 127.348 447.769 130.18C447.769 133.028 449.609 134.724 451.929 134.724ZM449.193 129.46C449.385 127.748 450.473 126.772 451.689 126.772C453.065 126.772 453.849 127.716 453.849 129.46H449.193ZM457.285 134.5H458.741V128.932C459.317 127.444 460.213 126.916 460.933 126.916C461.285 126.916 461.477 126.964 461.781 127.06L462.053 125.78C461.765 125.652 461.509 125.604 461.125 125.604C460.149 125.604 459.253 126.292 458.661 127.396H458.613L458.469 125.812H457.285V134.5Z" fill="black"/>
<rect x="362" y="103" width="123" height="50" stroke="#B3B3B3"/>
<rect x="362" y="153" width="123" height="50" fill="white"/>
<path d="M405.032 184.5H406.536V174.02H410.072V172.772H401.496V174.02H405.032V184.5ZM414.192 184.724C416.32 184.724 418.208 183.044 418.208 180.18C418.208 177.268 416.32 175.604 414.192 175.604C412.048 175.604 410.16 177.268 410.16 180.18C410.16 183.044 412.048 184.724 414.192 184.724ZM414.192 183.508C412.672 183.508 411.664 182.164 411.664 180.18C411.664 178.164 412.672 176.82 414.192 176.82C415.696 176.82 416.704 178.164 416.704 180.18C416.704 182.164 415.696 183.508 414.192 183.508ZM420.519 184.5H421.959V182.212L423.575 180.308L426.119 184.5H427.703L424.439 179.316L427.335 175.812H425.703L422.007 180.404H421.959V171.78H420.519V184.5ZM429.475 188.26C431.219 188.26 432.115 186.948 432.723 185.236L436.003 175.812H434.579L433.011 180.644C432.787 181.428 432.531 182.292 432.291 183.092H432.211C431.923 182.292 431.635 181.412 431.363 180.644L429.587 175.812H428.083L431.571 184.516L431.379 185.172C431.011 186.244 430.387 187.044 429.411 187.044C429.171 187.044 428.915 186.98 428.755 186.916L428.467 188.084C428.739 188.196 429.075 188.26 429.475 188.26ZM440.957 184.724C443.085 184.724 444.973 183.044 444.973 180.18C444.973 177.268 443.085 175.604 440.957 175.604C438.813 175.604 436.925 177.268 436.925 180.18C436.925 183.044 438.813 184.724 440.957 184.724ZM440.957 183.508C439.437 183.508 438.429 182.164 438.429 180.18C438.429 178.164 439.437 176.82 440.957 176.82C442.461 176.82 443.469 178.164 443.469 180.18C443.469 182.164 442.461 183.508 440.957 183.508Z" fill="black"/>
<rect x="362" y="153" width="123" height="50" stroke="#B3B3B3"/>
<path d="M264.272 257.224C265.808 257.224 267.072 256.632 268.048 255.496L266.8 254.008C266.176 254.696 265.376 255.176 264.368 255.176C262.48 255.176 261.28 253.64 261.28 251.048C261.28 248.52 262.624 246.984 264.4 246.984C265.312 246.984 265.984 247.384 266.592 247.976L267.84 246.456C267.072 245.656 265.872 244.952 264.368 244.952C261.36 244.952 258.864 247.224 258.864 251.128C258.864 255.08 261.28 257.224 264.272 257.224ZM273.508 257.224C275.748 257.224 277.796 255.496 277.796 252.536C277.796 249.56 275.748 247.832 273.508 247.832C271.252 247.832 269.204 249.56 269.204 252.536C269.204 255.496 271.252 257.224 273.508 257.224ZM273.508 255.32C272.276 255.32 271.604 254.216 271.604 252.536C271.604 250.84 272.276 249.752 273.508 249.752C274.724 249.752 275.396 250.84 275.396 252.536C275.396 254.216 274.724 255.32 273.508 255.32ZM281.988 257.224C282.548 257.224 282.916 257.128 283.188 257.032L282.9 255.288C282.74 255.32 282.676 255.32 282.596 255.32C282.372 255.32 282.132 255.144 282.132 254.584V244.248H279.78V254.488C279.78 256.152 280.34 257.224 281.988 257.224ZM287.499 257.224C288.715 257.224 289.563 256.632 290.347 255.72H290.395L290.571 257H292.491V248.056H290.155V254.088C289.547 254.888 289.067 255.208 288.331 255.208C287.451 255.208 287.067 254.728 287.067 253.352V248.056H284.715V253.64C284.715 255.896 285.562 257.224 287.499 257.224ZM295.014 257H297.366V250.84C297.974 250.168 298.566 249.848 299.062 249.848C299.926 249.848 300.326 250.312 300.326 251.72V257H302.678V250.84C303.318 250.168 303.878 249.848 304.39 249.848C305.254 249.848 305.638 250.312 305.638 251.72V257H307.99V251.416C307.99 249.176 307.126 247.832 305.222 247.832C304.054 247.832 303.19 248.536 302.358 249.384C301.942 248.392 301.19 247.832 299.894 247.832C298.742 247.832 297.91 248.472 297.158 249.24H297.11L296.918 248.056H295.014V257ZM310.436 257H312.788V250.84C313.444 250.2 313.908 249.848 314.644 249.848C315.508 249.848 315.908 250.312 315.908 251.72V257H318.26V251.416C318.26 249.176 317.412 247.832 315.492 247.832C314.276 247.832 313.348 248.472 312.58 249.24H312.532L312.34 248.056H310.436V257ZM320.19 253.272H324.574V251.592H320.19V253.272ZM330.352 257.224C332.592 257.224 334.64 255.496 334.64 252.536C334.64 249.56 332.592 247.832 330.352 247.832C328.096 247.832 326.048 249.56 326.048 252.536C326.048 255.496 328.096 257.224 330.352 257.224ZM330.352 255.32C329.12 255.32 328.448 254.216 328.448 252.536C328.448 250.84 329.12 249.752 330.352 249.752C331.568 249.752 332.24 250.84 332.24 252.536C332.24 254.216 331.568 255.32 330.352 255.32ZM336.623 257H338.975V251.672C339.471 250.376 340.319 249.896 341.007 249.896C341.391 249.896 341.631 249.96 341.951 250.04L342.351 248.024C342.079 247.896 341.791 247.832 341.311 247.832C340.383 247.832 339.407 248.456 338.767 249.64H338.719L338.527 248.056H336.623V257ZM343.608 257H345.96V248.056H343.608V257ZM344.776 246.6C345.592 246.6 346.152 246.088 346.152 245.304C346.152 244.536 345.592 244.04 344.776 244.04C343.96 244.04 343.416 244.536 343.416 245.304C343.416 246.088 343.96 246.6 344.776 246.6ZM352.371 257.224C353.475 257.224 354.595 256.856 355.475 256.248L354.691 254.792C354.035 255.192 353.395 255.416 352.675 255.416C351.347 255.416 350.387 254.664 350.179 253.192H355.715C355.763 252.968 355.811 252.552 355.811 252.104C355.811 249.624 354.547 247.832 352.067 247.832C349.955 247.832 347.907 249.624 347.907 252.536C347.907 255.496 349.859 257.224 352.371 257.224ZM350.147 251.624C350.339 250.312 351.171 249.64 352.115 249.64C353.267 249.64 353.811 250.408 353.811 251.624H350.147ZM357.764 257H360.116V250.84C360.772 250.2 361.236 249.848 361.972 249.848C362.836 249.848 363.236 250.312 363.236 251.72V257H365.588V251.416C365.588 249.176 364.74 247.832 362.82 247.832C361.604 247.832 360.676 248.472 359.908 249.24H359.86L359.668 248.056H357.764V257ZM371.278 257.224C372.078 257.224 372.702 257.048 373.182 256.888L372.798 255.176C372.542 255.272 372.206 255.384 371.902 255.384C371.118 255.384 370.686 254.904 370.686 253.88V249.896H372.91V248.056H370.686V245.624H368.734L368.478 248.056L367.086 248.152V249.896H368.334V253.88C368.334 255.88 369.15 257.224 371.278 257.224ZM378.262 257.224C379.366 257.224 380.486 256.856 381.366 256.248L380.582 254.792C379.926 255.192 379.286 255.416 378.566 255.416C377.238 255.416 376.278 254.664 376.07 253.192H381.606C381.654 252.968 381.702 252.552 381.702 252.104C381.702 249.624 380.438 247.832 377.958 247.832C375.846 247.832 373.798 249.624 373.798 252.536C373.798 255.496 375.75 257.224 378.262 257.224ZM376.038 251.624C376.23 250.312 377.062 249.64 378.006 249.64C379.158 249.64 379.702 250.408 379.702 251.624H376.038ZM386.807 257.224C387.735 257.224 388.631 256.728 389.287 256.072H389.335L389.511 257H391.431V244.248H389.079V247.384L389.175 248.792C388.519 248.2 387.895 247.832 386.887 247.832C384.967 247.832 383.127 249.608 383.127 252.536C383.127 255.48 384.567 257.224 386.807 257.224ZM387.399 255.288C386.231 255.288 385.543 254.376 385.543 252.504C385.543 250.712 386.407 249.752 387.415 249.752C387.975 249.752 388.551 249.944 389.079 250.44V254.376C388.567 255.032 388.039 255.288 387.399 255.288ZM400.729 257.224C401.657 257.224 402.553 256.728 403.209 256.072H403.257L403.433 257H405.352V244.248H403.001V247.384L403.097 248.792C402.441 248.2 401.817 247.832 400.809 247.832C398.889 247.832 397.049 249.608 397.049 252.536C397.049 255.48 398.489 257.224 400.729 257.224ZM401.321 255.288C400.153 255.288 399.465 254.376 399.465 252.504C399.465 250.712 400.329 249.752 401.337 249.752C401.897 249.752 402.473 249.944 403.001 250.44V254.376C402.489 255.032 401.961 255.288 401.321 255.288ZM410.065 257.224C411.089 257.224 411.985 256.728 412.769 256.056H412.833L413.009 257H414.929V251.784C414.929 249.176 413.761 247.832 411.489 247.832C410.065 247.832 408.801 248.36 407.745 249L408.593 250.568C409.409 250.072 410.225 249.72 411.057 249.72C412.161 249.72 412.529 250.376 412.577 251.256C408.977 251.656 407.425 252.664 407.425 254.568C407.425 256.104 408.465 257.224 410.065 257.224ZM410.833 255.384C410.145 255.384 409.665 255.08 409.665 254.392C409.665 253.576 410.385 252.984 412.577 252.712V254.52C412.001 255.08 411.505 255.384 410.833 255.384ZM420.2 257.224C421 257.224 421.624 257.048 422.104 256.888L421.72 255.176C421.464 255.272 421.128 255.384 420.824 255.384C420.04 255.384 419.608 254.904 419.608 253.88V249.896H421.832V248.056H419.608V245.624H417.656L417.4 248.056L416.008 248.152V249.896H417.256V253.88C417.256 255.88 418.072 257.224 420.2 257.224ZM425.378 257.224C426.402 257.224 427.298 256.728 428.082 256.056H428.146L428.322 257H430.242V251.784C430.242 249.176 429.074 247.832 426.802 247.832C425.378 247.832 424.114 248.36 423.058 249L423.906 250.568C424.722 250.072 425.538 249.72 426.37 249.72C427.474 249.72 427.842 250.376 427.89 251.256C424.29 251.656 422.738 252.664 422.738 254.568C422.738 256.104 423.778 257.224 425.378 257.224ZM426.146 255.384C425.458 255.384 424.978 255.08 424.978 254.392C424.978 253.576 425.698 252.984 427.89 252.712V254.52C427.314 255.08 426.818 255.384 426.146 255.384ZM438.824 257.224C441.144 257.224 442.376 255.976 442.376 254.392C442.376 252.744 441.08 252.136 439.896 251.688C438.936 251.352 438.12 251.096 438.12 250.456C438.12 249.928 438.488 249.576 439.304 249.576C439.96 249.576 440.6 249.896 441.224 250.344L442.296 248.936C441.56 248.36 440.536 247.832 439.24 247.832C437.192 247.832 435.912 248.968 435.912 250.552C435.912 252.072 437.176 252.744 438.312 253.192C439.24 253.544 440.184 253.864 440.184 254.52C440.184 255.08 439.768 255.48 438.872 255.48C438.04 255.48 437.288 255.112 436.472 254.488L435.416 255.976C436.296 256.712 437.624 257.224 438.824 257.224ZM446.997 257.224C447.797 257.224 448.421 257.048 448.901 256.888L448.517 255.176C448.261 255.272 447.925 255.384 447.621 255.384C446.837 255.384 446.405 254.904 446.405 253.88V249.896H448.629V248.056H446.405V245.624H444.453L444.197 248.056L442.805 248.152V249.896H444.053V253.88C444.053 255.88 444.869 257.224 446.997 257.224ZM453.821 257.224C456.061 257.224 458.109 255.496 458.109 252.536C458.109 249.56 456.061 247.832 453.821 247.832C451.565 247.832 449.517 249.56 449.517 252.536C449.517 255.496 451.565 257.224 453.821 257.224ZM453.821 255.32C452.589 255.32 451.917 254.216 451.917 252.536C451.917 250.84 452.589 249.752 453.821 249.752C455.037 249.752 455.709 250.84 455.709 252.536C455.709 254.216 455.037 255.32 453.821 255.32ZM460.092 257H462.444V251.672C462.94 250.376 463.788 249.896 464.476 249.896C464.86 249.896 465.1 249.96 465.42 250.04L465.82 248.024C465.548 247.896 465.26 247.832 464.78 247.832C463.852 247.832 462.876 248.456 462.236 249.64H462.188L461.996 248.056H460.092V257ZM468.69 257.224C469.714 257.224 470.61 256.728 471.394 256.056H471.458L471.634 257H473.554V251.784C473.554 249.176 472.386 247.832 470.114 247.832C468.69 247.832 467.426 248.36 466.37 249L467.218 250.568C468.034 250.072 468.85 249.72 469.682 249.72C470.786 249.72 471.154 250.376 471.202 251.256C467.602 251.656 466.05 252.664 466.05 254.568C466.05 256.104 467.09 257.224 468.69 257.224ZM469.458 255.384C468.77 255.384 468.29 255.08 468.29 254.392C468.29 253.576 469.01 252.984 471.202 252.712V254.52C470.626 255.08 470.13 255.384 469.458 255.384ZM479.088 260.888C482.08 260.888 483.984 259.528 483.984 257.72C483.984 256.136 482.8 255.48 480.64 255.48H479.104C478.064 255.48 477.696 255.208 477.696 254.744C477.696 254.376 477.84 254.184 478.08 253.96C478.48 254.104 478.88 254.168 479.232 254.168C481.168 254.168 482.704 253.16 482.704 251.128C482.704 250.584 482.528 250.088 482.288 249.784H483.824V248.056H480.592C480.224 247.912 479.744 247.832 479.232 247.832C477.344 247.832 475.616 248.952 475.616 251.064C475.616 252.12 476.208 252.968 476.832 253.416V253.48C476.272 253.864 475.824 254.472 475.824 255.144C475.824 255.88 476.176 256.36 476.64 256.664V256.744C475.808 257.192 475.36 257.848 475.36 258.6C475.36 260.168 476.992 260.888 479.088 260.888ZM479.232 252.728C478.448 252.728 477.824 252.12 477.824 251.064C477.824 250.008 478.448 249.432 479.232 249.432C480.032 249.432 480.64 250.008 480.64 251.064C480.64 252.12 480.016 252.728 479.232 252.728ZM479.456 259.4C478.144 259.4 477.312 258.984 477.312 258.232C477.312 257.864 477.488 257.512 477.904 257.176C478.224 257.272 478.592 257.304 479.136 257.304H480.224C481.184 257.304 481.712 257.48 481.712 258.12C481.712 258.808 480.8 259.4 479.456 259.4ZM489.012 257.224C490.116 257.224 491.236 256.856 492.116 256.248L491.332 254.792C490.676 255.192 490.036 255.416 489.316 255.416C487.988 255.416 487.028 254.664 486.82 253.192H492.356C492.404 252.968 492.452 252.552 492.452 252.104C492.452 249.624 491.188 247.832 488.708 247.832C486.596 247.832 484.548 249.624 484.548 252.536C484.548 255.496 486.5 257.224 489.012 257.224ZM486.788 251.624C486.98 250.312 487.812 249.64 488.756 249.64C489.908 249.64 490.452 250.408 490.452 251.624H486.788Z" fill="black"/>
</svg>
