<svg width="829" height="324" viewBox="0 0 829 324" fill="none" xmlns="http://www.w3.org/2000/svg">
<rect x="705" y="153" width="123" height="50" fill="white"/>
<path d="M744.032 184.724C745.552 184.724 746.688 184.116 747.616 183.028L746.816 182.1C746.064 182.932 745.2 183.412 744.096 183.412C741.856 183.412 740.448 181.572 740.448 178.612C740.448 175.684 741.92 173.86 744.144 173.86C745.136 173.86 745.92 174.308 746.528 174.964L747.344 174.004C746.656 173.252 745.552 172.564 744.128 172.564C741.152 172.564 738.928 174.868 738.928 178.644C738.928 182.452 741.104 184.724 744.032 184.724ZM751.675 184.724C752.747 184.724 753.723 184.164 754.539 183.476H754.603L754.731 184.5H755.931V179.172C755.931 177.012 755.035 175.604 752.907 175.604C751.515 175.604 750.299 176.212 749.499 176.724L750.075 177.748C750.747 177.284 751.659 176.804 752.683 176.804C754.107 176.804 754.459 177.876 754.459 178.996C750.763 179.412 749.131 180.356 749.131 182.244C749.131 183.812 750.219 184.724 751.675 184.724ZM752.075 183.54C751.227 183.54 750.555 183.14 750.555 182.148C750.555 181.028 751.531 180.308 754.459 179.972V182.388C753.627 183.14 752.923 183.54 752.075 183.54ZM758.691 184.5H760.147V178.196C761.011 177.332 761.635 176.868 762.515 176.868C763.667 176.868 764.163 177.556 764.163 179.188V184.5H765.635V178.996C765.635 176.788 764.803 175.604 762.979 175.604C761.779 175.604 760.883 176.26 760.067 177.076H760.019L759.875 175.812H758.691V184.5ZM770.456 184.724C771.528 184.724 772.504 184.164 773.32 183.476H773.384L773.512 184.5H774.712V179.172C774.712 177.012 773.816 175.604 771.688 175.604C770.296 175.604 769.08 176.212 768.28 176.724L768.856 177.748C769.528 177.284 770.44 176.804 771.464 176.804C772.888 176.804 773.24 177.876 773.24 178.996C769.544 179.412 767.912 180.356 767.912 182.244C767.912 183.812 769 184.724 770.456 184.724ZM770.856 183.54C770.008 183.54 769.336 183.14 769.336 182.148C769.336 181.028 770.312 180.308 773.24 179.972V182.388C772.408 183.14 771.704 183.54 770.856 183.54ZM780.416 184.724C781.472 184.724 782.384 184.164 783.072 183.476H783.104L783.232 184.5H784.432V171.78H782.976V175.108L783.04 176.612C782.288 175.972 781.616 175.604 780.608 175.604C778.624 175.604 776.832 177.348 776.832 180.18C776.832 183.076 778.24 184.724 780.416 184.724ZM780.736 183.492C779.216 183.492 778.352 182.244 778.352 180.164C778.352 178.18 779.456 176.82 780.848 176.82C781.568 176.82 782.24 177.076 782.976 177.748V182.308C782.256 183.092 781.552 183.492 780.736 183.492ZM789.394 184.724C790.466 184.724 791.442 184.164 792.258 183.476H792.322L792.45 184.5H793.65V179.172C793.65 177.012 792.754 175.604 790.626 175.604C789.234 175.604 788.018 176.212 787.218 176.724L787.794 177.748C788.466 177.284 789.378 176.804 790.402 176.804C791.826 176.804 792.178 177.876 792.178 178.996C788.482 179.412 786.85 180.356 786.85 182.244C786.85 183.812 787.938 184.724 789.394 184.724ZM789.794 183.54C788.946 183.54 788.274 183.14 788.274 182.148C788.274 181.028 789.25 180.308 792.178 179.972V182.388C791.346 183.14 790.642 183.54 789.794 183.54Z" fill="black"/>
<rect x="705" y="153" width="123" height="50" stroke="#B3B3B3"/>
<rect x="705" y="103" width="123" height="50" fill="white"/>
<path d="M744.032 134.724C745.552 134.724 746.688 134.116 747.616 133.028L746.816 132.1C746.064 132.932 745.2 133.412 744.096 133.412C741.856 133.412 740.448 131.572 740.448 128.612C740.448 125.684 741.92 123.86 744.144 123.86C745.136 123.86 745.92 124.308 746.528 124.964L747.344 124.004C746.656 123.252 745.552 122.564 744.128 122.564C741.152 122.564 738.928 124.868 738.928 128.644C738.928 132.452 741.104 134.724 744.032 134.724ZM751.675 134.724C752.747 134.724 753.723 134.164 754.539 133.476H754.603L754.731 134.5H755.931V129.172C755.931 127.012 755.035 125.604 752.907 125.604C751.515 125.604 750.299 126.212 749.499 126.724L750.075 127.748C750.747 127.284 751.659 126.804 752.683 126.804C754.107 126.804 754.459 127.876 754.459 128.996C750.763 129.412 749.131 130.356 749.131 132.244C749.131 133.812 750.219 134.724 751.675 134.724ZM752.075 133.54C751.227 133.54 750.555 133.14 750.555 132.148C750.555 131.028 751.531 130.308 754.459 129.972V132.388C753.627 133.14 752.923 133.54 752.075 133.54ZM758.691 134.5H760.147V128.196C761.011 127.332 761.635 126.868 762.515 126.868C763.667 126.868 764.163 127.556 764.163 129.188V134.5H765.635V128.996C765.635 126.788 764.803 125.604 762.979 125.604C761.779 125.604 760.883 126.26 760.067 127.076H760.019L759.875 125.812H758.691V134.5ZM770.456 134.724C771.528 134.724 772.504 134.164 773.32 133.476H773.384L773.512 134.5H774.712V129.172C774.712 127.012 773.816 125.604 771.688 125.604C770.296 125.604 769.08 126.212 768.28 126.724L768.856 127.748C769.528 127.284 770.44 126.804 771.464 126.804C772.888 126.804 773.24 127.876 773.24 128.996C769.544 129.412 767.912 130.356 767.912 132.244C767.912 133.812 769 134.724 770.456 134.724ZM770.856 133.54C770.008 133.54 769.336 133.14 769.336 132.148C769.336 131.028 770.312 130.308 773.24 129.972V132.388C772.408 133.14 771.704 133.54 770.856 133.54ZM780.416 134.724C781.472 134.724 782.384 134.164 783.072 133.476H783.104L783.232 134.5H784.432V121.78H782.976V125.108L783.04 126.612C782.288 125.972 781.616 125.604 780.608 125.604C778.624 125.604 776.832 127.348 776.832 130.18C776.832 133.076 778.24 134.724 780.416 134.724ZM780.736 133.492C779.216 133.492 778.352 132.244 778.352 130.164C778.352 128.18 779.456 126.82 780.848 126.82C781.568 126.82 782.24 127.076 782.976 127.748V132.308C782.256 133.092 781.552 133.492 780.736 133.492ZM789.394 134.724C790.466 134.724 791.442 134.164 792.258 133.476H792.322L792.45 134.5H793.65V129.172C793.65 127.012 792.754 125.604 790.626 125.604C789.234 125.604 788.018 126.212 787.218 126.724L787.794 127.748C788.466 127.284 789.378 126.804 790.402 126.804C791.826 126.804 792.178 127.876 792.178 128.996C788.482 129.412 786.85 130.356 786.85 132.244C786.85 133.812 787.938 134.724 789.394 134.724ZM789.794 133.54C788.946 133.54 788.274 133.14 788.274 132.148C788.274 131.028 789.25 130.308 792.178 129.972V132.388C791.346 133.14 790.642 133.54 789.794 133.54Z" fill="black"/>
<rect x="705" y="103" width="123" height="50" stroke="#B3B3B3"/>
<rect x="703" y="51" width="125" height="52" fill="#1A69C6"/>
<path d="M739.772 83.724C741.308 83.724 742.572 83.132 743.548 81.996L742.3 80.508C741.676 81.196 740.876 81.676 739.868 81.676C737.98 81.676 736.78 80.14 736.78 77.548C736.78 75.02 738.124 73.484 739.9 73.484C740.812 73.484 741.484 73.884 742.092 74.476L743.34 72.956C742.572 72.156 741.372 71.452 739.868 71.452C736.86 71.452 734.364 73.724 734.364 77.628C734.364 81.58 736.78 83.724 739.772 83.724ZM749.008 83.724C751.248 83.724 753.296 81.996 753.296 79.036C753.296 76.06 751.248 74.332 749.008 74.332C746.752 74.332 744.704 76.06 744.704 79.036C744.704 81.996 746.752 83.724 749.008 83.724ZM749.008 81.82C747.776 81.82 747.104 80.716 747.104 79.036C747.104 77.34 747.776 76.252 749.008 76.252C750.224 76.252 750.896 77.34 750.896 79.036C750.896 80.716 750.224 81.82 749.008 81.82ZM757.952 83.724C759.168 83.724 760.016 83.132 760.8 82.22H760.848L761.024 83.5H762.944V74.556H760.608V80.588C760 81.388 759.52 81.708 758.784 81.708C757.904 81.708 757.52 81.228 757.52 79.852V74.556H755.168V80.14C755.168 82.396 756.016 83.724 757.952 83.724ZM765.467 83.5H767.819V77.34C768.475 76.7 768.939 76.348 769.675 76.348C770.539 76.348 770.939 76.812 770.939 78.22V83.5H773.291V77.916C773.291 75.676 772.443 74.332 770.523 74.332C769.307 74.332 768.379 74.972 767.611 75.74H767.563L767.371 74.556H765.467V83.5ZM778.981 83.724C779.781 83.724 780.405 83.548 780.885 83.388L780.501 81.676C780.245 81.772 779.909 81.884 779.605 81.884C778.821 81.884 778.389 81.404 778.389 80.38V76.396H780.613V74.556H778.389V72.124H776.437L776.181 74.556L774.789 74.652V76.396H776.037V80.38C776.037 82.38 776.853 83.724 778.981 83.724ZM782.452 83.5H784.804V78.172C785.299 76.876 786.148 76.396 786.836 76.396C787.22 76.396 787.46 76.46 787.78 76.54L788.18 74.524C787.908 74.396 787.62 74.332 787.14 74.332C786.212 74.332 785.236 74.956 784.596 76.14H784.548L784.356 74.556H782.452V83.5ZM790.345 87.1C792.361 87.1 793.321 85.884 794.105 83.788L797.289 74.556H795.033L793.785 78.7C793.577 79.548 793.353 80.396 793.161 81.244H793.081C792.809 80.38 792.585 79.516 792.312 78.7L790.905 74.556H788.521L792.009 83.34L791.865 83.868C791.593 84.668 791.081 85.244 790.185 85.244C789.961 85.244 789.721 85.164 789.561 85.116L789.129 86.924C789.465 87.036 789.833 87.1 790.345 87.1Z" fill="white"/>
<rect x="703" y="51" width="125" height="52" stroke="#B3B3B3"/>
<rect x="704" y="203" width="124" height="50" fill="white"/>
<path d="M746.776 234.724C749.064 234.724 750.008 233.092 750.008 231.06V222.772H748.52V230.932C748.52 232.708 747.912 233.412 746.632 233.412C745.8 233.412 745.128 233.044 744.616 232.1L743.544 232.852C744.248 234.084 745.288 234.724 746.776 234.724ZM755.035 234.724C756.107 234.724 757.083 234.164 757.899 233.476H757.963L758.091 234.5H759.291V229.172C759.291 227.012 758.395 225.604 756.266 225.604C754.875 225.604 753.659 226.212 752.859 226.724L753.435 227.748C754.107 227.284 755.019 226.804 756.043 226.804C757.467 226.804 757.819 227.876 757.819 228.996C754.123 229.412 752.491 230.356 752.491 232.244C752.491 233.812 753.579 234.724 755.035 234.724ZM755.435 233.54C754.587 233.54 753.914 233.14 753.914 232.148C753.914 231.028 754.891 230.308 757.819 229.972V232.388C756.987 233.14 756.283 233.54 755.435 233.54ZM762.05 238.164H763.506V235.236L763.474 233.716C764.258 234.356 765.074 234.724 765.858 234.724C767.858 234.724 769.634 232.996 769.634 230.036C769.634 227.348 768.434 225.604 766.178 225.604C765.17 225.604 764.21 226.164 763.426 226.82H763.378L763.234 225.812H762.05V238.164ZM765.634 233.492C765.058 233.492 764.29 233.252 763.506 232.596V228.02C764.354 227.236 765.09 226.82 765.826 226.82C767.474 226.82 768.13 228.116 768.13 230.052C768.13 232.196 767.058 233.492 765.634 233.492ZM773.675 234.724C774.747 234.724 775.723 234.164 776.539 233.476H776.603L776.731 234.5H777.931V229.172C777.931 227.012 777.035 225.604 774.907 225.604C773.515 225.604 772.299 226.212 771.499 226.724L772.075 227.748C772.747 227.284 773.659 226.804 774.683 226.804C776.107 226.804 776.459 227.876 776.459 228.996C772.763 229.412 771.131 230.356 771.131 232.244C771.131 233.812 772.219 234.724 773.675 234.724ZM774.075 233.54C773.227 233.54 772.555 233.14 772.555 232.148C772.555 231.028 773.531 230.308 776.459 229.972V232.388C775.627 233.14 774.923 233.54 774.075 233.54ZM780.691 234.5H782.147V228.196C783.011 227.332 783.635 226.868 784.515 226.868C785.667 226.868 786.163 227.556 786.163 229.188V234.5H787.635V228.996C787.635 226.788 786.803 225.604 784.979 225.604C783.779 225.604 782.883 226.26 782.067 227.076H782.019L781.875 225.812H780.691V234.5Z" fill="black"/>
<rect x="704" y="203" width="124" height="50" stroke="#B3B3B3"/>
<rect x="582" y="51" width="123" height="52" fill="#1A69C6"/>
<path d="M633.772 83.724C635.308 83.724 636.572 83.132 637.548 81.996L636.3 80.508C635.676 81.196 634.876 81.676 633.868 81.676C631.98 81.676 630.78 80.14 630.78 77.548C630.78 75.02 632.124 73.484 633.9 73.484C634.812 73.484 635.484 73.884 636.092 74.476L637.34 72.956C636.572 72.156 635.372 71.452 633.868 71.452C630.86 71.452 628.364 73.724 628.364 77.628C628.364 81.58 630.78 83.724 633.772 83.724ZM639.264 83.5H641.616V74.556H639.264V83.5ZM640.432 73.1C641.248 73.1 641.808 72.588 641.808 71.804C641.808 71.036 641.248 70.54 640.432 70.54C639.616 70.54 639.072 71.036 639.072 71.804C639.072 72.588 639.616 73.1 640.432 73.1ZM647.387 83.724C648.187 83.724 648.811 83.548 649.291 83.388L648.907 81.676C648.651 81.772 648.315 81.884 648.011 81.884C647.227 81.884 646.795 81.404 646.795 80.38V76.396H649.019V74.556H646.795V72.124H644.843L644.587 74.556L643.195 74.652V76.396H644.443V80.38C644.443 82.38 645.259 83.724 647.387 83.724ZM651.626 87.1C653.642 87.1 654.602 85.884 655.386 83.788L658.57 74.556H656.314L655.066 78.7C654.858 79.548 654.634 80.396 654.442 81.244H654.362C654.09 80.38 653.866 79.516 653.594 78.7L652.186 74.556H649.802L653.29 83.34L653.146 83.868C652.874 84.668 652.362 85.244 651.466 85.244C651.242 85.244 651.002 85.164 650.842 85.116L650.41 86.924C650.746 87.036 651.114 87.1 651.626 87.1Z" fill="white"/>
<rect x="582" y="51" width="123" height="52" stroke="#B3B3B3"/>
<rect x="582" y="103" width="123" height="50" fill="white"/>
<path d="M618.032 134.5H619.536V124.02H623.072V122.772H614.496V124.02H618.032V134.5ZM627.192 134.724C629.32 134.724 631.208 133.044 631.208 130.18C631.208 127.268 629.32 125.604 627.192 125.604C625.048 125.604 623.16 127.268 623.16 130.18C623.16 133.044 625.048 134.724 627.192 134.724ZM627.192 133.508C625.672 133.508 624.664 132.164 624.664 130.18C624.664 128.164 625.672 126.82 627.192 126.82C628.696 126.82 629.704 128.164 629.704 130.18C629.704 132.164 628.696 133.508 627.192 133.508ZM633.519 134.5H634.975V128.932C635.551 127.444 636.447 126.916 637.167 126.916C637.519 126.916 637.711 126.964 638.015 127.06L638.287 125.78C637.999 125.652 637.743 125.604 637.359 125.604C636.383 125.604 635.487 126.292 634.895 127.396H634.847L634.703 125.812H633.519V134.5ZM642.879 134.724C645.007 134.724 646.895 133.044 646.895 130.18C646.895 127.268 645.007 125.604 642.879 125.604C640.735 125.604 638.847 127.268 638.847 130.18C638.847 133.044 640.735 134.724 642.879 134.724ZM642.879 133.508C641.359 133.508 640.351 132.164 640.351 130.18C640.351 128.164 641.359 126.82 642.879 126.82C644.383 126.82 645.391 128.164 645.391 130.18C645.391 132.164 644.383 133.508 642.879 133.508ZM649.206 134.5H650.662V128.196C651.526 127.332 652.15 126.868 653.03 126.868C654.182 126.868 654.678 127.556 654.678 129.188V134.5H656.15V128.996C656.15 126.788 655.318 125.604 653.494 125.604C652.294 125.604 651.398 126.26 650.582 127.076H650.534L650.39 125.812H649.206V134.5ZM661.692 134.724C662.236 134.724 662.812 134.564 663.292 134.388L663.004 133.3C662.732 133.412 662.332 133.54 662.028 133.54C661.02 133.54 660.684 132.916 660.684 131.86V126.996H663.036V125.812H660.684V123.364H659.452L659.292 125.812L657.932 125.908V126.996H659.228V131.828C659.228 133.556 659.836 134.724 661.692 134.724ZM668.098 134.724C670.226 134.724 672.114 133.044 672.114 130.18C672.114 127.268 670.226 125.604 668.098 125.604C665.954 125.604 664.066 127.268 664.066 130.18C664.066 133.044 665.954 134.724 668.098 134.724ZM668.098 133.508C666.578 133.508 665.57 132.164 665.57 130.18C665.57 128.164 666.578 126.82 668.098 126.82C669.602 126.82 670.61 128.164 670.61 130.18C670.61 132.164 669.602 133.508 668.098 133.508Z" fill="black"/>
<rect x="582" y="103" width="123" height="50" stroke="#B3B3B3"/>
<rect x="582" y="153" width="123" height="50" fill="white"/>
<path d="M607.744 184.5H609.456L613.2 172.772H611.68L609.808 179.124C609.392 180.516 609.104 181.62 608.672 183.012H608.592C608.16 181.62 607.872 180.516 607.456 179.124L605.568 172.772H604L607.744 184.5ZM616.253 184.724C617.325 184.724 618.301 184.164 619.117 183.476H619.181L619.309 184.5H620.509V179.172C620.509 177.012 619.613 175.604 617.485 175.604C616.093 175.604 614.877 176.212 614.077 176.724L614.653 177.748C615.325 177.284 616.237 176.804 617.261 176.804C618.685 176.804 619.037 177.876 619.037 178.996C615.341 179.412 613.709 180.356 613.709 182.244C613.709 183.812 614.797 184.724 616.253 184.724ZM616.653 183.54C615.805 183.54 615.133 183.14 615.133 182.148C615.133 181.028 616.109 180.308 619.037 179.972V182.388C618.205 183.14 617.501 183.54 616.653 183.54ZM623.269 184.5H624.725V178.196C625.589 177.332 626.213 176.868 627.093 176.868C628.245 176.868 628.741 177.556 628.741 179.188V184.5H630.213V178.996C630.213 176.788 629.381 175.604 627.557 175.604C626.357 175.604 625.461 176.26 624.645 177.076H624.597L624.453 175.812H623.269V184.5ZM636.443 184.724C637.483 184.724 638.491 184.308 639.259 183.62L638.635 182.644C638.091 183.124 637.371 183.508 636.587 183.508C634.987 183.508 633.883 182.164 633.883 180.18C633.883 178.164 635.035 176.82 636.635 176.82C637.307 176.82 637.851 177.124 638.363 177.588L639.099 176.628C638.491 176.068 637.691 175.604 636.555 175.604C634.331 175.604 632.379 177.268 632.379 180.18C632.379 183.044 634.139 184.724 636.443 184.724ZM644.145 184.724C646.273 184.724 648.161 183.044 648.161 180.18C648.161 177.268 646.273 175.604 644.145 175.604C642.001 175.604 640.113 177.268 640.113 180.18C640.113 183.044 642.001 184.724 644.145 184.724ZM644.145 183.508C642.625 183.508 641.617 182.164 641.617 180.18C641.617 178.164 642.625 176.82 644.145 176.82C645.649 176.82 646.657 178.164 646.657 180.18C646.657 182.164 645.649 183.508 644.145 183.508ZM653 184.724C654.2 184.724 655.064 184.084 655.88 183.14H655.912L656.04 184.5H657.24V175.812H655.784V181.988C654.968 183.012 654.328 183.444 653.448 183.444C652.296 183.444 651.8 182.756 651.8 181.14V175.812H650.344V181.316C650.344 183.54 651.176 184.724 653 184.724ZM662.063 184.5H663.759L666.831 175.812H665.407L663.743 180.772C663.487 181.62 663.215 182.5 662.943 183.316H662.879C662.607 182.5 662.335 181.62 662.079 180.772L660.431 175.812H658.927L662.063 184.5ZM671.929 184.724C673.113 184.724 674.025 184.324 674.793 183.828L674.265 182.852C673.625 183.284 672.937 183.556 672.105 183.556C670.441 183.556 669.321 182.356 669.209 180.516H675.065C675.113 180.292 675.129 179.988 675.129 179.684C675.129 177.188 673.881 175.604 671.673 175.604C669.673 175.604 667.769 177.348 667.769 180.18C667.769 183.028 669.609 184.724 671.929 184.724ZM669.193 179.46C669.385 177.748 670.473 176.772 671.689 176.772C673.065 176.772 673.849 177.716 673.849 179.46H669.193ZM677.285 184.5H678.741V178.932C679.317 177.444 680.213 176.916 680.933 176.916C681.285 176.916 681.477 176.964 681.781 177.06L682.053 175.78C681.765 175.652 681.509 175.604 681.125 175.604C680.149 175.604 679.253 176.292 678.661 177.396H678.613L678.469 175.812H677.285V184.5Z" fill="black"/>
<rect x="582" y="153" width="123" height="50" stroke="#B3B3B3"/>
<rect x="582" y="203" width="123" height="50" fill="white"/>
<path d="M625.032 234.5H626.536V224.02H630.072V222.772H621.496V224.02H625.032V234.5ZM634.192 234.724C636.32 234.724 638.208 233.044 638.208 230.18C638.208 227.268 636.32 225.604 634.192 225.604C632.048 225.604 630.16 227.268 630.16 230.18C630.16 233.044 632.048 234.724 634.192 234.724ZM634.192 233.508C632.672 233.508 631.664 232.164 631.664 230.18C631.664 228.164 632.672 226.82 634.192 226.82C635.696 226.82 636.704 228.164 636.704 230.18C636.704 232.164 635.696 233.508 634.192 233.508ZM640.519 234.5H641.959V232.212L643.575 230.308L646.119 234.5H647.703L644.439 229.316L647.335 225.812H645.703L642.007 230.404H641.959V221.78H640.519V234.5ZM649.475 238.26C651.219 238.26 652.115 236.948 652.723 235.236L656.003 225.812H654.579L653.011 230.644C652.787 231.428 652.531 232.292 652.291 233.092H652.211C651.923 232.292 651.635 231.412 651.363 230.644L649.587 225.812H648.083L651.571 234.516L651.379 235.172C651.011 236.244 650.387 237.044 649.411 237.044C649.171 237.044 648.915 236.98 648.755 236.916L648.467 238.084C648.739 238.196 649.075 238.26 649.475 238.26ZM660.957 234.724C663.085 234.724 664.973 233.044 664.973 230.18C664.973 227.268 663.085 225.604 660.957 225.604C658.813 225.604 656.925 227.268 656.925 230.18C656.925 233.044 658.813 234.724 660.957 234.724ZM660.957 233.508C659.437 233.508 658.429 232.164 658.429 230.18C658.429 228.164 659.437 226.82 660.957 226.82C662.461 226.82 663.469 228.164 663.469 230.18C663.469 232.164 662.461 233.508 660.957 233.508Z" fill="black"/>
<rect x="582" y="203" width="123" height="50" stroke="#B3B3B3"/>
<rect x="1" y="52" width="123" height="52" fill="#1A69C6"/>
<path d="M22.272 84.724C23.808 84.724 25.072 84.132 26.048 82.996L24.8 81.508C24.176 82.196 23.376 82.676 22.368 82.676C20.48 82.676 19.28 81.14 19.28 78.548C19.28 76.02 20.624 74.484 22.4 74.484C23.312 74.484 23.984 74.884 24.592 75.476L25.84 73.956C25.072 73.156 23.872 72.452 22.368 72.452C19.36 72.452 16.864 74.724 16.864 78.628C16.864 82.58 19.28 84.724 22.272 84.724ZM30.1704 84.724C31.3864 84.724 32.2344 84.132 33.0184 83.22H33.0664L33.2424 84.5H35.1624V75.556H32.8264V81.588C32.2184 82.388 31.7384 82.708 31.0024 82.708C30.1224 82.708 29.7384 82.228 29.7384 80.852V75.556H27.3864V81.14C27.3864 83.396 28.2344 84.724 30.1704 84.724ZM40.2459 84.724C42.5659 84.724 43.7979 83.476 43.7979 81.892C43.7979 80.244 42.5019 79.636 41.3179 79.188C40.3579 78.852 39.5419 78.596 39.5419 77.956C39.5419 77.428 39.9099 77.076 40.7259 77.076C41.3819 77.076 42.0219 77.396 42.6459 77.844L43.7179 76.436C42.9819 75.86 41.9579 75.332 40.6619 75.332C38.6139 75.332 37.3339 76.468 37.3339 78.052C37.3339 79.572 38.5979 80.244 39.7339 80.692C40.6619 81.044 41.6059 81.364 41.6059 82.02C41.6059 82.58 41.1899 82.98 40.2939 82.98C39.4619 82.98 38.7099 82.612 37.8939 81.988L36.8379 83.476C37.7179 84.212 39.0459 84.724 40.2459 84.724ZM48.4186 84.724C49.2186 84.724 49.8426 84.548 50.3226 84.388L49.9386 82.676C49.6826 82.772 49.3466 82.884 49.0426 82.884C48.2586 82.884 47.8266 82.404 47.8266 81.38V77.396H50.0506V75.556H47.8266V73.124H45.8746L45.6186 75.556L44.2266 75.652V77.396H45.4746V81.38C45.4746 83.38 46.2906 84.724 48.4186 84.724ZM55.2424 84.724C57.4824 84.724 59.5304 82.996 59.5304 80.036C59.5304 77.06 57.4824 75.332 55.2424 75.332C52.9864 75.332 50.9384 77.06 50.9384 80.036C50.9384 82.996 52.9864 84.724 55.2424 84.724ZM55.2424 82.82C54.0104 82.82 53.3384 81.716 53.3384 80.036C53.3384 78.34 54.0104 77.252 55.2424 77.252C56.4584 77.252 57.1304 78.34 57.1304 80.036C57.1304 81.716 56.4584 82.82 55.2424 82.82ZM61.514 84.5H63.866V78.34C64.474 77.668 65.066 77.348 65.562 77.348C66.426 77.348 66.826 77.812 66.826 79.22V84.5H69.178V78.34C69.818 77.668 70.378 77.348 70.89 77.348C71.754 77.348 72.138 77.812 72.138 79.22V84.5H74.49V78.916C74.49 76.676 73.626 75.332 71.722 75.332C70.554 75.332 69.69 76.036 68.858 76.884C68.442 75.892 67.69 75.332 66.394 75.332C65.242 75.332 64.41 75.972 63.658 76.74H63.61L63.418 75.556H61.514V84.5ZM80.8399 84.724C81.9439 84.724 83.0639 84.356 83.9439 83.748L83.1599 82.292C82.5039 82.692 81.8639 82.916 81.1439 82.916C79.8159 82.916 78.8559 82.164 78.6479 80.692H84.1839C84.2319 80.468 84.2799 80.052 84.2799 79.604C84.2799 77.124 83.0159 75.332 80.5359 75.332C78.4239 75.332 76.3759 77.124 76.3759 80.036C76.3759 82.996 78.3279 84.724 80.8399 84.724ZM78.6159 79.124C78.8079 77.812 79.6399 77.14 80.5839 77.14C81.7359 77.14 82.2799 77.908 82.2799 79.124H78.6159ZM86.2328 84.5H88.5848V79.172C89.0807 77.876 89.9288 77.396 90.6168 77.396C91.0008 77.396 91.2408 77.46 91.5608 77.54L91.9608 75.524C91.6888 75.396 91.4008 75.332 90.9208 75.332C89.9928 75.332 89.0168 75.956 88.3768 77.14H88.3288L88.1368 75.556H86.2328V84.5ZM93.4091 84.5H95.7771V72.66H93.4091V84.5ZM98.6904 84.5H102.066C105.554 84.5 107.778 82.516 107.778 78.532C107.778 74.532 105.554 72.66 101.938 72.66H98.6904V84.5ZM101.058 82.596V74.548H101.778C104.002 74.548 105.362 75.652 105.362 78.532C105.362 81.412 104.002 82.596 101.778 82.596H101.058Z" fill="white"/>
<rect x="1" y="52" width="123" height="52" stroke="#B3B3B3"/>
<rect x="1" y="104" width="123" height="49" fill="white"/>
<path d="M41.408 135H47.84V133.784H45.472V123.272H44.352C43.728 123.656 42.976 123.928 41.92 124.104V125.048H44.016V133.784H41.408V135ZM53.323 135.224C55.531 135.224 56.955 133.192 56.955 129.096C56.955 125.032 55.531 123.064 53.323 123.064C51.083 123.064 49.659 125.032 49.659 129.096C49.659 133.192 51.083 135.224 53.323 135.224ZM53.323 134.04C51.979 134.04 51.067 132.552 51.067 129.096C51.067 125.688 51.979 124.232 53.323 124.232C54.651 124.232 55.547 125.688 55.547 129.096C55.547 132.552 54.651 134.04 53.323 134.04ZM62.198 135.224C64.406 135.224 65.83 133.192 65.83 129.096C65.83 125.032 64.406 123.064 62.198 123.064C59.958 123.064 58.534 125.032 58.534 129.096C58.534 133.192 59.958 135.224 62.198 135.224ZM62.198 134.04C60.854 134.04 59.942 132.552 59.942 129.096C59.942 125.688 60.854 124.232 62.198 124.232C63.526 124.232 64.422 125.688 64.422 129.096C64.422 132.552 63.526 134.04 62.198 134.04ZM71.073 135.224C73.281 135.224 74.705 133.192 74.705 129.096C74.705 125.032 73.281 123.064 71.073 123.064C68.833 123.064 67.409 125.032 67.409 129.096C67.409 133.192 68.833 135.224 71.073 135.224ZM71.073 134.04C69.729 134.04 68.817 132.552 68.817 129.096C68.817 125.688 69.729 124.232 71.073 124.232C72.401 124.232 73.297 125.688 73.297 129.096C73.297 132.552 72.401 134.04 71.073 134.04ZM76.908 135H83.34V133.784H80.972V123.272H79.852C79.228 123.656 78.476 123.928 77.42 124.104V125.048H79.516V133.784H76.908V135Z" fill="black"/>
<rect x="1" y="104" width="123" height="49" stroke="#B3B3B3"/>
<rect x="1" y="153" width="123" height="50" fill="white"/>
<path d="M41.408 184.5H47.84V183.284H45.472V172.772H44.352C43.728 173.156 42.976 173.428 41.92 173.604V174.548H44.016V183.284H41.408V184.5ZM53.323 184.724C55.531 184.724 56.955 182.692 56.955 178.596C56.955 174.532 55.531 172.564 53.323 172.564C51.083 172.564 49.659 174.532 49.659 178.596C49.659 182.692 51.083 184.724 53.323 184.724ZM53.323 183.54C51.979 183.54 51.067 182.052 51.067 178.596C51.067 175.188 51.979 173.732 53.323 173.732C54.651 173.732 55.547 175.188 55.547 178.596C55.547 182.052 54.651 183.54 53.323 183.54ZM62.198 184.724C64.406 184.724 65.83 182.692 65.83 178.596C65.83 174.532 64.406 172.564 62.198 172.564C59.958 172.564 58.534 174.532 58.534 178.596C58.534 182.692 59.958 184.724 62.198 184.724ZM62.198 183.54C60.854 183.54 59.942 182.052 59.942 178.596C59.942 175.188 60.854 173.732 62.198 173.732C63.526 173.732 64.422 175.188 64.422 178.596C64.422 182.052 63.526 183.54 62.198 183.54ZM71.073 184.724C73.281 184.724 74.705 182.692 74.705 178.596C74.705 174.532 73.281 172.564 71.073 172.564C68.833 172.564 67.409 174.532 67.409 178.596C67.409 182.692 68.833 184.724 71.073 184.724ZM71.073 183.54C69.729 183.54 68.817 182.052 68.817 178.596C68.817 175.188 69.729 173.732 71.073 173.732C72.401 173.732 73.297 175.188 73.297 178.596C73.297 182.052 72.401 183.54 71.073 183.54ZM76.204 184.5H83.564V183.252H80.316C79.724 183.252 79.02 183.3 78.396 183.364C81.164 180.756 83.004 178.372 83.004 176.02C83.004 173.924 81.692 172.564 79.596 172.564C78.108 172.564 77.084 173.252 76.124 174.292L76.972 175.108C77.628 174.34 78.46 173.748 79.42 173.748C80.876 173.748 81.564 174.74 81.564 176.084C81.564 178.084 79.884 180.436 76.204 183.652V184.5Z" fill="black"/>
<rect x="1" y="153" width="123" height="50" stroke="#B3B3B3"/>
<rect x="1" y="203" width="123" height="50" fill="white"/>
<path d="M41.408 234.5H47.84V233.284H45.472V222.772H44.352C43.728 223.156 42.976 223.428 41.92 223.604V224.548H44.016V233.284H41.408V234.5ZM53.323 234.724C55.531 234.724 56.955 232.692 56.955 228.596C56.955 224.532 55.531 222.564 53.323 222.564C51.083 222.564 49.659 224.532 49.659 228.596C49.659 232.692 51.083 234.724 53.323 234.724ZM53.323 233.54C51.979 233.54 51.067 232.052 51.067 228.596C51.067 225.188 51.979 223.732 53.323 223.732C54.651 223.732 55.547 225.188 55.547 228.596C55.547 232.052 54.651 233.54 53.323 233.54ZM62.198 234.724C64.406 234.724 65.83 232.692 65.83 228.596C65.83 224.532 64.406 222.564 62.198 222.564C59.958 222.564 58.534 224.532 58.534 228.596C58.534 232.692 59.958 234.724 62.198 234.724ZM62.198 233.54C60.854 233.54 59.942 232.052 59.942 228.596C59.942 225.188 60.854 223.732 62.198 223.732C63.526 223.732 64.422 225.188 64.422 228.596C64.422 232.052 63.526 233.54 62.198 233.54ZM71.073 234.724C73.281 234.724 74.705 232.692 74.705 228.596C74.705 224.532 73.281 222.564 71.073 222.564C68.833 222.564 67.409 224.532 67.409 228.596C67.409 232.692 68.833 234.724 71.073 234.724ZM71.073 233.54C69.729 233.54 68.817 232.052 68.817 228.596C68.817 225.188 69.729 223.732 71.073 223.732C72.401 223.732 73.297 225.188 73.297 228.596C73.297 232.052 72.401 233.54 71.073 233.54ZM79.708 234.724C81.804 234.724 83.484 233.46 83.484 231.38C83.484 229.764 82.364 228.724 80.988 228.388V228.324C82.236 227.876 83.068 226.932 83.068 225.508C83.068 223.636 81.628 222.564 79.66 222.564C78.316 222.564 77.276 223.156 76.396 223.956L77.18 224.9C77.836 224.228 78.668 223.748 79.612 223.748C80.828 223.748 81.58 224.484 81.58 225.604C81.58 226.884 80.764 227.844 78.348 227.844V228.98C81.052 228.98 81.996 229.908 81.996 231.316C81.996 232.66 81.004 233.508 79.612 233.508C78.268 233.508 77.388 232.868 76.7 232.148L75.964 233.108C76.732 233.956 77.868 234.724 79.708 234.724Z" fill="black"/>
<rect x="1" y="203" width="123" height="50" stroke="#B3B3B3"/>
<rect x="124" y="1" width="246" height="50" fill="#1A69C6"/>
<path d="M209.956 32.5H214.18C216.772 32.5 218.756 31.396 218.756 29.012C218.756 27.428 217.812 26.516 216.548 26.212V26.148C217.556 25.78 218.148 24.676 218.148 23.588C218.148 21.38 216.292 20.66 213.86 20.66H209.956V32.5ZM212.324 25.476V22.484H213.732C215.156 22.484 215.844 22.884 215.844 23.924C215.844 24.884 215.204 25.476 213.7 25.476H212.324ZM212.324 30.676V27.236H213.972C215.604 27.236 216.452 27.732 216.452 28.884C216.452 30.1 215.572 30.676 213.972 30.676H212.324ZM222.847 32.724C223.871 32.724 224.767 32.228 225.551 31.556H225.615L225.791 32.5H227.711V27.284C227.711 24.676 226.543 23.332 224.271 23.332C222.847 23.332 221.583 23.86 220.527 24.5L221.375 26.068C222.191 25.572 223.007 25.22 223.839 25.22C224.943 25.22 225.311 25.876 225.359 26.756C221.759 27.156 220.207 28.164 220.207 30.068C220.207 31.604 221.247 32.724 222.847 32.724ZM223.615 30.884C222.927 30.884 222.447 30.58 222.447 29.892C222.447 29.076 223.167 28.484 225.359 28.212V30.02C224.783 30.58 224.287 30.884 223.615 30.884ZM232.668 32.724C234.988 32.724 236.22 31.476 236.22 29.892C236.22 28.244 234.924 27.636 233.74 27.188C232.78 26.852 231.964 26.596 231.964 25.956C231.964 25.428 232.332 25.076 233.148 25.076C233.804 25.076 234.444 25.396 235.068 25.844L236.14 24.436C235.404 23.86 234.38 23.332 233.084 23.332C231.036 23.332 229.756 24.468 229.756 26.052C229.756 27.572 231.02 28.244 232.156 28.692C233.084 29.044 234.028 29.364 234.028 30.02C234.028 30.58 233.612 30.98 232.716 30.98C231.884 30.98 231.132 30.612 230.316 29.988L229.26 31.476C230.14 32.212 231.468 32.724 232.668 32.724ZM238.03 32.5H240.382V23.556H238.03V32.5ZM239.198 22.1C240.014 22.1 240.574 21.588 240.574 20.804C240.574 20.036 240.014 19.54 239.198 19.54C238.382 19.54 237.838 20.036 237.838 20.804C237.838 21.588 238.382 22.1 239.198 22.1ZM246.681 32.724C247.673 32.724 248.777 32.388 249.625 31.652L248.697 30.1C248.201 30.5 247.593 30.82 246.937 30.82C245.657 30.82 244.729 29.716 244.729 28.036C244.729 26.34 245.641 25.252 247.033 25.252C247.513 25.252 247.945 25.444 248.393 25.828L249.497 24.324C248.841 23.748 248.009 23.332 246.889 23.332C244.457 23.332 242.329 25.06 242.329 28.036C242.329 30.996 244.217 32.724 246.681 32.724ZM255.144 32.5H257.512V20.66H255.144V32.5ZM260.233 32.5H262.585V26.34C263.241 25.7 263.705 25.348 264.441 25.348C265.305 25.348 265.705 25.812 265.705 27.22V32.5H268.057V26.916C268.057 24.676 267.209 23.332 265.289 23.332C264.073 23.332 263.145 23.972 262.377 24.74H262.329L262.137 23.556H260.233V32.5ZM270.867 32.5H273.219V22.788C273.219 21.796 273.603 21.364 274.307 21.364C274.611 21.364 274.947 21.444 275.251 21.572L275.699 19.812C275.299 19.668 274.691 19.524 273.987 19.524C271.747 19.524 270.867 20.964 270.867 22.82V32.5ZM269.667 25.396H274.915V23.556H271.011L269.667 23.652V25.396ZM279.914 32.724C282.154 32.724 284.202 30.996 284.202 28.036C284.202 25.06 282.154 23.332 279.914 23.332C277.658 23.332 275.61 25.06 275.61 28.036C275.61 30.996 277.658 32.724 279.914 32.724ZM279.914 30.82C278.682 30.82 278.01 29.716 278.01 28.036C278.01 26.34 278.682 25.252 279.914 25.252C281.13 25.252 281.802 26.34 281.802 28.036C281.802 29.716 281.13 30.82 279.914 30.82Z" fill="white"/>
<rect x="124" y="1" width="246" height="50" stroke="#B3B3B3"/>
<rect x="124" y="103" width="123" height="50" fill="white"/>
<path d="M173.348 134.724C175.812 134.724 177.332 133.252 177.332 131.396C177.332 129.652 176.292 128.836 174.916 128.244L173.252 127.524C172.34 127.14 171.316 126.724 171.316 125.572C171.316 124.532 172.18 123.86 173.508 123.86C174.58 123.86 175.444 124.292 176.164 124.964L176.948 124.02C176.132 123.156 174.9 122.564 173.508 122.564C171.364 122.564 169.812 123.876 169.812 125.684C169.812 127.396 171.092 128.228 172.196 128.692L173.876 129.428C174.98 129.908 175.828 130.292 175.828 131.508C175.828 132.644 174.916 133.412 173.38 133.412C172.164 133.412 170.98 132.852 170.132 131.956L169.252 132.98C170.276 134.052 171.7 134.724 173.348 134.724ZM181.503 134.724C182.575 134.724 183.551 134.164 184.367 133.476H184.431L184.559 134.5H185.759V129.172C185.759 127.012 184.863 125.604 182.735 125.604C181.343 125.604 180.127 126.212 179.327 126.724L179.903 127.748C180.575 127.284 181.487 126.804 182.511 126.804C183.935 126.804 184.287 127.876 184.287 128.996C180.591 129.412 178.959 130.356 178.959 132.244C178.959 133.812 180.047 134.724 181.503 134.724ZM181.903 133.54C181.055 133.54 180.383 133.14 180.383 132.148C180.383 131.028 181.359 130.308 184.287 129.972V132.388C183.455 133.14 182.751 133.54 181.903 133.54ZM188.519 134.5H189.975V128.196C190.759 127.316 191.495 126.868 192.151 126.868C193.271 126.868 193.783 127.556 193.783 129.188V134.5H195.239V128.196C196.055 127.316 196.743 126.868 197.415 126.868C198.535 126.868 199.047 127.556 199.047 129.188V134.5H200.503V128.996C200.503 126.788 199.639 125.604 197.863 125.604C196.807 125.604 195.895 126.292 194.983 127.252C194.647 126.228 193.927 125.604 192.599 125.604C191.559 125.604 190.647 126.26 189.895 127.076H189.847L189.703 125.812H188.519V134.5Z" fill="black"/>
<rect x="124" y="103" width="123" height="50" stroke="#B3B3B3"/>
<rect x="124" y="153" width="123" height="50" fill="white"/>
<path d="M170.048 184.5H171.552L173.616 177.94C174.048 176.628 174.416 175.348 174.8 173.988H174.864C175.248 175.348 175.616 176.628 176.032 177.94L178.096 184.5H179.648L175.68 172.772H174.016L170.048 184.5ZM172.128 180.916H177.536V179.748H172.128V180.916ZM182.742 184.724C183.142 184.724 183.366 184.66 183.574 184.596L183.382 183.476C183.206 183.508 183.142 183.508 183.078 183.508C182.854 183.508 182.662 183.332 182.662 182.868V171.78H181.206V182.772C181.206 184.02 181.638 184.724 182.742 184.724ZM189.257 184.724C190.441 184.724 191.353 184.324 192.121 183.828L191.593 182.852C190.953 183.284 190.265 183.556 189.433 183.556C187.769 183.556 186.649 182.356 186.537 180.516H192.393C192.441 180.292 192.457 179.988 192.457 179.684C192.457 177.188 191.209 175.604 189.001 175.604C187.001 175.604 185.097 177.348 185.097 180.18C185.097 183.028 186.937 184.724 189.257 184.724ZM186.521 179.46C186.713 177.748 187.801 176.772 189.017 176.772C190.393 176.772 191.177 177.716 191.177 179.46H186.521ZM193.209 184.5H194.745L195.913 182.468C196.201 181.94 196.489 181.412 196.793 180.916H196.873C197.193 181.412 197.513 181.956 197.817 182.468L199.097 184.5H200.681L197.833 180.116L200.457 175.812H198.937L197.881 177.716C197.609 178.212 197.353 178.692 197.097 179.188H197.033C196.729 178.692 196.441 178.212 196.169 177.716L195.001 175.812H193.433L196.057 179.972L193.209 184.5Z" fill="black"/>
<rect x="124" y="153" width="123" height="50" stroke="#B3B3B3"/>
<rect x="124" y="203" width="123" height="50" fill="white"/>
<path d="M173.032 234.5H174.536V224.02H178.072V222.772H169.496V224.02H173.032V234.5ZM180.706 234.724C181.778 234.724 182.754 234.164 183.57 233.476H183.634L183.762 234.5H184.962V229.172C184.962 227.012 184.066 225.604 181.938 225.604C180.546 225.604 179.33 226.212 178.53 226.724L179.106 227.748C179.778 227.284 180.69 226.804 181.714 226.804C183.138 226.804 183.49 227.876 183.49 228.996C179.794 229.412 178.162 230.356 178.162 232.244C178.162 233.812 179.25 234.724 180.706 234.724ZM181.106 233.54C180.258 233.54 179.586 233.14 179.586 232.148C179.586 231.028 180.562 230.308 183.49 229.972V232.388C182.658 233.14 181.954 233.54 181.106 233.54ZM187.722 234.5H189.178V228.932C189.754 227.444 190.65 226.916 191.37 226.916C191.722 226.916 191.914 226.964 192.218 227.06L192.49 225.78C192.202 225.652 191.946 225.604 191.562 225.604C190.586 225.604 189.69 226.292 189.098 227.396H189.05L188.906 225.812H187.722V234.5ZM197.082 234.724C199.21 234.724 201.098 233.044 201.098 230.18C201.098 227.268 199.21 225.604 197.082 225.604C194.938 225.604 193.05 227.268 193.05 230.18C193.05 233.044 194.938 234.724 197.082 234.724ZM197.082 233.508C195.562 233.508 194.554 232.164 194.554 230.18C194.554 228.164 195.562 226.82 197.082 226.82C198.586 226.82 199.594 228.164 199.594 230.18C199.594 232.164 198.586 233.508 197.082 233.508Z" fill="black"/>
<rect x="124" y="203" width="123" height="50" stroke="#B3B3B3"/>
<rect x="247" y="51" width="123" height="52" fill="#1A69C6"/>
<path d="M293.936 83.5H296.336L298.032 77.34C298.384 76.108 298.72 74.748 299.04 73.468H299.104C299.44 74.732 299.776 76.108 300.128 77.34L301.824 83.5H304.304L300.512 71.66H297.728L293.936 83.5ZM296.288 80.46H301.92V78.636H296.288V80.46ZM308.65 87.388C311.642 87.388 313.546 86.028 313.546 84.22C313.546 82.636 312.362 81.98 310.202 81.98H308.666C307.626 81.98 307.258 81.708 307.258 81.244C307.258 80.876 307.402 80.684 307.642 80.46C308.042 80.604 308.442 80.668 308.794 80.668C310.73 80.668 312.266 79.66 312.266 77.628C312.266 77.084 312.09 76.588 311.85 76.284H313.386V74.556H310.154C309.786 74.412 309.306 74.332 308.794 74.332C306.906 74.332 305.178 75.452 305.178 77.564C305.178 78.62 305.77 79.468 306.394 79.916V79.98C305.834 80.364 305.386 80.972 305.386 81.644C305.386 82.38 305.738 82.86 306.202 83.164V83.244C305.37 83.692 304.922 84.348 304.922 85.1C304.922 86.668 306.554 87.388 308.65 87.388ZM308.794 79.228C308.01 79.228 307.386 78.62 307.386 77.564C307.386 76.508 308.01 75.932 308.794 75.932C309.594 75.932 310.202 76.508 310.202 77.564C310.202 78.62 309.578 79.228 308.794 79.228ZM309.018 85.9C307.706 85.9 306.874 85.484 306.874 84.732C306.874 84.364 307.05 84.012 307.466 83.676C307.786 83.772 308.154 83.804 308.698 83.804H309.786C310.746 83.804 311.274 83.98 311.274 84.62C311.274 85.308 310.362 85.9 309.018 85.9ZM318.574 83.724C319.678 83.724 320.798 83.356 321.678 82.748L320.894 81.292C320.238 81.692 319.598 81.916 318.878 81.916C317.55 81.916 316.59 81.164 316.382 79.692H321.918C321.966 79.468 322.014 79.052 322.014 78.604C322.014 76.124 320.75 74.332 318.27 74.332C316.158 74.332 314.11 76.124 314.11 79.036C314.11 81.996 316.062 83.724 318.574 83.724ZM316.35 78.124C316.542 76.812 317.374 76.14 318.318 76.14C319.47 76.14 320.014 76.908 320.014 78.124H316.35Z" fill="white"/>
<rect x="247" y="51" width="123" height="52" stroke="#B3B3B3"/>
<rect x="124" y="51" width="123" height="52" fill="#1A69C6"/>
<path d="M163.456 83.5H165.696V78.764C165.696 77.388 165.504 75.9 165.392 74.636H165.472L166.672 77.164L170.096 83.5H172.512V71.66H170.256V76.38C170.256 77.724 170.448 79.308 170.576 80.54H170.496L169.296 77.98L165.856 71.66H163.456V83.5ZM177.44 83.724C178.464 83.724 179.36 83.228 180.144 82.556H180.208L180.384 83.5H182.304V78.284C182.304 75.676 181.136 74.332 178.864 74.332C177.44 74.332 176.176 74.86 175.12 75.5L175.968 77.068C176.784 76.572 177.6 76.22 178.432 76.22C179.536 76.22 179.904 76.876 179.952 77.756C176.352 78.156 174.8 79.164 174.8 81.068C174.8 82.604 175.84 83.724 177.44 83.724ZM178.208 81.884C177.52 81.884 177.04 81.58 177.04 80.892C177.04 80.076 177.76 79.484 179.952 79.212V81.02C179.376 81.58 178.88 81.884 178.208 81.884ZM184.702 83.5H187.054V77.34C187.661 76.668 188.254 76.348 188.75 76.348C189.614 76.348 190.014 76.812 190.014 78.22V83.5H192.366V77.34C193.006 76.668 193.566 76.348 194.078 76.348C194.942 76.348 195.326 76.812 195.326 78.22V83.5H197.678V77.916C197.678 75.676 196.814 74.332 194.91 74.332C193.742 74.332 192.878 75.036 192.046 75.884C191.63 74.892 190.878 74.332 189.582 74.332C188.43 74.332 187.598 74.972 186.846 75.74H186.798L186.606 74.556H184.702V83.5ZM204.027 83.724C205.131 83.724 206.251 83.356 207.131 82.748L206.347 81.292C205.691 81.692 205.051 81.916 204.331 81.916C203.003 81.916 202.043 81.164 201.835 79.692H207.371C207.419 79.468 207.467 79.052 207.467 78.604C207.467 76.124 206.203 74.332 203.723 74.332C201.611 74.332 199.563 76.124 199.563 79.036C199.563 81.996 201.515 83.724 204.027 83.724ZM201.803 78.124C201.995 76.812 202.827 76.14 203.771 76.14C204.923 76.14 205.467 76.908 205.467 78.124H201.803Z" fill="white"/>
<rect x="124" y="51" width="123" height="52" stroke="#B3B3B3"/>
<rect x="247" y="103" width="123" height="50" fill="white"/>
<path d="M303.708 134.724C305.804 134.724 307.484 133.46 307.484 131.38C307.484 129.764 306.364 128.724 304.988 128.388V128.324C306.236 127.876 307.068 126.932 307.068 125.508C307.068 123.636 305.628 122.564 303.66 122.564C302.316 122.564 301.276 123.156 300.396 123.956L301.18 124.9C301.836 124.228 302.668 123.748 303.612 123.748C304.828 123.748 305.58 124.484 305.58 125.604C305.58 126.884 304.764 127.844 302.348 127.844V128.98C305.052 128.98 305.996 129.908 305.996 131.316C305.996 132.66 305.004 133.508 303.612 133.508C302.268 133.508 301.388 132.868 300.7 132.148L299.964 133.108C300.732 133.956 301.868 134.724 303.708 134.724ZM312.823 134.724C315.031 134.724 316.455 132.692 316.455 128.596C316.455 124.532 315.031 122.564 312.823 122.564C310.583 122.564 309.159 124.532 309.159 128.596C309.159 132.692 310.583 134.724 312.823 134.724ZM312.823 133.54C311.479 133.54 310.567 132.052 310.567 128.596C310.567 125.188 311.479 123.732 312.823 123.732C314.151 123.732 315.047 125.188 315.047 128.596C315.047 132.052 314.151 133.54 312.823 133.54Z" fill="black"/>
<rect x="247" y="103" width="123" height="50" stroke="#B3B3B3"/>
<rect x="247" y="153" width="123" height="50" fill="white"/>
<path d="M300.204 184.5H307.564V183.252H304.316C303.724 183.252 303.02 183.3 302.396 183.364C305.164 180.756 307.004 178.372 307.004 176.02C307.004 173.924 305.692 172.564 303.596 172.564C302.108 172.564 301.084 173.252 300.124 174.292L300.972 175.108C301.628 174.34 302.46 173.748 303.42 173.748C304.876 173.748 305.564 174.74 305.564 176.084C305.564 178.084 303.884 180.436 300.204 183.652V184.5ZM312.839 184.724C315.031 184.724 316.519 183.396 316.519 181.684C316.519 180.084 315.559 179.188 314.535 178.596V178.516C315.239 177.972 316.103 176.932 316.103 175.684C316.103 173.892 314.887 172.612 312.887 172.612C311.047 172.612 309.655 173.796 309.655 175.572C309.655 176.804 310.391 177.7 311.255 178.292V178.356C310.183 178.932 309.095 180.02 309.095 181.604C309.095 183.412 310.679 184.724 312.839 184.724ZM313.639 178.148C312.263 177.604 310.999 176.98 310.999 175.572C310.999 174.452 311.783 173.684 312.855 173.684C314.119 173.684 314.855 174.612 314.855 175.764C314.855 176.644 314.439 177.444 313.639 178.148ZM312.871 183.62C311.463 183.62 310.407 182.708 310.407 181.46C310.407 180.34 311.063 179.412 312.023 178.804C313.671 179.476 315.111 180.068 315.111 181.636C315.111 182.804 314.215 183.62 312.871 183.62Z" fill="black"/>
<rect x="247" y="153" width="123" height="50" stroke="#B3B3B3"/>
<rect x="247" y="203" width="123" height="50" fill="white"/>
<path d="M300.204 234.5H307.564V233.252H304.316C303.724 233.252 303.02 233.3 302.396 233.364C305.164 230.756 307.004 228.372 307.004 226.02C307.004 223.924 305.692 222.564 303.596 222.564C302.108 222.564 301.084 223.252 300.124 224.292L300.972 225.108C301.628 224.34 302.46 223.748 303.42 223.748C304.876 223.748 305.564 224.74 305.564 226.084C305.564 228.084 303.884 230.436 300.204 233.652V234.5ZM313.799 234.5H315.175V222.772H313.559L308.679 230.308V231.268H316.743V230.116H310.215L312.887 226.116C313.207 225.54 313.527 224.948 313.815 224.372H313.895C313.847 224.98 313.799 225.924 313.799 226.516V234.5Z" fill="black"/>
<rect x="247" y="203" width="123" height="50" stroke="#B3B3B3"/>
<rect x="459" y="52" width="123" height="52" fill="#1A69C6"/>
<path d="M480.272 84.724C481.808 84.724 483.072 84.132 484.048 82.996L482.8 81.508C482.176 82.196 481.376 82.676 480.368 82.676C478.48 82.676 477.28 81.14 477.28 78.548C477.28 76.02 478.624 74.484 480.4 74.484C481.312 74.484 481.984 74.884 482.592 75.476L483.84 73.956C483.072 73.156 481.872 72.452 480.368 72.452C477.36 72.452 474.864 74.724 474.864 78.628C474.864 82.58 477.28 84.724 480.272 84.724ZM488.17 84.724C489.386 84.724 490.234 84.132 491.018 83.22H491.066L491.242 84.5H493.162V75.556H490.826V81.588C490.218 82.388 489.738 82.708 489.002 82.708C488.122 82.708 487.738 82.228 487.738 80.852V75.556H485.386V81.14C485.386 83.396 486.234 84.724 488.17 84.724ZM498.246 84.724C500.566 84.724 501.798 83.476 501.798 81.892C501.798 80.244 500.502 79.636 499.318 79.188C498.358 78.852 497.542 78.596 497.542 77.956C497.542 77.428 497.91 77.076 498.726 77.076C499.382 77.076 500.022 77.396 500.646 77.844L501.718 76.436C500.982 75.86 499.958 75.332 498.662 75.332C496.614 75.332 495.334 76.468 495.334 78.052C495.334 79.572 496.598 80.244 497.734 80.692C498.662 81.044 499.606 81.364 499.606 82.02C499.606 82.58 499.19 82.98 498.294 82.98C497.462 82.98 496.71 82.612 495.894 81.988L494.838 83.476C495.718 84.212 497.046 84.724 498.246 84.724ZM506.419 84.724C507.219 84.724 507.843 84.548 508.323 84.388L507.939 82.676C507.683 82.772 507.347 82.884 507.043 82.884C506.259 82.884 505.827 82.404 505.827 81.38V77.396H508.051V75.556H505.827V73.124H503.875L503.619 75.556L502.227 75.652V77.396H503.475V81.38C503.475 83.38 504.291 84.724 506.419 84.724ZM513.242 84.724C515.482 84.724 517.53 82.996 517.53 80.036C517.53 77.06 515.482 75.332 513.242 75.332C510.986 75.332 508.938 77.06 508.938 80.036C508.938 82.996 510.986 84.724 513.242 84.724ZM513.242 82.82C512.01 82.82 511.338 81.716 511.338 80.036C511.338 78.34 512.01 77.252 513.242 77.252C514.458 77.252 515.13 78.34 515.13 80.036C515.13 81.716 514.458 82.82 513.242 82.82ZM519.514 84.5H521.866V78.34C522.474 77.668 523.066 77.348 523.562 77.348C524.426 77.348 524.826 77.812 524.826 79.22V84.5H527.178V78.34C527.818 77.668 528.378 77.348 528.89 77.348C529.754 77.348 530.138 77.812 530.138 79.22V84.5H532.49V78.916C532.49 76.676 531.626 75.332 529.722 75.332C528.554 75.332 527.69 76.036 526.858 76.884C526.442 75.892 525.69 75.332 524.394 75.332C523.242 75.332 522.41 75.972 521.658 76.74H521.61L521.418 75.556H519.514V84.5ZM538.84 84.724C539.944 84.724 541.064 84.356 541.944 83.748L541.16 82.292C540.504 82.692 539.864 82.916 539.144 82.916C537.816 82.916 536.856 82.164 536.648 80.692H542.184C542.232 80.468 542.28 80.052 542.28 79.604C542.28 77.124 541.016 75.332 538.536 75.332C536.424 75.332 534.376 77.124 534.376 80.036C534.376 82.996 536.328 84.724 538.84 84.724ZM536.616 79.124C536.808 77.812 537.64 77.14 538.584 77.14C539.736 77.14 540.28 77.908 540.28 79.124H536.616ZM544.233 84.5H546.585V79.172C547.081 77.876 547.929 77.396 548.617 77.396C549.001 77.396 549.241 77.46 549.561 77.54L549.961 75.524C549.689 75.396 549.401 75.332 548.921 75.332C547.993 75.332 547.017 75.956 546.377 77.14H546.329L546.137 75.556H544.233V84.5ZM551.409 84.5H553.777V72.66H551.409V84.5ZM556.69 84.5H560.066C563.554 84.5 565.778 82.516 565.778 78.532C565.778 74.532 563.554 72.66 559.938 72.66H556.69V84.5ZM559.058 82.596V74.548H559.778C562.002 74.548 563.362 75.652 563.362 78.532C563.362 81.412 562.002 82.596 559.778 82.596H559.058Z" fill="white"/>
<rect x="459" y="52" width="123" height="52" stroke="#B3B3B3"/>
<rect x="459" y="104" width="123" height="49" fill="white"/>
<path d="M499.408 135H505.84V133.784H503.472V123.272H502.352C501.728 123.656 500.976 123.928 499.92 124.104V125.048H502.016V133.784H499.408V135ZM511.323 135.224C513.531 135.224 514.955 133.192 514.955 129.096C514.955 125.032 513.531 123.064 511.323 123.064C509.083 123.064 507.659 125.032 507.659 129.096C507.659 133.192 509.083 135.224 511.323 135.224ZM511.323 134.04C509.979 134.04 509.067 132.552 509.067 129.096C509.067 125.688 509.979 124.232 511.323 124.232C512.651 124.232 513.547 125.688 513.547 129.096C513.547 132.552 512.651 134.04 511.323 134.04ZM520.198 135.224C522.406 135.224 523.83 133.192 523.83 129.096C523.83 125.032 522.406 123.064 520.198 123.064C517.958 123.064 516.534 125.032 516.534 129.096C516.534 133.192 517.958 135.224 520.198 135.224ZM520.198 134.04C518.854 134.04 517.942 132.552 517.942 129.096C517.942 125.688 518.854 124.232 520.198 124.232C521.526 124.232 522.422 125.688 522.422 129.096C522.422 132.552 521.526 134.04 520.198 134.04ZM529.073 135.224C531.281 135.224 532.705 133.192 532.705 129.096C532.705 125.032 531.281 123.064 529.073 123.064C526.833 123.064 525.409 125.032 525.409 129.096C525.409 133.192 526.833 135.224 529.073 135.224ZM529.073 134.04C527.729 134.04 526.817 132.552 526.817 129.096C526.817 125.688 527.729 124.232 529.073 124.232C530.401 124.232 531.297 125.688 531.297 129.096C531.297 132.552 530.401 134.04 529.073 134.04ZM534.908 135H541.34V133.784H538.972V123.272H537.852C537.228 123.656 536.476 123.928 535.42 124.104V125.048H537.516V133.784H534.908V135Z" fill="black"/>
<rect x="459" y="104" width="123" height="49" stroke="#B3B3B3"/>
<rect x="459" y="153" width="123" height="50" fill="white"/>
<path d="M499.408 184.5H505.84V183.284H503.472V172.772H502.352C501.728 173.156 500.976 173.428 499.92 173.604V174.548H502.016V183.284H499.408V184.5ZM511.323 184.724C513.531 184.724 514.955 182.692 514.955 178.596C514.955 174.532 513.531 172.564 511.323 172.564C509.083 172.564 507.659 174.532 507.659 178.596C507.659 182.692 509.083 184.724 511.323 184.724ZM511.323 183.54C509.979 183.54 509.067 182.052 509.067 178.596C509.067 175.188 509.979 173.732 511.323 173.732C512.651 173.732 513.547 175.188 513.547 178.596C513.547 182.052 512.651 183.54 511.323 183.54ZM520.198 184.724C522.406 184.724 523.83 182.692 523.83 178.596C523.83 174.532 522.406 172.564 520.198 172.564C517.958 172.564 516.534 174.532 516.534 178.596C516.534 182.692 517.958 184.724 520.198 184.724ZM520.198 183.54C518.854 183.54 517.942 182.052 517.942 178.596C517.942 175.188 518.854 173.732 520.198 173.732C521.526 173.732 522.422 175.188 522.422 178.596C522.422 182.052 521.526 183.54 520.198 183.54ZM529.073 184.724C531.281 184.724 532.705 182.692 532.705 178.596C532.705 174.532 531.281 172.564 529.073 172.564C526.833 172.564 525.409 174.532 525.409 178.596C525.409 182.692 526.833 184.724 529.073 184.724ZM529.073 183.54C527.729 183.54 526.817 182.052 526.817 178.596C526.817 175.188 527.729 173.732 529.073 173.732C530.401 173.732 531.297 175.188 531.297 178.596C531.297 182.052 530.401 183.54 529.073 183.54ZM534.204 184.5H541.564V183.252H538.316C537.724 183.252 537.02 183.3 536.396 183.364C539.164 180.756 541.004 178.372 541.004 176.02C541.004 173.924 539.692 172.564 537.596 172.564C536.108 172.564 535.084 173.252 534.124 174.292L534.972 175.108C535.628 174.34 536.46 173.748 537.42 173.748C538.876 173.748 539.564 174.74 539.564 176.084C539.564 178.084 537.884 180.436 534.204 183.652V184.5Z" fill="black"/>
<rect x="459" y="153" width="123" height="50" stroke="#B3B3B3"/>
<rect x="459" y="203" width="123" height="50" fill="white"/>
<path d="M499.408 234.5H505.84V233.284H503.472V222.772H502.352C501.728 223.156 500.976 223.428 499.92 223.604V224.548H502.016V233.284H499.408V234.5ZM511.323 234.724C513.531 234.724 514.955 232.692 514.955 228.596C514.955 224.532 513.531 222.564 511.323 222.564C509.083 222.564 507.659 224.532 507.659 228.596C507.659 232.692 509.083 234.724 511.323 234.724ZM511.323 233.54C509.979 233.54 509.067 232.052 509.067 228.596C509.067 225.188 509.979 223.732 511.323 223.732C512.651 223.732 513.547 225.188 513.547 228.596C513.547 232.052 512.651 233.54 511.323 233.54ZM520.198 234.724C522.406 234.724 523.83 232.692 523.83 228.596C523.83 224.532 522.406 222.564 520.198 222.564C517.958 222.564 516.534 224.532 516.534 228.596C516.534 232.692 517.958 234.724 520.198 234.724ZM520.198 233.54C518.854 233.54 517.942 232.052 517.942 228.596C517.942 225.188 518.854 223.732 520.198 223.732C521.526 223.732 522.422 225.188 522.422 228.596C522.422 232.052 521.526 233.54 520.198 233.54ZM529.073 234.724C531.281 234.724 532.705 232.692 532.705 228.596C532.705 224.532 531.281 222.564 529.073 222.564C526.833 222.564 525.409 224.532 525.409 228.596C525.409 232.692 526.833 234.724 529.073 234.724ZM529.073 233.54C527.729 233.54 526.817 232.052 526.817 228.596C526.817 225.188 527.729 223.732 529.073 223.732C530.401 223.732 531.297 225.188 531.297 228.596C531.297 232.052 530.401 233.54 529.073 233.54ZM537.708 234.724C539.804 234.724 541.484 233.46 541.484 231.38C541.484 229.764 540.364 228.724 538.988 228.388V228.324C540.236 227.876 541.068 226.932 541.068 225.508C541.068 223.636 539.628 222.564 537.66 222.564C536.316 222.564 535.276 223.156 534.396 223.956L535.18 224.9C535.836 224.228 536.668 223.748 537.612 223.748C538.828 223.748 539.58 224.484 539.58 225.604C539.58 226.884 538.764 227.844 536.348 227.844V228.98C539.052 228.98 539.996 229.908 539.996 231.316C539.996 232.66 539.004 233.508 537.612 233.508C536.268 233.508 535.388 232.868 534.7 232.148L533.964 233.108C534.732 233.956 535.868 234.724 537.708 234.724Z" fill="black"/>
<rect x="459" y="203" width="123" height="50" stroke="#B3B3B3"/>
<rect x="582" y="1" width="246" height="50" fill="#1A69C6"/>
<path d="M673.436 32.5H675.836L677.532 26.34C677.884 25.108 678.22 23.748 678.54 22.468H678.604C678.94 23.732 679.276 25.108 679.628 26.34L681.324 32.5H683.804L680.012 20.66H677.228L673.436 32.5ZM675.788 29.46H681.42V27.636H675.788V29.46ZM688.166 32.724C689.094 32.724 689.99 32.228 690.646 31.572H690.694L690.87 32.5H692.79V19.748H690.438V22.884L690.534 24.292C689.878 23.7 689.254 23.332 688.246 23.332C686.326 23.332 684.486 25.108 684.486 28.036C684.486 30.98 685.926 32.724 688.166 32.724ZM688.758 30.788C687.59 30.788 686.902 29.876 686.902 28.004C686.902 26.212 687.766 25.252 688.774 25.252C689.334 25.252 689.91 25.444 690.438 25.94V29.876C689.926 30.532 689.398 30.788 688.758 30.788ZM698.463 32.724C699.391 32.724 700.287 32.228 700.943 31.572H700.991L701.167 32.5H703.087V19.748H700.735V22.884L700.831 24.292C700.175 23.7 699.551 23.332 698.543 23.332C696.623 23.332 694.783 25.108 694.783 28.036C694.783 30.98 696.223 32.724 698.463 32.724ZM699.055 30.788C697.887 30.788 697.199 29.876 697.199 28.004C697.199 26.212 698.063 25.252 699.071 25.252C699.631 25.252 700.207 25.444 700.735 25.94V29.876C700.223 30.532 699.695 30.788 699.055 30.788ZM705.608 32.5H707.96V27.172C708.456 25.876 709.304 25.396 709.992 25.396C710.376 25.396 710.616 25.46 710.936 25.54L711.336 23.524C711.064 23.396 710.776 23.332 710.296 23.332C709.368 23.332 708.392 23.956 707.752 25.14H707.704L707.512 23.556H705.608V32.5ZM716.231 32.724C717.335 32.724 718.455 32.356 719.335 31.748L718.551 30.292C717.895 30.692 717.255 30.916 716.535 30.916C715.207 30.916 714.247 30.164 714.039 28.692H719.575C719.623 28.468 719.671 28.052 719.671 27.604C719.671 25.124 718.407 23.332 715.927 23.332C713.815 23.332 711.767 25.124 711.767 28.036C711.767 30.996 713.719 32.724 716.231 32.724ZM714.007 27.124C714.199 25.812 715.031 25.14 715.975 25.14C717.127 25.14 717.671 25.908 717.671 27.124H714.007ZM724.183 32.724C726.503 32.724 727.735 31.476 727.735 29.892C727.735 28.244 726.439 27.636 725.255 27.188C724.295 26.852 723.479 26.596 723.479 25.956C723.479 25.428 723.847 25.076 724.663 25.076C725.319 25.076 725.959 25.396 726.583 25.844L727.655 24.436C726.919 23.86 725.895 23.332 724.599 23.332C722.551 23.332 721.271 24.468 721.271 26.052C721.271 27.572 722.535 28.244 723.671 28.692C724.599 29.044 725.543 29.364 725.543 30.02C725.543 30.58 725.127 30.98 724.231 30.98C723.399 30.98 722.647 30.612 721.831 29.988L720.775 31.476C721.655 32.212 722.983 32.724 724.183 32.724ZM732.105 32.724C734.425 32.724 735.657 31.476 735.657 29.892C735.657 28.244 734.361 27.636 733.177 27.188C732.217 26.852 731.401 26.596 731.401 25.956C731.401 25.428 731.769 25.076 732.585 25.076C733.241 25.076 733.881 25.396 734.505 25.844L735.577 24.436C734.841 23.86 733.817 23.332 732.521 23.332C730.473 23.332 729.193 24.468 729.193 26.052C729.193 27.572 730.457 28.244 731.593 28.692C732.521 29.044 733.465 29.364 733.465 30.02C733.465 30.58 733.049 30.98 732.153 30.98C731.321 30.98 730.569 30.612 729.753 29.988L728.697 31.476C729.577 32.212 730.905 32.724 732.105 32.724Z" fill="white"/>
<rect x="582" y="1" width="246" height="50" stroke="#B3B3B3"/>
<path d="M284.272 320.224C285.808 320.224 287.072 319.632 288.048 318.496L286.8 317.008C286.176 317.696 285.376 318.176 284.368 318.176C282.48 318.176 281.28 316.64 281.28 314.048C281.28 311.52 282.624 309.984 284.4 309.984C285.312 309.984 285.984 310.384 286.592 310.976L287.84 309.456C287.072 308.656 285.872 307.952 284.368 307.952C281.36 307.952 278.864 310.224 278.864 314.128C278.864 318.08 281.28 320.224 284.272 320.224ZM293.508 320.224C295.748 320.224 297.796 318.496 297.796 315.536C297.796 312.56 295.748 310.832 293.508 310.832C291.252 310.832 289.204 312.56 289.204 315.536C289.204 318.496 291.252 320.224 293.508 320.224ZM293.508 318.32C292.276 318.32 291.604 317.216 291.604 315.536C291.604 313.84 292.276 312.752 293.508 312.752C294.724 312.752 295.396 313.84 295.396 315.536C295.396 317.216 294.724 318.32 293.508 318.32ZM301.988 320.224C302.548 320.224 302.916 320.128 303.188 320.032L302.9 318.288C302.74 318.32 302.676 318.32 302.596 318.32C302.372 318.32 302.132 318.144 302.132 317.584V307.248H299.78V317.488C299.78 319.152 300.34 320.224 301.988 320.224ZM307.499 320.224C308.715 320.224 309.563 319.632 310.347 318.72H310.395L310.571 320H312.491V311.056H310.155V317.088C309.547 317.888 309.067 318.208 308.331 318.208C307.451 318.208 307.067 317.728 307.067 316.352V311.056H304.715V316.64C304.715 318.896 305.562 320.224 307.499 320.224ZM315.014 320H317.366V313.84C317.974 313.168 318.566 312.848 319.062 312.848C319.926 312.848 320.326 313.312 320.326 314.72V320H322.678V313.84C323.318 313.168 323.878 312.848 324.39 312.848C325.254 312.848 325.638 313.312 325.638 314.72V320H327.99V314.416C327.99 312.176 327.126 310.832 325.222 310.832C324.054 310.832 323.19 311.536 322.358 312.384C321.942 311.392 321.19 310.832 319.894 310.832C318.742 310.832 317.91 311.472 317.158 312.24H317.11L316.918 311.056H315.014V320ZM330.436 320H332.788V313.84C333.444 313.2 333.908 312.848 334.644 312.848C335.508 312.848 335.908 313.312 335.908 314.72V320H338.26V314.416C338.26 312.176 337.412 310.832 335.492 310.832C334.276 310.832 333.348 311.472 332.58 312.24H332.532L332.34 311.056H330.436V320ZM340.19 316.272H344.574V314.592H340.19V316.272ZM346.992 320H349.344V310.288C349.344 309.296 349.728 308.864 350.432 308.864C350.736 308.864 351.072 308.944 351.376 309.072L351.824 307.312C351.424 307.168 350.816 307.024 350.112 307.024C347.872 307.024 346.992 308.464 346.992 310.32V320ZM345.792 312.896H351.04V311.056H347.136L345.792 311.152V312.896ZM354.3 320.224C355.324 320.224 356.22 319.728 357.004 319.056H357.068L357.244 320H359.164V314.784C359.164 312.176 357.996 310.832 355.724 310.832C354.3 310.832 353.036 311.36 351.98 312L352.828 313.568C353.644 313.072 354.46 312.72 355.292 312.72C356.396 312.72 356.764 313.376 356.812 314.256C353.212 314.656 351.66 315.664 351.66 317.568C351.66 319.104 352.7 320.224 354.3 320.224ZM355.068 318.384C354.38 318.384 353.9 318.08 353.9 317.392C353.9 316.576 354.62 315.984 356.812 315.712V317.52C356.236 318.08 355.74 318.384 355.068 318.384ZM361.561 320H363.913V313.84C364.521 313.168 365.113 312.848 365.609 312.848C366.473 312.848 366.873 313.312 366.873 314.72V320H369.225V313.84C369.865 313.168 370.425 312.848 370.937 312.848C371.801 312.848 372.185 313.312 372.185 314.72V320H374.537V314.416C374.537 312.176 373.673 310.832 371.769 310.832C370.601 310.832 369.737 311.536 368.905 312.384C368.489 311.392 367.737 310.832 366.441 310.832C365.289 310.832 364.457 311.472 363.705 312.24H363.657L363.465 311.056H361.561V320ZM376.983 320H379.335V311.056H376.983V320ZM378.151 309.6C378.967 309.6 379.527 309.088 379.527 308.304C379.527 307.536 378.967 307.04 378.151 307.04C377.335 307.04 376.791 307.536 376.791 308.304C376.791 309.088 377.335 309.6 378.151 309.6ZM384.05 320.224C384.61 320.224 384.978 320.128 385.25 320.032L384.962 318.288C384.802 318.32 384.738 318.32 384.658 318.32C384.434 318.32 384.194 318.144 384.194 317.584V307.248H381.842V317.488C381.842 319.152 382.402 320.224 384.05 320.224ZM387.657 323.6C389.673 323.6 390.633 322.384 391.417 320.288L394.601 311.056H392.345L391.097 315.2C390.889 316.048 390.665 316.896 390.473 317.744H390.393C390.121 316.88 389.897 316.016 389.625 315.2L388.217 311.056H385.833L389.321 319.84L389.177 320.368C388.905 321.168 388.393 321.744 387.497 321.744C387.273 321.744 387.033 321.664 386.873 321.616L386.441 323.424C386.777 323.536 387.145 323.6 387.657 323.6ZM402.854 320.224C403.782 320.224 404.678 319.728 405.334 319.072H405.382L405.558 320H407.477V307.248H405.126V310.384L405.222 311.792C404.566 311.2 403.942 310.832 402.934 310.832C401.014 310.832 399.174 312.608 399.174 315.536C399.174 318.48 400.614 320.224 402.854 320.224ZM403.446 318.288C402.278 318.288 401.59 317.376 401.59 315.504C401.59 313.712 402.454 312.752 403.462 312.752C404.022 312.752 404.598 312.944 405.126 313.44V317.376C404.614 318.032 404.086 318.288 403.446 318.288ZM412.19 320.224C413.214 320.224 414.11 319.728 414.894 319.056H414.958L415.134 320H417.054V314.784C417.054 312.176 415.886 310.832 413.614 310.832C412.19 310.832 410.926 311.36 409.87 312L410.718 313.568C411.534 313.072 412.35 312.72 413.182 312.72C414.286 312.72 414.654 313.376 414.702 314.256C411.102 314.656 409.55 315.664 409.55 317.568C409.55 319.104 410.59 320.224 412.19 320.224ZM412.958 318.384C412.27 318.384 411.79 318.08 411.79 317.392C411.79 316.576 412.51 315.984 414.702 315.712V317.52C414.126 318.08 413.63 318.384 412.958 318.384ZM422.325 320.224C423.125 320.224 423.749 320.048 424.229 319.888L423.845 318.176C423.589 318.272 423.253 318.384 422.949 318.384C422.165 318.384 421.733 317.904 421.733 316.88V312.896H423.957V311.056H421.733V308.624H419.781L419.525 311.056L418.133 311.152V312.896H419.381V316.88C419.381 318.88 420.197 320.224 422.325 320.224ZM427.503 320.224C428.527 320.224 429.423 319.728 430.207 319.056H430.271L430.447 320H432.367V314.784C432.367 312.176 431.199 310.832 428.927 310.832C427.503 310.832 426.239 311.36 425.183 312L426.031 313.568C426.847 313.072 427.663 312.72 428.495 312.72C429.599 312.72 429.967 313.376 430.015 314.256C426.415 314.656 424.863 315.664 424.863 317.568C424.863 319.104 425.903 320.224 427.503 320.224ZM428.271 318.384C427.583 318.384 427.103 318.08 427.103 317.392C427.103 316.576 427.823 315.984 430.015 315.712V317.52C429.439 318.08 428.943 318.384 428.271 318.384ZM440.949 320.224C443.269 320.224 444.501 318.976 444.501 317.392C444.501 315.744 443.205 315.136 442.021 314.688C441.061 314.352 440.245 314.096 440.245 313.456C440.245 312.928 440.613 312.576 441.429 312.576C442.085 312.576 442.725 312.896 443.349 313.344L444.421 311.936C443.685 311.36 442.661 310.832 441.365 310.832C439.317 310.832 438.037 311.968 438.037 313.552C438.037 315.072 439.301 315.744 440.437 316.192C441.365 316.544 442.309 316.864 442.309 317.52C442.309 318.08 441.893 318.48 440.997 318.48C440.165 318.48 439.413 318.112 438.597 317.488L437.541 318.976C438.421 319.712 439.749 320.224 440.949 320.224ZM449.122 320.224C449.922 320.224 450.546 320.048 451.026 319.888L450.642 318.176C450.386 318.272 450.05 318.384 449.746 318.384C448.962 318.384 448.53 317.904 448.53 316.88V312.896H450.754V311.056H448.53V308.624H446.578L446.322 311.056L444.93 311.152V312.896H446.178V316.88C446.178 318.88 446.994 320.224 449.122 320.224ZM455.946 320.224C458.186 320.224 460.234 318.496 460.234 315.536C460.234 312.56 458.186 310.832 455.946 310.832C453.69 310.832 451.642 312.56 451.642 315.536C451.642 318.496 453.69 320.224 455.946 320.224ZM455.946 318.32C454.714 318.32 454.042 317.216 454.042 315.536C454.042 313.84 454.714 312.752 455.946 312.752C457.162 312.752 457.834 313.84 457.834 315.536C457.834 317.216 457.162 318.32 455.946 318.32ZM462.217 320H464.569V314.672C465.065 313.376 465.913 312.896 466.601 312.896C466.985 312.896 467.225 312.96 467.545 313.04L467.945 311.024C467.673 310.896 467.385 310.832 466.905 310.832C465.977 310.832 465.001 311.456 464.361 312.64H464.313L464.121 311.056H462.217V320ZM470.815 320.224C471.839 320.224 472.735 319.728 473.519 319.056H473.583L473.759 320H475.679V314.784C475.679 312.176 474.511 310.832 472.239 310.832C470.815 310.832 469.551 311.36 468.495 312L469.343 313.568C470.159 313.072 470.975 312.72 471.807 312.72C472.911 312.72 473.279 313.376 473.327 314.256C469.727 314.656 468.175 315.664 468.175 317.568C468.175 319.104 469.215 320.224 470.815 320.224ZM471.583 318.384C470.895 318.384 470.415 318.08 470.415 317.392C470.415 316.576 471.135 315.984 473.327 315.712V317.52C472.751 318.08 472.255 318.384 471.583 318.384ZM481.213 323.888C484.205 323.888 486.109 322.528 486.109 320.72C486.109 319.136 484.925 318.48 482.765 318.48H481.229C480.189 318.48 479.821 318.208 479.821 317.744C479.821 317.376 479.965 317.184 480.205 316.96C480.605 317.104 481.005 317.168 481.357 317.168C483.293 317.168 484.829 316.16 484.829 314.128C484.829 313.584 484.653 313.088 484.413 312.784H485.949V311.056H482.717C482.349 310.912 481.869 310.832 481.357 310.832C479.469 310.832 477.741 311.952 477.741 314.064C477.741 315.12 478.333 315.968 478.957 316.416V316.48C478.397 316.864 477.949 317.472 477.949 318.144C477.949 318.88 478.301 319.36 478.765 319.664V319.744C477.933 320.192 477.485 320.848 477.485 321.6C477.485 323.168 479.117 323.888 481.213 323.888ZM481.357 315.728C480.573 315.728 479.949 315.12 479.949 314.064C479.949 313.008 480.573 312.432 481.357 312.432C482.157 312.432 482.765 313.008 482.765 314.064C482.765 315.12 482.141 315.728 481.357 315.728ZM481.581 322.4C480.269 322.4 479.437 321.984 479.437 321.232C479.437 320.864 479.613 320.512 480.029 320.176C480.349 320.272 480.717 320.304 481.261 320.304H482.349C483.309 320.304 483.837 320.48 483.837 321.12C483.837 321.808 482.925 322.4 481.581 322.4ZM491.137 320.224C492.241 320.224 493.361 319.856 494.241 319.248L493.457 317.792C492.801 318.192 492.161 318.416 491.441 318.416C490.113 318.416 489.153 317.664 488.945 316.192H494.481C494.529 315.968 494.577 315.552 494.577 315.104C494.577 312.624 493.313 310.832 490.833 310.832C488.721 310.832 486.673 312.624 486.673 315.536C486.673 318.496 488.625 320.224 491.137 320.224ZM488.913 314.624C489.105 313.312 489.937 312.64 490.881 312.64C492.033 312.64 492.577 313.408 492.577 314.624H488.913Z" fill="black"/>
</svg>
