<svg width="604" height="387" viewBox="0 0 604 387" fill="none" xmlns="http://www.w3.org/2000/svg">
<rect x="208" y="1" width="98" height="42" fill="#FFFDFD" stroke="black" stroke-width="2"/>
<path d="M223.6 27H226.608C230.144 27 232.064 24.824 232.064 21.096C232.064 17.368 230.144 15.272 226.528 15.272H223.6V27ZM225.088 25.784V16.488H226.416C229.168 16.488 230.544 18.12 230.544 21.096C230.544 24.072 229.168 25.784 226.416 25.784H225.088ZM236.488 27.224C237.56 27.224 238.536 26.664 239.352 25.976H239.416L239.544 27H240.744V21.672C240.744 19.512 239.848 18.104 237.72 18.104C236.328 18.104 235.112 18.712 234.312 19.224L234.888 20.248C235.56 19.784 236.472 19.304 237.496 19.304C238.92 19.304 239.272 20.376 239.272 21.496C235.576 21.912 233.944 22.856 233.944 24.744C233.944 26.312 235.032 27.224 236.488 27.224ZM236.888 26.04C236.04 26.04 235.368 25.64 235.368 24.648C235.368 23.528 236.344 22.808 239.272 22.472V24.888C238.44 25.64 237.736 26.04 236.888 26.04ZM245.942 27.224C246.486 27.224 247.062 27.064 247.542 26.888L247.254 25.8C246.982 25.912 246.582 26.04 246.278 26.04C245.27 26.04 244.934 25.416 244.934 24.36V19.496H247.286V18.312H244.934V15.864H243.702L243.542 18.312L242.182 18.408V19.496H243.478V24.328C243.478 26.056 244.086 27.224 245.942 27.224ZM250.816 27.224C251.888 27.224 252.864 26.664 253.68 25.976H253.744L253.872 27H255.072V21.672C255.072 19.512 254.176 18.104 252.048 18.104C250.656 18.104 249.44 18.712 248.64 19.224L249.216 20.248C249.888 19.784 250.8 19.304 251.824 19.304C253.248 19.304 253.6 20.376 253.6 21.496C249.904 21.912 248.272 22.856 248.272 24.744C248.272 26.312 249.36 27.224 250.816 27.224ZM251.216 26.04C250.368 26.04 249.696 25.64 249.696 24.648C249.696 23.528 250.672 22.808 253.6 22.472V24.888C252.768 25.64 252.064 26.04 251.216 26.04ZM261.639 27.224C263.639 27.224 265.415 25.496 265.415 22.52C265.415 19.848 264.199 18.104 261.959 18.104C260.983 18.104 260.023 18.632 259.223 19.32L259.287 17.752V14.28H257.831V27H258.983L259.127 26.104H259.175C259.927 26.808 260.839 27.224 261.639 27.224ZM261.415 25.992C260.839 25.992 260.039 25.752 259.287 25.096V20.52C260.103 19.736 260.871 19.32 261.607 19.32C263.255 19.32 263.911 20.616 263.911 22.552C263.911 24.696 262.839 25.992 261.415 25.992ZM269.425 27.224C270.497 27.224 271.473 26.664 272.289 25.976H272.353L272.481 27H273.681V21.672C273.681 19.512 272.785 18.104 270.657 18.104C269.265 18.104 268.049 18.712 267.249 19.224L267.825 20.248C268.497 19.784 269.409 19.304 270.433 19.304C271.857 19.304 272.209 20.376 272.209 21.496C268.513 21.912 266.881 22.856 266.881 24.744C266.881 26.312 267.969 27.224 269.425 27.224ZM269.825 26.04C268.977 26.04 268.305 25.64 268.305 24.648C268.305 23.528 269.281 22.808 272.209 22.472V24.888C271.377 25.64 270.673 26.04 269.825 26.04ZM278.713 27.224C280.761 27.224 281.865 26.056 281.865 24.632C281.865 22.984 280.489 22.472 279.225 21.992C278.233 21.64 277.353 21.32 277.353 20.488C277.353 19.816 277.849 19.24 278.953 19.24C279.721 19.24 280.345 19.576 280.937 20.008L281.641 19.08C280.969 18.536 280.009 18.104 278.937 18.104C277.049 18.104 275.945 19.176 275.945 20.552C275.945 22.04 277.273 22.616 278.473 23.08C279.433 23.432 280.473 23.832 280.473 24.712C280.473 25.48 279.897 26.088 278.745 26.088C277.705 26.088 276.937 25.656 276.185 25.048L275.465 26.024C276.281 26.696 277.481 27.224 278.713 27.224ZM287.429 27.224C288.613 27.224 289.525 26.824 290.293 26.328L289.765 25.352C289.125 25.784 288.437 26.056 287.605 26.056C285.941 26.056 284.821 24.856 284.709 23.016H290.565C290.613 22.792 290.629 22.488 290.629 22.184C290.629 19.688 289.381 18.104 287.173 18.104C285.173 18.104 283.269 19.848 283.269 22.68C283.269 25.528 285.109 27.224 287.429 27.224ZM284.693 21.96C284.885 20.248 285.973 19.272 287.189 19.272C288.565 19.272 289.349 20.216 289.349 21.96H284.693Z" fill="black"/>
<rect x="138" y="77" width="78" height="37" fill="#FFFDFD" stroke="black" stroke-width="2"/>
<path d="M162.6 103H164.088V98.04H166.264C168.648 98.04 170.36 96.92 170.36 94.568C170.36 92.136 168.648 91.272 166.264 91.272H162.6V103ZM164.088 96.84V92.488H166.056C167.88 92.488 168.888 93.032 168.888 94.568C168.888 96.088 167.88 96.84 166.056 96.84H164.088ZM169.048 103H170.712L167.128 96.872L165.976 97.64L169.048 103ZM172.756 103H175.764C179.3 103 181.22 100.824 181.22 97.096C181.22 93.368 179.3 91.272 175.684 91.272H172.756V103ZM174.244 101.784V92.488H175.572C178.324 92.488 179.7 94.12 179.7 97.096C179.7 100.072 178.324 101.784 175.572 101.784H174.244ZM183.772 103H187.516C190.124 103 191.948 101.864 191.948 99.576C191.948 97.976 190.972 97.032 189.564 96.76V96.696C190.668 96.328 191.276 95.304 191.276 94.152C191.276 92.088 189.628 91.272 187.244 91.272H183.772V103ZM185.26 96.264V92.44H187.068C188.892 92.44 189.82 92.952 189.82 94.328C189.82 95.528 189.004 96.264 186.988 96.264H185.26ZM185.26 101.832V97.4H187.308C189.356 97.4 190.508 98.072 190.508 99.528C190.508 101.112 189.308 101.832 187.308 101.832H185.26Z" fill="black"/>
<rect x="181" y="169" width="157" height="37" fill="#FFFDFD" stroke="black" stroke-width="2"/>
<path d="M201.032 195.224C202.552 195.224 203.688 194.616 204.616 193.528L203.816 192.6C203.064 193.432 202.2 193.912 201.096 193.912C198.856 193.912 197.448 192.072 197.448 189.112C197.448 186.184 198.92 184.36 201.144 184.36C202.136 184.36 202.92 184.808 203.528 185.464L204.344 184.504C203.656 183.752 202.552 183.064 201.128 183.064C198.152 183.064 195.928 185.368 195.928 189.144C195.928 192.952 198.104 195.224 201.032 195.224ZM210.051 195.224C212.179 195.224 214.067 193.544 214.067 190.68C214.067 187.768 212.179 186.104 210.051 186.104C207.907 186.104 206.019 187.768 206.019 190.68C206.019 193.544 207.907 195.224 210.051 195.224ZM210.051 194.008C208.531 194.008 207.523 192.664 207.523 190.68C207.523 188.664 208.531 187.32 210.051 187.32C211.555 187.32 212.563 188.664 212.563 190.68C212.563 192.664 211.555 194.008 210.051 194.008ZM217.914 195.224C218.314 195.224 218.538 195.16 218.746 195.096L218.554 193.976C218.378 194.008 218.314 194.008 218.25 194.008C218.026 194.008 217.834 193.832 217.834 193.368V182.28H216.378V193.272C216.378 194.52 216.81 195.224 217.914 195.224ZM223.453 195.224C224.653 195.224 225.517 194.584 226.333 193.64H226.365L226.493 195H227.693V186.312H226.237V192.488C225.421 193.512 224.781 193.944 223.901 193.944C222.749 193.944 222.253 193.256 222.253 191.64V186.312H220.797V191.816C220.797 194.04 221.629 195.224 223.453 195.224ZM230.644 195H232.1V188.696C232.884 187.816 233.62 187.368 234.276 187.368C235.396 187.368 235.908 188.056 235.908 189.688V195H237.364V188.696C238.18 187.816 238.868 187.368 239.54 187.368C240.66 187.368 241.172 188.056 241.172 189.688V195H242.628V189.496C242.628 187.288 241.764 186.104 239.988 186.104C238.932 186.104 238.02 186.792 237.108 187.752C236.772 186.728 236.052 186.104 234.724 186.104C233.684 186.104 232.772 186.76 232.02 187.576H231.972L231.828 186.312H230.644V195ZM245.456 195H246.912V188.696C247.776 187.832 248.4 187.368 249.28 187.368C250.432 187.368 250.928 188.056 250.928 189.688V195H252.4V189.496C252.4 187.288 251.568 186.104 249.744 186.104C248.544 186.104 247.648 186.76 246.832 187.576H246.784L246.64 186.312H245.456V195ZM254.486 191.096H258.582V189.976H254.486V191.096ZM265.233 195.224C268.177 195.224 270.225 192.856 270.225 189.096C270.225 185.352 268.177 183.064 265.233 183.064C262.273 183.064 260.225 185.336 260.225 189.096C260.225 192.856 262.273 195.224 265.233 195.224ZM265.233 193.912C263.121 193.912 261.745 192.024 261.745 189.096C261.745 186.168 263.121 184.36 265.233 184.36C267.329 184.36 268.721 186.168 268.721 189.096C268.721 192.024 267.329 193.912 265.233 193.912ZM272.644 195H274.1V189.432C274.676 187.944 275.572 187.416 276.292 187.416C276.644 187.416 276.836 187.464 277.14 187.56L277.412 186.28C277.124 186.152 276.868 186.104 276.484 186.104C275.508 186.104 274.612 186.792 274.02 187.896H273.972L273.828 186.312H272.644V195ZM278.847 195H280.303V186.312H278.847V195ZM279.583 184.52C280.143 184.52 280.559 184.152 280.559 183.544C280.559 182.984 280.143 182.616 279.583 182.616C279.007 182.616 278.607 182.984 278.607 183.544C278.607 184.152 279.007 184.52 279.583 184.52ZM286.757 195.224C287.941 195.224 288.853 194.824 289.621 194.328L289.093 193.352C288.453 193.784 287.765 194.056 286.933 194.056C285.269 194.056 284.149 192.856 284.037 191.016H289.893C289.941 190.792 289.957 190.488 289.957 190.184C289.957 187.688 288.709 186.104 286.501 186.104C284.501 186.104 282.597 187.848 282.597 190.68C282.597 193.528 284.437 195.224 286.757 195.224ZM284.021 189.96C284.213 188.248 285.301 187.272 286.517 187.272C287.893 187.272 288.677 188.216 288.677 189.96H284.021ZM292.113 195H293.569V188.696C294.433 187.832 295.057 187.368 295.937 187.368C297.089 187.368 297.585 188.056 297.585 189.688V195H299.057V189.496C299.057 187.288 298.225 186.104 296.401 186.104C295.201 186.104 294.305 186.76 293.489 187.576H293.441L293.297 186.312H292.113V195ZM304.598 195.224C305.142 195.224 305.718 195.064 306.198 194.888L305.91 193.8C305.638 193.912 305.238 194.04 304.934 194.04C303.926 194.04 303.59 193.416 303.59 192.36V187.496H305.942V186.312H303.59V183.864H302.358L302.198 186.312L300.838 186.408V187.496H302.134V192.328C302.134 194.056 302.742 195.224 304.598 195.224ZM311.132 195.224C312.316 195.224 313.228 194.824 313.996 194.328L313.468 193.352C312.828 193.784 312.14 194.056 311.308 194.056C309.644 194.056 308.524 192.856 308.412 191.016H314.268C314.316 190.792 314.332 190.488 314.332 190.184C314.332 187.688 313.084 186.104 310.876 186.104C308.876 186.104 306.972 187.848 306.972 190.68C306.972 193.528 308.812 195.224 311.132 195.224ZM308.396 189.96C308.588 188.248 309.676 187.272 310.892 187.272C312.268 187.272 313.052 188.216 313.052 189.96H308.396ZM319.432 195.224C320.488 195.224 321.4 194.664 322.088 193.976H322.12L322.248 195H323.448V182.28H321.992V185.608L322.056 187.112C321.304 186.472 320.632 186.104 319.624 186.104C317.64 186.104 315.848 187.848 315.848 190.68C315.848 193.576 317.256 195.224 319.432 195.224ZM319.752 193.992C318.232 193.992 317.368 192.744 317.368 190.664C317.368 188.68 318.472 187.32 319.864 187.32C320.584 187.32 321.256 187.576 321.992 188.248V192.808C321.272 193.592 320.568 193.992 319.752 193.992Z" fill="black"/>
<rect x="1" y="281" width="172" height="38" fill="#FFFDFD" stroke="black" stroke-width="2"/>
<path d="M13.6 307H16.608C20.144 307 22.064 304.824 22.064 301.096C22.064 297.368 20.144 295.272 16.528 295.272H13.6V307ZM15.088 305.784V296.488H16.416C19.168 296.488 20.544 298.12 20.544 301.096C20.544 304.072 19.168 305.784 16.416 305.784H15.088ZM27.8636 307.224C29.9916 307.224 31.8796 305.544 31.8796 302.68C31.8796 299.768 29.9916 298.104 27.8636 298.104C25.7196 298.104 23.8316 299.768 23.8316 302.68C23.8316 305.544 25.7196 307.224 27.8636 307.224ZM27.8636 306.008C26.3436 306.008 25.3356 304.664 25.3356 302.68C25.3356 300.664 26.3436 299.32 27.8636 299.32C29.3676 299.32 30.3756 300.664 30.3756 302.68C30.3756 304.664 29.3676 306.008 27.8636 306.008ZM37.5988 307.224C38.6388 307.224 39.6468 306.808 40.4148 306.12L39.7908 305.144C39.2468 305.624 38.5268 306.008 37.7428 306.008C36.1428 306.008 35.0388 304.664 35.0388 302.68C35.0388 300.664 36.1908 299.32 37.7908 299.32C38.4628 299.32 39.0068 299.624 39.5188 300.088L40.2548 299.128C39.6468 298.568 38.8468 298.104 37.7108 298.104C35.4868 298.104 33.5348 299.768 33.5348 302.68C33.5348 305.544 35.2948 307.224 37.5988 307.224ZM44.875 307.224C46.075 307.224 46.939 306.584 47.755 305.64H47.787L47.915 307H49.115V298.312H47.659V304.488C46.843 305.512 46.203 305.944 45.323 305.944C44.171 305.944 43.675 305.256 43.675 303.64V298.312H42.219V303.816C42.219 306.04 43.051 307.224 44.875 307.224ZM52.0658 307H53.5218V300.696C54.3058 299.816 55.0418 299.368 55.6978 299.368C56.8178 299.368 57.3298 300.056 57.3298 301.688V307H58.7858V300.696C59.6018 299.816 60.2898 299.368 60.9618 299.368C62.0818 299.368 62.5938 300.056 62.5938 301.688V307H64.0498V301.496C64.0498 299.288 63.1858 298.104 61.4098 298.104C60.3538 298.104 59.4418 298.792 58.5298 299.752C58.1938 298.728 57.4738 298.104 56.1458 298.104C55.1058 298.104 54.1938 298.76 53.4418 299.576H53.3938L53.2498 298.312H52.0658V307ZM70.3823 307.224C71.5663 307.224 72.4783 306.824 73.2463 306.328L72.7183 305.352C72.0783 305.784 71.3903 306.056 70.5583 306.056C68.8943 306.056 67.7743 304.856 67.6623 303.016H73.5183C73.5663 302.792 73.5823 302.488 73.5823 302.184C73.5823 299.688 72.3343 298.104 70.1263 298.104C68.1263 298.104 66.2223 299.848 66.2223 302.68C66.2223 305.528 68.0623 307.224 70.3823 307.224ZM67.6463 301.96C67.8383 300.248 68.9263 299.272 70.1423 299.272C71.5183 299.272 72.3023 300.216 72.3023 301.96H67.6463ZM75.7376 307H77.1936V300.696C78.0576 299.832 78.6816 299.368 79.5616 299.368C80.7136 299.368 81.2096 300.056 81.2096 301.688V307H82.6816V301.496C82.6816 299.288 81.8496 298.104 80.0256 298.104C78.8256 298.104 77.9296 298.76 77.1136 299.576H77.0656L76.9216 298.312H75.7376V307ZM88.2233 307.224C88.7673 307.224 89.3433 307.064 89.8233 306.888L89.5353 305.8C89.2633 305.912 88.8633 306.04 88.5593 306.04C87.5513 306.04 87.2153 305.416 87.2153 304.36V299.496H89.5673V298.312H87.2153V295.864H85.9833L85.8233 298.312L84.4633 298.408V299.496H85.7593V304.328C85.7593 306.056 86.3673 307.224 88.2233 307.224ZM90.2985 303.096H94.3945V301.976H90.2985V303.096ZM101.045 307.224C103.989 307.224 106.037 304.856 106.037 301.096C106.037 297.352 103.989 295.064 101.045 295.064C98.0854 295.064 96.0374 297.336 96.0374 301.096C96.0374 304.856 98.0854 307.224 101.045 307.224ZM101.045 305.912C98.9334 305.912 97.5574 304.024 97.5574 301.096C97.5574 298.168 98.9334 296.36 101.045 296.36C103.141 296.36 104.533 298.168 104.533 301.096C104.533 304.024 103.141 305.912 101.045 305.912ZM108.456 307H109.912V301.432C110.488 299.944 111.384 299.416 112.104 299.416C112.456 299.416 112.648 299.464 112.952 299.56L113.224 298.28C112.936 298.152 112.68 298.104 112.296 298.104C111.32 298.104 110.424 298.792 109.832 299.896H109.784L109.64 298.312H108.456V307ZM114.66 307H116.116V298.312H114.66V307ZM115.396 296.52C115.956 296.52 116.372 296.152 116.372 295.544C116.372 294.984 115.956 294.616 115.396 294.616C114.82 294.616 114.42 294.984 114.42 295.544C114.42 296.152 114.82 296.52 115.396 296.52ZM122.57 307.224C123.754 307.224 124.666 306.824 125.434 306.328L124.906 305.352C124.266 305.784 123.578 306.056 122.746 306.056C121.082 306.056 119.962 304.856 119.85 303.016H125.706C125.754 302.792 125.77 302.488 125.77 302.184C125.77 299.688 124.522 298.104 122.314 298.104C120.314 298.104 118.41 299.848 118.41 302.68C118.41 305.528 120.25 307.224 122.57 307.224ZM119.834 301.96C120.026 300.248 121.114 299.272 122.33 299.272C123.706 299.272 124.49 300.216 124.49 301.96H119.834ZM127.925 307H129.381V300.696C130.245 299.832 130.869 299.368 131.749 299.368C132.901 299.368 133.397 300.056 133.397 301.688V307H134.869V301.496C134.869 299.288 134.037 298.104 132.213 298.104C131.013 298.104 130.117 298.76 129.301 299.576H129.253L129.109 298.312H127.925V307ZM140.411 307.224C140.955 307.224 141.531 307.064 142.011 306.888L141.723 305.8C141.451 305.912 141.051 306.04 140.747 306.04C139.739 306.04 139.403 305.416 139.403 304.36V299.496H141.755V298.312H139.403V295.864H138.171L138.011 298.312L136.651 298.408V299.496H137.947V304.328C137.947 306.056 138.555 307.224 140.411 307.224ZM146.945 307.224C148.129 307.224 149.041 306.824 149.809 306.328L149.281 305.352C148.641 305.784 147.953 306.056 147.121 306.056C145.457 306.056 144.337 304.856 144.225 303.016H150.081C150.129 302.792 150.145 302.488 150.145 302.184C150.145 299.688 148.897 298.104 146.689 298.104C144.689 298.104 142.785 299.848 142.785 302.68C142.785 305.528 144.625 307.224 146.945 307.224ZM144.209 301.96C144.401 300.248 145.489 299.272 146.705 299.272C148.081 299.272 148.865 300.216 148.865 301.96H144.209ZM155.244 307.224C156.3 307.224 157.212 306.664 157.9 305.976H157.932L158.06 307H159.26V294.28H157.804V297.608L157.868 299.112C157.116 298.472 156.444 298.104 155.436 298.104C153.452 298.104 151.66 299.848 151.66 302.68C151.66 305.576 153.068 307.224 155.244 307.224ZM155.564 305.992C154.044 305.992 153.18 304.744 153.18 302.664C153.18 300.68 154.284 299.32 155.676 299.32C156.396 299.32 157.068 299.576 157.804 300.248V304.808C157.084 305.592 156.38 305.992 155.564 305.992Z" fill="black"/>
<rect x="216" y="281" width="172" height="38" fill="#FFFDFD" stroke="black" stroke-width="2"/>
<path d="M243.032 307.224C244.552 307.224 245.688 306.616 246.616 305.528L245.816 304.6C245.064 305.432 244.2 305.912 243.096 305.912C240.856 305.912 239.448 304.072 239.448 301.112C239.448 298.184 240.92 296.36 243.144 296.36C244.136 296.36 244.92 296.808 245.528 297.464L246.344 296.504C245.656 295.752 244.552 295.064 243.128 295.064C240.152 295.064 237.928 297.368 237.928 301.144C237.928 304.952 240.104 307.224 243.032 307.224ZM250.984 307.224C252.184 307.224 253.048 306.584 253.864 305.64H253.896L254.024 307H255.224V298.312H253.768V304.488C252.952 305.512 252.312 305.944 251.432 305.944C250.28 305.944 249.784 305.256 249.784 303.64V298.312H248.328V303.816C248.328 306.04 249.16 307.224 250.984 307.224ZM259.711 307.224C260.111 307.224 260.335 307.16 260.543 307.096L260.351 305.976C260.175 306.008 260.111 306.008 260.047 306.008C259.823 306.008 259.631 305.832 259.631 305.368V294.28H258.175V305.272C258.175 306.52 258.607 307.224 259.711 307.224ZM265.25 307.224C266.45 307.224 267.314 306.584 268.13 305.64H268.162L268.29 307H269.49V298.312H268.034V304.488C267.218 305.512 266.578 305.944 265.698 305.944C264.546 305.944 264.05 305.256 264.05 303.64V298.312H262.594V303.816C262.594 306.04 263.426 307.224 265.25 307.224ZM272.441 307H273.897V300.696C274.681 299.816 275.417 299.368 276.073 299.368C277.193 299.368 277.705 300.056 277.705 301.688V307H279.161V300.696C279.977 299.816 280.665 299.368 281.337 299.368C282.457 299.368 282.969 300.056 282.969 301.688V307H284.425V301.496C284.425 299.288 283.561 298.104 281.785 298.104C280.729 298.104 279.817 298.792 278.905 299.752C278.569 298.728 277.849 298.104 276.521 298.104C275.481 298.104 274.569 298.76 273.817 299.576H273.769L273.625 298.312H272.441V307ZM287.253 307H288.709V300.696C289.573 299.832 290.197 299.368 291.077 299.368C292.229 299.368 292.725 300.056 292.725 301.688V307H294.197V301.496C294.197 299.288 293.365 298.104 291.541 298.104C290.341 298.104 289.445 298.76 288.629 299.576H288.581L288.437 298.312H287.253V307ZM296.283 303.096H300.379V301.976H296.283V303.096ZM307.03 307.224C309.974 307.224 312.022 304.856 312.022 301.096C312.022 297.352 309.974 295.064 307.03 295.064C304.07 295.064 302.022 297.336 302.022 301.096C302.022 304.856 304.07 307.224 307.03 307.224ZM307.03 305.912C304.918 305.912 303.542 304.024 303.542 301.096C303.542 298.168 304.918 296.36 307.03 296.36C309.126 296.36 310.518 298.168 310.518 301.096C310.518 304.024 309.126 305.912 307.03 305.912ZM314.441 307H315.897V301.432C316.473 299.944 317.369 299.416 318.089 299.416C318.441 299.416 318.633 299.464 318.937 299.56L319.209 298.28C318.921 298.152 318.665 298.104 318.281 298.104C317.305 298.104 316.409 298.792 315.817 299.896H315.769L315.625 298.312H314.441V307ZM320.644 307H322.1V298.312H320.644V307ZM321.38 296.52C321.94 296.52 322.356 296.152 322.356 295.544C322.356 294.984 321.94 294.616 321.38 294.616C320.804 294.616 320.404 294.984 320.404 295.544C320.404 296.152 320.804 296.52 321.38 296.52ZM328.554 307.224C329.738 307.224 330.65 306.824 331.418 306.328L330.89 305.352C330.25 305.784 329.562 306.056 328.73 306.056C327.066 306.056 325.946 304.856 325.834 303.016H331.69C331.738 302.792 331.754 302.488 331.754 302.184C331.754 299.688 330.506 298.104 328.298 298.104C326.298 298.104 324.394 299.848 324.394 302.68C324.394 305.528 326.234 307.224 328.554 307.224ZM325.818 301.96C326.01 300.248 327.098 299.272 328.314 299.272C329.69 299.272 330.474 300.216 330.474 301.96H325.818ZM333.91 307H335.366V300.696C336.23 299.832 336.854 299.368 337.734 299.368C338.886 299.368 339.382 300.056 339.382 301.688V307H340.854V301.496C340.854 299.288 340.022 298.104 338.198 298.104C336.998 298.104 336.102 298.76 335.286 299.576H335.238L335.094 298.312H333.91V307ZM346.395 307.224C346.939 307.224 347.515 307.064 347.995 306.888L347.707 305.8C347.435 305.912 347.035 306.04 346.731 306.04C345.723 306.04 345.387 305.416 345.387 304.36V299.496H347.739V298.312H345.387V295.864H344.155L343.995 298.312L342.635 298.408V299.496H343.931V304.328C343.931 306.056 344.539 307.224 346.395 307.224ZM352.929 307.224C354.113 307.224 355.025 306.824 355.793 306.328L355.265 305.352C354.625 305.784 353.937 306.056 353.105 306.056C351.441 306.056 350.321 304.856 350.209 303.016H356.065C356.113 302.792 356.129 302.488 356.129 302.184C356.129 299.688 354.881 298.104 352.673 298.104C350.673 298.104 348.769 299.848 348.769 302.68C348.769 305.528 350.609 307.224 352.929 307.224ZM350.193 301.96C350.385 300.248 351.473 299.272 352.689 299.272C354.065 299.272 354.849 300.216 354.849 301.96H350.193ZM361.229 307.224C362.285 307.224 363.197 306.664 363.885 305.976H363.917L364.045 307H365.245V294.28H363.789V297.608L363.853 299.112C363.101 298.472 362.429 298.104 361.421 298.104C359.437 298.104 357.645 299.848 357.645 302.68C357.645 305.576 359.053 307.224 361.229 307.224ZM361.549 305.992C360.029 305.992 359.164 304.744 359.164 302.664C359.164 300.68 360.269 299.32 361.661 299.32C362.381 299.32 363.053 299.576 363.789 300.248V304.808C363.069 305.592 362.365 305.992 361.549 305.992Z" fill="black"/>
<rect x="454" y="281" width="149" height="38" fill="#FFFDFD" stroke="black" stroke-width="2"/>
<path d="M483.032 307.224C484.552 307.224 485.688 306.616 486.616 305.528L485.816 304.6C485.064 305.432 484.2 305.912 483.096 305.912C480.856 305.912 479.448 304.072 479.448 301.112C479.448 298.184 480.92 296.36 483.144 296.36C484.136 296.36 484.92 296.808 485.528 297.464L486.344 296.504C485.656 295.752 484.552 295.064 483.128 295.064C480.152 295.064 477.928 297.368 477.928 301.144C477.928 304.952 480.104 307.224 483.032 307.224ZM490.984 307.224C492.184 307.224 493.048 306.584 493.864 305.64H493.896L494.024 307H495.224V298.312H493.768V304.488C492.952 305.512 492.312 305.944 491.432 305.944C490.28 305.944 489.784 305.256 489.784 303.64V298.312H488.328V303.816C488.328 306.04 489.16 307.224 490.984 307.224ZM499.711 307.224C500.111 307.224 500.335 307.16 500.543 307.096L500.351 305.976C500.175 306.008 500.111 306.008 500.047 306.008C499.823 306.008 499.631 305.832 499.631 305.368V294.28H498.175V305.272C498.175 306.52 498.607 307.224 499.711 307.224ZM505.25 307.224C506.45 307.224 507.314 306.584 508.13 305.64H508.162L508.29 307H509.49V298.312H508.034V304.488C507.218 305.512 506.578 305.944 505.698 305.944C504.546 305.944 504.05 305.256 504.05 303.64V298.312H502.594V303.816C502.594 306.04 503.426 307.224 505.25 307.224ZM512.441 307H513.897V300.696C514.681 299.816 515.417 299.368 516.073 299.368C517.193 299.368 517.705 300.056 517.705 301.688V307H519.161V300.696C519.977 299.816 520.665 299.368 521.337 299.368C522.457 299.368 522.969 300.056 522.969 301.688V307H524.425V301.496C524.425 299.288 523.561 298.104 521.785 298.104C520.729 298.104 519.817 298.792 518.905 299.752C518.569 298.728 517.849 298.104 516.521 298.104C515.481 298.104 514.569 298.76 513.817 299.576H513.769L513.625 298.312H512.441V307ZM527.253 307H528.709V300.696C529.573 299.832 530.197 299.368 531.077 299.368C532.229 299.368 532.725 300.056 532.725 301.688V307H534.197V301.496C534.197 299.288 533.365 298.104 531.541 298.104C530.341 298.104 529.445 298.76 528.629 299.576H528.581L528.437 298.312H527.253V307ZM536.283 303.096H540.379V301.976H536.283V303.096ZM542.79 307H544.246V296.952C544.246 295.816 544.646 295.24 545.478 295.24C545.798 295.24 546.134 295.32 546.47 295.464L546.774 294.344C546.374 294.184 545.862 294.056 545.334 294.056C543.606 294.056 542.79 295.176 542.79 296.92V307ZM541.606 299.496H546.102V298.312H542.87L541.606 298.408V299.496ZM549.363 307.224C550.435 307.224 551.411 306.664 552.227 305.976H552.291L552.419 307H553.619V301.672C553.619 299.512 552.723 298.104 550.595 298.104C549.203 298.104 547.987 298.712 547.187 299.224L547.763 300.248C548.435 299.784 549.347 299.304 550.371 299.304C551.795 299.304 552.147 300.376 552.147 301.496C548.451 301.912 546.819 302.856 546.819 304.744C546.819 306.312 547.907 307.224 549.363 307.224ZM549.763 306.04C548.915 306.04 548.243 305.64 548.243 304.648C548.243 303.528 549.219 302.808 552.147 302.472V304.888C551.315 305.64 550.611 306.04 549.763 306.04ZM556.378 307H557.834V300.696C558.618 299.816 559.354 299.368 560.01 299.368C561.13 299.368 561.642 300.056 561.642 301.688V307H563.098V300.696C563.914 299.816 564.602 299.368 565.274 299.368C566.394 299.368 566.906 300.056 566.906 301.688V307H568.362V301.496C568.362 299.288 567.498 298.104 565.722 298.104C564.666 298.104 563.754 298.792 562.842 299.752C562.506 298.728 561.786 298.104 560.458 298.104C559.418 298.104 558.506 298.76 557.754 299.576H557.706L557.562 298.312H556.378V307ZM571.191 307H572.647V298.312H571.191V307ZM571.927 296.52C572.487 296.52 572.903 296.152 572.903 295.544C572.903 294.984 572.487 294.616 571.927 294.616C571.351 294.616 570.951 294.984 570.951 295.544C570.951 296.152 571.351 296.52 571.927 296.52ZM577.133 307.224C577.533 307.224 577.757 307.16 577.965 307.096L577.773 305.976C577.597 306.008 577.533 306.008 577.469 306.008C577.245 306.008 577.053 305.832 577.053 305.368V294.28H575.597V305.272C575.597 306.52 576.029 307.224 577.133 307.224ZM580.272 310.76C582.016 310.76 582.912 309.448 583.52 307.736L586.8 298.312H585.376L583.808 303.144C583.584 303.928 583.328 304.792 583.088 305.592H583.008C582.72 304.792 582.432 303.912 582.16 303.144L580.384 298.312H578.88L582.368 307.016L582.176 307.672C581.808 308.744 581.184 309.544 580.208 309.544C579.968 309.544 579.712 309.48 579.552 309.416L579.264 310.584C579.536 310.696 579.872 310.76 580.272 310.76Z" fill="black"/>
<rect x="393" y="169" width="126" height="37" fill="#FFFDFD" stroke="black" stroke-width="2"/>
<path d="M413.208 195.224C414.792 195.224 416.072 194.648 416.84 193.864V188.936H412.984V190.168H415.464V193.24C415.016 193.656 414.2 193.912 413.352 193.912C410.84 193.912 409.448 192.072 409.448 189.112C409.448 186.184 410.968 184.36 413.336 184.36C414.52 184.36 415.272 184.856 415.864 185.464L416.68 184.504C415.992 183.8 414.92 183.064 413.304 183.064C410.2 183.064 407.928 185.368 407.928 189.144C407.928 192.952 410.136 195.224 413.208 195.224ZM419.503 195H420.959V189.432C421.535 187.944 422.431 187.416 423.151 187.416C423.503 187.416 423.695 187.464 423.999 187.56L424.271 186.28C423.983 186.152 423.727 186.104 423.343 186.104C422.367 186.104 421.471 186.792 420.879 187.896H420.831L420.687 186.312H419.503V195ZM427.238 195.224C428.31 195.224 429.286 194.664 430.102 193.976H430.166L430.294 195H431.494V189.672C431.494 187.512 430.598 186.104 428.47 186.104C427.078 186.104 425.862 186.712 425.062 187.224L425.638 188.248C426.31 187.784 427.222 187.304 428.246 187.304C429.67 187.304 430.022 188.376 430.022 189.496C426.326 189.912 424.694 190.856 424.694 192.744C424.694 194.312 425.782 195.224 427.238 195.224ZM427.638 194.04C426.79 194.04 426.118 193.64 426.118 192.648C426.118 191.528 427.094 190.808 430.022 190.472V192.888C429.19 193.64 428.486 194.04 427.638 194.04ZM437.181 199C439.853 199 441.565 197.624 441.565 196.008C441.565 194.568 440.557 193.944 438.541 193.944H436.845C435.677 193.944 435.309 193.544 435.309 192.984C435.309 192.52 435.565 192.216 435.869 191.96C436.269 192.152 436.749 192.248 437.165 192.248C438.941 192.248 440.349 191.096 440.349 189.24C440.349 188.488 440.061 187.848 439.645 187.448H441.421V186.312H438.397C438.093 186.2 437.661 186.104 437.165 186.104C435.405 186.104 433.901 187.288 433.901 189.208C433.901 190.248 434.477 191.08 435.053 191.544V191.608C434.589 191.928 434.077 192.488 434.077 193.208C434.077 193.896 434.413 194.36 434.861 194.648V194.712C434.061 195.224 433.581 195.944 433.581 196.68C433.581 198.168 435.053 199 437.181 199ZM437.165 191.272C436.157 191.272 435.309 190.456 435.309 189.208C435.309 187.912 436.141 187.16 437.165 187.16C438.189 187.16 439.021 187.928 439.021 189.208C439.021 190.456 438.173 191.272 437.165 191.272ZM437.373 198.008C435.805 198.008 434.861 197.416 434.861 196.472C434.861 195.976 435.117 195.448 435.741 195C436.141 195.112 436.541 195.144 436.877 195.144H438.381C439.517 195.144 440.141 195.416 440.141 196.232C440.141 197.128 439.053 198.008 437.373 198.008ZM443.285 195H444.741V188.696C445.605 187.832 446.229 187.368 447.109 187.368C448.261 187.368 448.757 188.056 448.757 189.688V195H450.229V189.496C450.229 187.288 449.397 186.104 447.573 186.104C446.373 186.104 445.493 186.76 444.693 187.544L444.741 185.752V182.28H443.285V195ZM452.267 191.096H456.363V189.976H452.267V191.096ZM462.358 195.224C464.358 195.224 466.134 193.496 466.134 190.52C466.134 187.848 464.918 186.104 462.678 186.104C461.702 186.104 460.742 186.632 459.942 187.32L460.006 185.752V182.28H458.55V195H459.702L459.846 194.104H459.894C460.646 194.808 461.558 195.224 462.358 195.224ZM462.134 193.992C461.558 193.992 460.758 193.752 460.006 193.096V188.52C460.822 187.736 461.59 187.32 462.326 187.32C463.974 187.32 464.63 188.616 464.63 190.552C464.63 192.696 463.558 193.992 462.134 193.992ZM470.144 195.224C471.216 195.224 472.192 194.664 473.008 193.976H473.072L473.2 195H474.4V189.672C474.4 187.512 473.504 186.104 471.376 186.104C469.984 186.104 468.768 186.712 467.968 187.224L468.544 188.248C469.216 187.784 470.128 187.304 471.152 187.304C472.576 187.304 472.928 188.376 472.928 189.496C469.232 189.912 467.6 190.856 467.6 192.744C467.6 194.312 468.688 195.224 470.144 195.224ZM470.544 194.04C469.696 194.04 469.024 193.64 469.024 192.648C469.024 191.528 470 190.808 472.928 190.472V192.888C472.096 193.64 471.392 194.04 470.544 194.04ZM479.432 195.224C481.48 195.224 482.584 194.056 482.584 192.632C482.584 190.984 481.208 190.472 479.944 189.992C478.952 189.64 478.072 189.32 478.072 188.488C478.072 187.816 478.568 187.24 479.672 187.24C480.44 187.24 481.064 187.576 481.656 188.008L482.36 187.08C481.688 186.536 480.728 186.104 479.656 186.104C477.768 186.104 476.664 187.176 476.664 188.552C476.664 190.04 477.992 190.616 479.192 191.08C480.152 191.432 481.192 191.832 481.192 192.712C481.192 193.48 480.616 194.088 479.464 194.088C478.424 194.088 477.656 193.656 476.904 193.048L476.184 194.024C477 194.696 478.2 195.224 479.432 195.224ZM488.148 195.224C489.332 195.224 490.244 194.824 491.012 194.328L490.484 193.352C489.844 193.784 489.156 194.056 488.324 194.056C486.66 194.056 485.54 192.856 485.428 191.016H491.284C491.332 190.792 491.348 190.488 491.348 190.184C491.348 187.688 490.1 186.104 487.892 186.104C485.892 186.104 483.988 187.848 483.988 190.68C483.988 193.528 485.828 195.224 488.148 195.224ZM485.412 189.96C485.604 188.248 486.692 187.272 487.908 187.272C489.284 187.272 490.068 188.216 490.068 189.96H485.412ZM496.447 195.224C497.503 195.224 498.415 194.664 499.103 193.976H499.135L499.263 195H500.463V182.28H499.007V185.608L499.071 187.112C498.319 186.472 497.647 186.104 496.639 186.104C494.655 186.104 492.863 187.848 492.863 190.68C492.863 193.576 494.271 195.224 496.447 195.224ZM496.767 193.992C495.247 193.992 494.383 192.744 494.383 190.664C494.383 188.68 495.487 187.32 496.879 187.32C497.599 187.32 498.271 187.576 499.007 188.248V192.808C498.287 193.592 497.583 193.992 496.767 193.992Z" fill="black"/>
<rect x="316" y="77" width="91" height="37" fill="#FFFDFD" stroke="black" stroke-width="2"/>
<path d="M337.6 103H339.008V96.856C339.008 95.608 338.896 94.376 338.816 93.192H338.896L340.16 95.608L344.416 103H345.952V91.272H344.528V97.368C344.528 98.584 344.64 99.912 344.736 101.096H344.656L343.392 98.664L339.12 91.272H337.6V103ZM352.411 103.224C354.539 103.224 356.427 101.544 356.427 98.68C356.427 95.768 354.539 94.104 352.411 94.104C350.267 94.104 348.379 95.768 348.379 98.68C348.379 101.544 350.267 103.224 352.411 103.224ZM352.411 102.008C350.891 102.008 349.883 100.664 349.883 98.68C349.883 96.664 350.891 95.32 352.411 95.32C353.915 95.32 354.923 96.664 354.923 98.68C354.923 100.664 353.915 102.008 352.411 102.008ZM362.114 103.224C364.578 103.224 366.098 101.752 366.098 99.896C366.098 98.152 365.058 97.336 363.682 96.744L362.018 96.024C361.106 95.64 360.082 95.224 360.082 94.072C360.082 93.032 360.946 92.36 362.274 92.36C363.346 92.36 364.21 92.792 364.93 93.464L365.714 92.52C364.898 91.656 363.666 91.064 362.274 91.064C360.13 91.064 358.578 92.376 358.578 94.184C358.578 95.896 359.858 96.728 360.962 97.192L362.642 97.928C363.746 98.408 364.594 98.792 364.594 100.008C364.594 101.144 363.682 101.912 362.146 101.912C360.93 101.912 359.746 101.352 358.898 100.456L358.018 101.48C359.042 102.552 360.466 103.224 362.114 103.224ZM372.733 103.224C375.677 103.224 377.725 100.856 377.725 97.096C377.725 93.352 375.677 91.064 372.733 91.064C369.773 91.064 367.725 93.336 367.725 97.096C367.725 100.856 369.773 103.224 372.733 103.224ZM372.733 101.992C370.621 101.992 369.245 100.104 369.245 97.096C369.245 94.168 370.621 92.36 372.733 92.36C374.829 92.36 376.221 94.168 376.221 97.096C376.221 100.104 374.829 101.992 372.733 101.992ZM376.317 105.96C377.021 105.96 377.629 105.832 377.997 105.688L377.709 104.536C377.389 104.648 377.005 104.712 376.477 104.712C375.085 104.712 373.933 104.088 373.469 102.856L371.933 102.968C372.557 104.68 374.077 105.96 376.317 105.96ZM380.272 103H386.88V101.752H381.76V91.272H380.272V103Z" fill="black"/>
<path d="M185.808 382H188.176V372.128H191.52V370.16H182.464V372.128H185.808V382ZM193.47 385.6C195.486 385.6 196.446 384.384 197.23 382.288L200.414 373.056H198.158L196.91 377.2C196.702 378.048 196.478 378.896 196.286 379.744H196.206C195.934 378.88 195.71 378.016 195.438 377.2L194.03 373.056H191.646L195.134 381.84L194.99 382.368C194.718 383.168 194.206 383.744 193.31 383.744C193.086 383.744 192.846 383.664 192.686 383.616L192.254 385.424C192.59 385.536 192.958 385.6 193.47 385.6ZM201.889 385.44H204.241V382.72L204.161 381.264C204.833 381.888 205.601 382.224 206.369 382.224C208.337 382.224 210.177 380.464 210.177 377.392C210.177 374.624 208.865 372.832 206.657 372.832C205.697 372.832 204.769 373.328 204.033 373.984H203.985L203.793 373.056H201.889V385.44ZM205.857 380.288C205.377 380.288 204.801 380.128 204.241 379.632V375.68C204.849 375.056 205.393 374.752 205.985 374.752C207.233 374.752 207.761 375.696 207.761 377.424C207.761 379.36 206.929 380.288 205.857 380.288ZM216.09 382.224C217.194 382.224 218.314 381.856 219.194 381.248L218.41 379.792C217.754 380.192 217.114 380.416 216.394 380.416C215.066 380.416 214.106 379.664 213.898 378.192H219.434C219.482 377.968 219.53 377.552 219.53 377.104C219.53 374.624 218.266 372.832 215.786 372.832C213.674 372.832 211.626 374.624 211.626 377.536C211.626 380.496 213.578 382.224 216.09 382.224ZM213.866 376.624C214.058 375.312 214.89 374.64 215.834 374.64C216.986 374.64 217.53 375.408 217.53 376.624H213.866ZM224.043 382.224C226.363 382.224 227.595 380.976 227.595 379.392C227.595 377.744 226.299 377.136 225.115 376.688C224.155 376.352 223.339 376.096 223.339 375.456C223.339 374.928 223.707 374.576 224.523 374.576C225.179 374.576 225.819 374.896 226.443 375.344L227.515 373.936C226.779 373.36 225.755 372.832 224.459 372.832C222.411 372.832 221.131 373.968 221.131 375.552C221.131 377.072 222.395 377.744 223.531 378.192C224.459 378.544 225.403 378.864 225.403 379.52C225.403 380.08 224.987 380.48 224.091 380.48C223.259 380.48 222.507 380.112 221.691 379.488L220.635 380.976C221.515 381.712 222.843 382.224 224.043 382.224ZM236.774 382.224C239.014 382.224 241.062 380.496 241.062 377.536C241.062 374.56 239.014 372.832 236.774 372.832C234.518 372.832 232.47 374.56 232.47 377.536C232.47 380.496 234.518 382.224 236.774 382.224ZM236.774 380.32C235.542 380.32 234.87 379.216 234.87 377.536C234.87 375.84 235.542 374.752 236.774 374.752C237.99 374.752 238.662 375.84 238.662 377.536C238.662 379.216 237.99 380.32 236.774 380.32ZM243.273 382H245.625V372.288C245.625 371.296 246.009 370.864 246.713 370.864C247.017 370.864 247.353 370.944 247.657 371.072L248.105 369.312C247.705 369.168 247.097 369.024 246.393 369.024C244.153 369.024 243.273 370.464 243.273 372.32V382ZM242.073 374.896H247.321V373.056H243.417L242.073 373.152V374.896ZM252.659 382H256.035C259.523 382 261.747 380.016 261.747 376.032C261.747 372.032 259.523 370.16 255.907 370.16H252.659V382ZM255.027 380.096V372.048H255.747C257.971 372.048 259.331 373.152 259.331 376.032C259.331 378.912 257.971 380.096 255.747 380.096H255.027ZM266.081 382.224C267.105 382.224 268.001 381.728 268.785 381.056H268.849L269.025 382H270.945V376.784C270.945 374.176 269.777 372.832 267.505 372.832C266.081 372.832 264.817 373.36 263.761 374L264.609 375.568C265.425 375.072 266.241 374.72 267.073 374.72C268.177 374.72 268.545 375.376 268.593 376.256C264.993 376.656 263.441 377.664 263.441 379.568C263.441 381.104 264.481 382.224 266.081 382.224ZM266.849 380.384C266.161 380.384 265.681 380.08 265.681 379.392C265.681 378.576 266.401 377.984 268.593 377.712V379.52C268.017 380.08 267.521 380.384 266.849 380.384ZM276.216 382.224C277.016 382.224 277.64 382.048 278.12 381.888L277.736 380.176C277.48 380.272 277.144 380.384 276.84 380.384C276.056 380.384 275.624 379.904 275.624 378.88V374.896H277.848V373.056H275.624V370.624H273.672L273.416 373.056L272.024 373.152V374.896H273.272V378.88C273.272 380.88 274.088 382.224 276.216 382.224ZM281.394 382.224C282.418 382.224 283.314 381.728 284.098 381.056H284.162L284.338 382H286.258V376.784C286.258 374.176 285.09 372.832 282.818 372.832C281.394 372.832 280.13 373.36 279.074 374L279.922 375.568C280.738 375.072 281.554 374.72 282.386 374.72C283.49 374.72 283.858 375.376 283.906 376.256C280.306 376.656 278.754 377.664 278.754 379.568C278.754 381.104 279.794 382.224 281.394 382.224ZM282.161 380.384C281.474 380.384 280.994 380.08 280.994 379.392C280.994 378.576 281.714 377.984 283.906 377.712V379.52C283.33 380.08 282.834 380.384 282.161 380.384ZM293.135 382.224C295.103 382.224 296.943 380.464 296.943 377.376C296.943 374.624 295.615 372.832 293.423 372.832C292.527 372.832 291.647 373.264 290.927 373.888L291.007 372.464V369.248H288.655V382H290.495L290.687 381.056H290.751C291.471 381.808 292.335 382.224 293.135 382.224ZM292.623 380.288C292.143 380.288 291.551 380.128 291.007 379.632V375.68C291.599 375.056 292.159 374.752 292.751 374.752C293.999 374.752 294.527 375.696 294.527 377.424C294.527 379.36 293.695 380.288 292.623 380.288ZM300.831 382.224C301.855 382.224 302.751 381.728 303.535 381.056H303.599L303.775 382H305.695V376.784C305.695 374.176 304.527 372.832 302.255 372.832C300.831 372.832 299.567 373.36 298.511 374L299.359 375.568C300.175 375.072 300.991 374.72 301.823 374.72C302.927 374.72 303.295 375.376 303.343 376.256C299.743 376.656 298.191 377.664 298.191 379.568C298.191 381.104 299.231 382.224 300.831 382.224ZM301.599 380.384C300.911 380.384 300.431 380.08 300.431 379.392C300.431 378.576 301.151 377.984 303.343 377.712V379.52C302.767 380.08 302.271 380.384 301.599 380.384ZM310.652 382.224C312.972 382.224 314.204 380.976 314.204 379.392C314.204 377.744 312.908 377.136 311.724 376.688C310.764 376.352 309.948 376.096 309.948 375.456C309.948 374.928 310.316 374.576 311.132 374.576C311.788 374.576 312.428 374.896 313.052 375.344L314.124 373.936C313.388 373.36 312.364 372.832 311.068 372.832C309.02 372.832 307.74 373.968 307.74 375.552C307.74 377.072 309.004 377.744 310.14 378.192C311.068 378.544 312.012 378.864 312.012 379.52C312.012 380.08 311.596 380.48 310.7 380.48C309.868 380.48 309.116 380.112 308.3 379.488L307.244 380.976C308.124 381.712 309.452 382.224 310.652 382.224ZM319.918 382.224C321.022 382.224 322.142 381.856 323.022 381.248L322.238 379.792C321.582 380.192 320.942 380.416 320.222 380.416C318.894 380.416 317.934 379.664 317.726 378.192H323.262C323.31 377.968 323.358 377.552 323.358 377.104C323.358 374.624 322.094 372.832 319.614 372.832C317.502 372.832 315.454 374.624 315.454 377.536C315.454 380.496 317.406 382.224 319.918 382.224ZM317.694 376.624C317.886 375.312 318.718 374.64 319.662 374.64C320.814 374.64 321.358 375.408 321.358 376.624H317.694ZM332.728 382.224C333.72 382.224 334.824 381.888 335.672 381.152L334.744 379.6C334.248 380 333.64 380.32 332.984 380.32C331.704 380.32 330.776 379.216 330.776 377.536C330.776 375.84 331.688 374.752 333.08 374.752C333.56 374.752 333.992 374.944 334.44 375.328L335.544 373.824C334.888 373.248 334.056 372.832 332.936 372.832C330.504 372.832 328.376 374.56 328.376 377.536C328.376 380.496 330.264 382.224 332.728 382.224ZM339.3 382.224C340.324 382.224 341.22 381.728 342.004 381.056H342.068L342.244 382H344.164V376.784C344.164 374.176 342.996 372.832 340.724 372.832C339.3 372.832 338.036 373.36 336.98 374L337.828 375.568C338.644 375.072 339.46 374.72 340.292 374.72C341.396 374.72 341.764 375.376 341.812 376.256C338.212 376.656 336.66 377.664 336.66 379.568C336.66 381.104 337.7 382.224 339.3 382.224ZM340.068 380.384C339.38 380.384 338.9 380.08 338.9 379.392C338.9 378.576 339.62 377.984 341.812 377.712V379.52C341.236 380.08 340.74 380.384 340.068 380.384ZM349.434 382.224C350.234 382.224 350.858 382.048 351.338 381.888L350.954 380.176C350.698 380.272 350.362 380.384 350.058 380.384C349.274 380.384 348.842 379.904 348.842 378.88V374.896H351.066V373.056H348.842V370.624H346.89L346.634 373.056L345.242 373.152V374.896H346.49V378.88C346.49 380.88 347.306 382.224 349.434 382.224ZM356.418 382.224C357.522 382.224 358.642 381.856 359.522 381.248L358.738 379.792C358.082 380.192 357.442 380.416 356.722 380.416C355.394 380.416 354.434 379.664 354.226 378.192H359.762C359.81 377.968 359.858 377.552 359.858 377.104C359.858 374.624 358.594 372.832 356.114 372.832C354.002 372.832 351.954 374.624 351.954 377.536C351.954 380.496 353.906 382.224 356.418 382.224ZM354.194 376.624C354.386 375.312 355.218 374.64 356.162 374.64C357.314 374.64 357.858 375.408 357.858 376.624H354.194ZM364.681 385.888C367.673 385.888 369.577 384.528 369.577 382.72C369.577 381.136 368.393 380.48 366.233 380.48H364.697C363.657 380.48 363.289 380.208 363.289 379.744C363.289 379.376 363.433 379.184 363.673 378.96C364.073 379.104 364.473 379.168 364.825 379.168C366.761 379.168 368.297 378.16 368.297 376.128C368.297 375.584 368.121 375.088 367.881 374.784H369.417V373.056H366.185C365.817 372.912 365.337 372.832 364.825 372.832C362.937 372.832 361.209 373.952 361.209 376.064C361.209 377.12 361.801 377.968 362.425 378.416V378.48C361.865 378.864 361.417 379.472 361.417 380.144C361.417 380.88 361.769 381.36 362.233 381.664V381.744C361.401 382.192 360.953 382.848 360.953 383.6C360.953 385.168 362.585 385.888 364.681 385.888ZM364.825 377.728C364.041 377.728 363.417 377.12 363.417 376.064C363.417 375.008 364.041 374.432 364.825 374.432C365.625 374.432 366.233 375.008 366.233 376.064C366.233 377.12 365.609 377.728 364.825 377.728ZM365.049 384.4C363.737 384.4 362.905 383.984 362.905 383.232C362.905 382.864 363.081 382.512 363.497 382.176C363.817 382.272 364.185 382.304 364.729 382.304H365.817C366.777 382.304 367.305 382.48 367.305 383.12C367.305 383.808 366.393 384.4 365.049 384.4ZM374.446 382.224C376.686 382.224 378.734 380.496 378.734 377.536C378.734 374.56 376.686 372.832 374.446 372.832C372.19 372.832 370.142 374.56 370.142 377.536C370.142 380.496 372.19 382.224 374.446 382.224ZM374.446 380.32C373.214 380.32 372.542 379.216 372.542 377.536C372.542 375.84 373.214 374.752 374.446 374.752C375.662 374.752 376.334 375.84 376.334 377.536C376.334 379.216 375.662 380.32 374.446 380.32ZM380.717 382H383.069V376.672C383.565 375.376 384.413 374.896 385.101 374.896C385.485 374.896 385.725 374.96 386.045 375.04L386.445 373.024C386.173 372.896 385.885 372.832 385.405 372.832C384.477 372.832 383.501 373.456 382.861 374.64H382.813L382.621 373.056H380.717V382ZM388.61 385.6C390.626 385.6 391.586 384.384 392.37 382.288L395.554 373.056H393.298L392.05 377.2C391.842 378.048 391.618 378.896 391.426 379.744H391.346C391.074 378.88 390.85 378.016 390.578 377.2L389.17 373.056H386.786L390.274 381.84L390.13 382.368C389.858 383.168 389.346 383.744 388.45 383.744C388.226 383.744 387.986 383.664 387.826 383.616L387.394 385.424C387.73 385.536 388.098 385.6 388.61 385.6Z" fill="black"/>
<line x1="253.471" y1="44.8824" x2="193.471" y2="76.8824" stroke="black" stroke-width="2"/>
<line x1="360.687" y1="76.9497" x2="263.687" y2="44.9497" stroke="black" stroke-width="2"/>
<line x1="362.461" y1="115.887" x2="260.461" y2="168.887" stroke="black" stroke-width="2"/>
<line x1="259.385" y1="207.923" x2="84.385" y2="280.923" stroke="black" stroke-width="2"/>
<line x1="259.259" y1="206.034" x2="531.259" y2="279.034" stroke="black" stroke-width="2"/>
<line x1="259.846" y1="206.467" x2="305.846" y2="279.467" stroke="black" stroke-width="2"/>
<line x1="458.501" y1="168.866" x2="366.501" y2="115.867" stroke="black" stroke-width="2"/>
</svg>
