<svg width="550" height="397" viewBox="0 0 550 397" fill="none" xmlns="http://www.w3.org/2000/svg">
<path d="M167.544 392.224C169.176 392.224 170.584 391.6 171.384 390.8V385.472H167.16V387.408H169.272V389.744C168.936 390.016 168.36 390.176 167.784 390.176C165.464 390.176 164.28 388.64 164.28 386.048C164.28 383.52 165.64 381.984 167.624 381.984C168.68 381.984 169.352 382.416 169.944 382.976L171.192 381.456C170.424 380.688 169.24 379.952 167.544 379.952C164.392 379.952 161.864 382.224 161.864 386.128C161.864 390.08 164.328 392.224 167.544 392.224ZM173.733 392H176.085V386.672C176.581 385.376 177.429 384.896 178.117 384.896C178.501 384.896 178.741 384.96 179.061 385.04L179.461 383.024C179.189 382.896 178.901 382.832 178.421 382.832C177.493 382.832 176.517 383.456 175.877 384.64H175.829L175.637 383.056H173.733V392ZM182.331 392.224C183.355 392.224 184.251 391.728 185.035 391.056H185.099L185.275 392H187.195V386.784C187.195 384.176 186.027 382.832 183.755 382.832C182.331 382.832 181.067 383.36 180.011 384L180.859 385.568C181.675 385.072 182.491 384.72 183.323 384.72C184.427 384.72 184.795 385.376 184.843 386.256C181.243 386.656 179.691 387.664 179.691 389.568C179.691 391.104 180.731 392.224 182.331 392.224ZM183.099 390.384C182.411 390.384 181.931 390.08 181.931 389.392C181.931 388.576 182.651 387.984 184.843 387.712V389.52C184.267 390.08 183.771 390.384 183.099 390.384ZM192.728 395.888C195.72 395.888 197.624 394.528 197.624 392.72C197.624 391.136 196.44 390.48 194.28 390.48H192.744C191.704 390.48 191.336 390.208 191.336 389.744C191.336 389.376 191.48 389.184 191.72 388.96C192.12 389.104 192.52 389.168 192.872 389.168C194.808 389.168 196.344 388.16 196.344 386.128C196.344 385.584 196.168 385.088 195.928 384.784H197.464V383.056H194.232C193.864 382.912 193.384 382.832 192.872 382.832C190.984 382.832 189.256 383.952 189.256 386.064C189.256 387.12 189.848 387.968 190.472 388.416V388.48C189.912 388.864 189.464 389.472 189.464 390.144C189.464 390.88 189.816 391.36 190.28 391.664V391.744C189.448 392.192 189 392.848 189 393.6C189 395.168 190.632 395.888 192.728 395.888ZM192.872 387.728C192.088 387.728 191.464 387.12 191.464 386.064C191.464 385.008 192.088 384.432 192.872 384.432C193.672 384.432 194.28 385.008 194.28 386.064C194.28 387.12 193.656 387.728 192.872 387.728ZM193.096 394.4C191.784 394.4 190.952 393.984 190.952 393.232C190.952 392.864 191.128 392.512 191.544 392.176C191.864 392.272 192.232 392.304 192.776 392.304H193.864C194.824 392.304 195.352 392.48 195.352 393.12C195.352 393.808 194.44 394.4 193.096 394.4ZM199.139 392H201.491V385.84C202.147 385.2 202.611 384.848 203.347 384.848C204.211 384.848 204.611 385.312 204.611 386.72V392H206.963V386.416C206.963 384.176 206.115 382.832 204.195 382.832C202.979 382.832 202.083 383.472 201.379 384.144L201.491 382.464V379.248H199.139V392ZM216.15 392.224C217.078 392.224 217.974 391.728 218.63 391.072H218.678L218.854 392H220.774V379.248H218.422V382.384L218.518 383.792C217.862 383.2 217.238 382.832 216.23 382.832C214.31 382.832 212.47 384.608 212.47 387.536C212.47 390.48 213.91 392.224 216.15 392.224ZM216.742 390.288C215.574 390.288 214.886 389.376 214.886 387.504C214.886 385.712 215.75 384.752 216.758 384.752C217.318 384.752 217.894 384.944 218.422 385.44V389.376C217.91 390.032 217.382 390.288 216.742 390.288ZM225.487 392.224C226.511 392.224 227.407 391.728 228.191 391.056H228.255L228.431 392H230.351V386.784C230.351 384.176 229.183 382.832 226.911 382.832C225.487 382.832 224.223 383.36 223.167 384L224.015 385.568C224.831 385.072 225.647 384.72 226.479 384.72C227.583 384.72 227.951 385.376 227.999 386.256C224.399 386.656 222.847 387.664 222.847 389.568C222.847 391.104 223.887 392.224 225.487 392.224ZM226.255 390.384C225.567 390.384 225.087 390.08 225.087 389.392C225.087 388.576 225.807 387.984 227.999 387.712V389.52C227.423 390.08 226.927 390.384 226.255 390.384ZM235.622 392.224C236.422 392.224 237.046 392.048 237.526 391.888L237.142 390.176C236.886 390.272 236.55 390.384 236.246 390.384C235.462 390.384 235.03 389.904 235.03 388.88V384.896H237.254V383.056H235.03V380.624H233.078L232.822 383.056L231.43 383.152V384.896H232.678V388.88C232.678 390.88 233.494 392.224 235.622 392.224ZM240.8 392.224C241.824 392.224 242.72 391.728 243.504 391.056H243.568L243.744 392H245.664V386.784C245.664 384.176 244.496 382.832 242.224 382.832C240.8 382.832 239.536 383.36 238.48 384L239.328 385.568C240.144 385.072 240.96 384.72 241.792 384.72C242.896 384.72 243.264 385.376 243.312 386.256C239.712 386.656 238.16 387.664 238.16 389.568C238.16 391.104 239.2 392.224 240.8 392.224ZM241.568 390.384C240.88 390.384 240.4 390.08 240.4 389.392C240.4 388.576 241.12 387.984 243.312 387.712V389.52C242.736 390.08 242.24 390.384 241.568 390.384ZM254.246 392.224C256.566 392.224 257.798 390.976 257.798 389.392C257.798 387.744 256.502 387.136 255.318 386.688C254.358 386.352 253.542 386.096 253.542 385.456C253.542 384.928 253.91 384.576 254.726 384.576C255.382 384.576 256.022 384.896 256.646 385.344L257.718 383.936C256.982 383.36 255.958 382.832 254.662 382.832C252.614 382.832 251.334 383.968 251.334 385.552C251.334 387.072 252.598 387.744 253.734 388.192C254.662 388.544 255.606 388.864 255.606 389.52C255.606 390.08 255.19 390.48 254.294 390.48C253.462 390.48 252.71 390.112 251.894 389.488L250.838 390.976C251.718 391.712 253.046 392.224 254.246 392.224ZM262.419 392.224C263.219 392.224 263.843 392.048 264.323 391.888L263.939 390.176C263.683 390.272 263.347 390.384 263.043 390.384C262.259 390.384 261.827 389.904 261.827 388.88V384.896H264.051V383.056H261.827V380.624H259.875L259.619 383.056L258.227 383.152V384.896H259.475V388.88C259.475 390.88 260.291 392.224 262.419 392.224ZM269.242 392.224C271.482 392.224 273.53 390.496 273.53 387.536C273.53 384.56 271.482 382.832 269.242 382.832C266.986 382.832 264.938 384.56 264.938 387.536C264.938 390.496 266.986 392.224 269.242 392.224ZM269.242 390.32C268.01 390.32 267.338 389.216 267.338 387.536C267.338 385.84 268.01 384.752 269.242 384.752C270.458 384.752 271.13 385.84 271.13 387.536C271.13 389.216 270.458 390.32 269.242 390.32ZM275.514 392H277.866V386.672C278.362 385.376 279.21 384.896 279.898 384.896C280.282 384.896 280.522 384.96 280.842 385.04L281.242 383.024C280.97 382.896 280.682 382.832 280.202 382.832C279.274 382.832 278.298 383.456 277.658 384.64H277.61L277.418 383.056H275.514V392ZM284.112 392.224C285.136 392.224 286.032 391.728 286.816 391.056H286.88L287.056 392H288.976V386.784C288.976 384.176 287.808 382.832 285.536 382.832C284.112 382.832 282.848 383.36 281.792 384L282.64 385.568C283.456 385.072 284.272 384.72 285.104 384.72C286.208 384.72 286.576 385.376 286.624 386.256C283.024 386.656 281.472 387.664 281.472 389.568C281.472 391.104 282.512 392.224 284.112 392.224ZM284.88 390.384C284.192 390.384 283.712 390.08 283.712 389.392C283.712 388.576 284.432 387.984 286.624 387.712V389.52C286.048 390.08 285.552 390.384 284.88 390.384ZM294.509 395.888C297.501 395.888 299.405 394.528 299.405 392.72C299.405 391.136 298.221 390.48 296.061 390.48H294.525C293.485 390.48 293.117 390.208 293.117 389.744C293.117 389.376 293.261 389.184 293.501 388.96C293.901 389.104 294.301 389.168 294.653 389.168C296.589 389.168 298.125 388.16 298.125 386.128C298.125 385.584 297.949 385.088 297.709 384.784H299.245V383.056H296.013C295.645 382.912 295.165 382.832 294.653 382.832C292.765 382.832 291.037 383.952 291.037 386.064C291.037 387.12 291.629 387.968 292.253 388.416V388.48C291.693 388.864 291.245 389.472 291.245 390.144C291.245 390.88 291.597 391.36 292.061 391.664V391.744C291.229 392.192 290.781 392.848 290.781 393.6C290.781 395.168 292.413 395.888 294.509 395.888ZM294.653 387.728C293.869 387.728 293.245 387.12 293.245 386.064C293.245 385.008 293.869 384.432 294.653 384.432C295.453 384.432 296.061 385.008 296.061 386.064C296.061 387.12 295.437 387.728 294.653 387.728ZM294.877 394.4C293.565 394.4 292.733 393.984 292.733 393.232C292.733 392.864 292.909 392.512 293.325 392.176C293.645 392.272 294.013 392.304 294.557 392.304H295.645C296.605 392.304 297.133 392.48 297.133 393.12C297.133 393.808 296.221 394.4 294.877 394.4ZM304.434 392.224C305.538 392.224 306.658 391.856 307.538 391.248L306.754 389.792C306.098 390.192 305.458 390.416 304.738 390.416C303.41 390.416 302.45 389.664 302.242 388.192H307.778C307.826 387.968 307.874 387.552 307.874 387.104C307.874 384.624 306.61 382.832 304.13 382.832C302.018 382.832 299.97 384.624 299.97 387.536C299.97 390.496 301.922 392.224 304.434 392.224ZM302.21 386.624C302.402 385.312 303.234 384.64 304.178 384.64C305.33 384.64 305.874 385.408 305.874 386.624H302.21Z" fill="black"/>
<circle cx="191" cy="71" r="70" stroke="black" stroke-width="2"/>
<path d="M178 34.224C180.896 34.224 182.576 32.608 182.576 28.688V22.16H180.304V28.896C180.304 31.344 179.392 32.176 178 32.176C176.608 32.176 175.744 31.344 175.744 28.896V22.16H173.392V28.688C173.392 32.608 175.104 34.224 178 34.224ZM187.574 34.224C189.894 34.224 191.126 32.976 191.126 31.392C191.126 29.744 189.83 29.136 188.646 28.688C187.686 28.352 186.87 28.096 186.87 27.456C186.87 26.928 187.238 26.576 188.054 26.576C188.71 26.576 189.35 26.896 189.974 27.344L191.046 25.936C190.31 25.36 189.286 24.832 187.99 24.832C185.942 24.832 184.662 25.968 184.662 27.552C184.662 29.072 185.926 29.744 187.062 30.192C187.99 30.544 188.934 30.864 188.934 31.52C188.934 32.08 188.518 32.48 187.622 32.48C186.79 32.48 186.038 32.112 185.222 31.488L184.166 32.976C185.046 33.712 186.374 34.224 187.574 34.224ZM196.84 34.224C197.944 34.224 199.064 33.856 199.944 33.248L199.16 31.792C198.504 32.192 197.864 32.416 197.144 32.416C195.816 32.416 194.856 31.664 194.648 30.192H200.184C200.232 29.968 200.28 29.552 200.28 29.104C200.28 26.624 199.016 24.832 196.536 24.832C194.424 24.832 192.376 26.624 192.376 29.536C192.376 32.496 194.328 34.224 196.84 34.224ZM194.616 28.624C194.808 27.312 195.64 26.64 196.584 26.64C197.736 26.64 198.28 27.408 198.28 28.624H194.616ZM202.233 34H204.585V28.672C205.081 27.376 205.929 26.896 206.617 26.896C207.001 26.896 207.241 26.96 207.561 27.04L207.961 25.024C207.689 24.896 207.401 24.832 206.921 24.832C205.993 24.832 205.017 25.456 204.377 26.64H204.329L204.137 25.056H202.233V34Z" fill="black"/>
<path d="M142 54H245V112H142V54Z" fill="#D9D9D9" fill-opacity="0.28"/>
<path d="M447 34H550V92H447V34Z" fill="#D9D9D9" fill-opacity="0.28"/>
<path d="M468.6 72H470.088V67.344H472.008C474.584 67.344 476.344 66.192 476.344 63.728C476.344 61.152 474.568 60.272 471.944 60.272H468.6V72ZM470.088 66.144V61.488H471.752C473.832 61.488 474.872 62.016 474.872 63.728C474.872 65.392 473.88 66.144 471.832 66.144H470.088ZM478.597 72H480.053V66.432C480.629 64.944 481.525 64.416 482.245 64.416C482.597 64.416 482.789 64.464 483.093 64.56L483.365 63.28C483.077 63.152 482.821 63.104 482.437 63.104C481.461 63.104 480.565 63.792 479.973 64.896H479.925L479.781 63.312H478.597V72ZM487.957 72.224C490.085 72.224 491.973 70.544 491.973 67.68C491.973 64.768 490.085 63.104 487.957 63.104C485.813 63.104 483.925 64.768 483.925 67.68C483.925 70.544 485.813 72.224 487.957 72.224ZM487.957 71.008C486.437 71.008 485.429 69.664 485.429 67.68C485.429 65.664 486.437 64.32 487.957 64.32C489.461 64.32 490.469 65.664 490.469 67.68C490.469 69.664 489.461 71.008 487.957 71.008ZM497.229 72.224C498.285 72.224 499.197 71.664 499.885 70.976H499.917L500.045 72H501.245V59.28H499.789V62.608L499.853 64.112C499.101 63.472 498.429 63.104 497.421 63.104C495.437 63.104 493.645 64.848 493.645 67.68C493.645 70.576 495.053 72.224 497.229 72.224ZM497.549 70.992C496.029 70.992 495.164 69.744 495.164 67.664C495.164 65.68 496.269 64.32 497.661 64.32C498.381 64.32 499.053 64.576 499.789 65.248V69.808C499.069 70.592 498.365 70.992 497.549 70.992ZM506.734 72.224C507.934 72.224 508.798 71.584 509.614 70.64H509.646L509.774 72H510.974V63.312H509.518V69.488C508.702 70.512 508.062 70.944 507.182 70.944C506.03 70.944 505.534 70.256 505.534 68.64V63.312H504.078V68.816C504.078 71.04 504.91 72.224 506.734 72.224ZM517.333 72.224C518.373 72.224 519.381 71.808 520.149 71.12L519.525 70.144C518.981 70.624 518.261 71.008 517.477 71.008C515.877 71.008 514.773 69.664 514.773 67.68C514.773 65.664 515.925 64.32 517.525 64.32C518.197 64.32 518.741 64.624 519.253 65.088L519.989 64.128C519.381 63.568 518.581 63.104 517.445 63.104C515.221 63.104 513.269 64.768 513.269 67.68C513.269 70.544 515.029 72.224 517.333 72.224ZM524.583 72.224C525.127 72.224 525.703 72.064 526.183 71.888L525.895 70.8C525.623 70.912 525.223 71.04 524.919 71.04C523.911 71.04 523.575 70.416 523.575 69.36V64.496H525.927V63.312H523.575V60.864H522.343L522.183 63.312L520.823 63.408V64.496H522.119V69.328C522.119 71.056 522.727 72.224 524.583 72.224Z" fill="black"/>
<path d="M153.6 79H155.008V72.856C155.008 71.608 154.896 70.376 154.816 69.192H154.896L156.16 71.608L160.416 79H161.952V67.272H160.528V73.368C160.528 74.584 160.64 75.912 160.736 77.096H160.656L159.392 74.664L155.12 67.272H153.6V79ZM167.035 79.224C168.107 79.224 169.083 78.664 169.899 77.976H169.963L170.091 79H171.291V73.672C171.291 71.512 170.395 70.104 168.266 70.104C166.875 70.104 165.659 70.712 164.859 71.224L165.435 72.248C166.107 71.784 167.019 71.304 168.043 71.304C169.467 71.304 169.819 72.376 169.819 73.496C166.123 73.912 164.491 74.856 164.491 76.744C164.491 78.312 165.579 79.224 167.035 79.224ZM167.435 78.04C166.587 78.04 165.914 77.64 165.914 76.648C165.914 75.528 166.891 74.808 169.819 74.472V76.888C168.987 77.64 168.283 78.04 167.435 78.04ZM174.05 79H175.506V72.696C176.29 71.816 177.026 71.368 177.682 71.368C178.802 71.368 179.314 72.056 179.314 73.688V79H180.77V72.696C181.586 71.816 182.274 71.368 182.946 71.368C184.066 71.368 184.578 72.056 184.578 73.688V79H186.034V73.496C186.034 71.288 185.17 70.104 183.394 70.104C182.338 70.104 181.426 70.792 180.514 71.752C180.178 70.728 179.458 70.104 178.13 70.104C177.09 70.104 176.178 70.76 175.426 71.576H175.378L175.234 70.312H174.05V79ZM192.367 79.224C193.551 79.224 194.463 78.824 195.231 78.328L194.703 77.352C194.063 77.784 193.375 78.056 192.543 78.056C190.879 78.056 189.759 76.856 189.647 75.016H195.503C195.551 74.792 195.567 74.488 195.567 74.184C195.567 71.688 194.319 70.104 192.111 70.104C190.111 70.104 188.207 71.848 188.207 74.68C188.207 77.528 190.047 79.224 192.367 79.224ZM189.631 73.96C189.823 72.248 190.911 71.272 192.127 71.272C193.503 71.272 194.287 72.216 194.287 73.96H189.631ZM198.458 72.76C199.05 72.76 199.53 72.312 199.53 71.656C199.53 70.984 199.05 70.536 198.458 70.536C197.882 70.536 197.418 70.984 197.418 71.656C197.418 72.312 197.882 72.76 198.458 72.76ZM198.458 79.224C199.05 79.224 199.53 78.76 199.53 78.104C199.53 77.432 199.05 76.984 198.458 76.984C197.882 76.984 197.418 77.432 197.418 78.104C197.418 78.76 197.882 79.224 198.458 79.224ZM209.129 79.224C211.593 79.224 213.113 77.752 213.113 75.896C213.113 74.152 212.073 73.336 210.697 72.744L209.033 72.024C208.121 71.64 207.097 71.224 207.097 70.072C207.097 69.032 207.961 68.36 209.289 68.36C210.361 68.36 211.225 68.792 211.945 69.464L212.729 68.52C211.913 67.656 210.681 67.064 209.289 67.064C207.145 67.064 205.593 68.376 205.593 70.184C205.593 71.896 206.873 72.728 207.977 73.192L209.657 73.928C210.761 74.408 211.609 74.792 211.609 76.008C211.609 77.144 210.697 77.912 209.161 77.912C207.945 77.912 206.761 77.352 205.913 76.456L205.033 77.48C206.057 78.552 207.481 79.224 209.129 79.224ZM217.285 79.224C218.357 79.224 219.333 78.664 220.149 77.976H220.213L220.341 79H221.541V73.672C221.541 71.512 220.645 70.104 218.516 70.104C217.125 70.104 215.909 70.712 215.109 71.224L215.685 72.248C216.357 71.784 217.269 71.304 218.293 71.304C219.717 71.304 220.069 72.376 220.069 73.496C216.373 73.912 214.741 74.856 214.741 76.744C214.741 78.312 215.829 79.224 217.285 79.224ZM217.685 78.04C216.837 78.04 216.164 77.64 216.164 76.648C216.164 75.528 217.141 74.808 220.069 74.472V76.888C219.237 77.64 218.533 78.04 217.685 78.04ZM224.3 79H225.756V72.696C226.54 71.816 227.276 71.368 227.932 71.368C229.052 71.368 229.564 72.056 229.564 73.688V79H231.02V72.696C231.836 71.816 232.524 71.368 233.196 71.368C234.316 71.368 234.828 72.056 234.828 73.688V79H236.284V73.496C236.284 71.288 235.42 70.104 233.644 70.104C232.588 70.104 231.676 70.792 230.764 71.752C230.428 70.728 229.708 70.104 228.38 70.104C227.34 70.104 226.428 70.76 225.676 71.576H225.628L225.484 70.312H224.3V79ZM152.048 102H153.552L155.616 95.44C156.048 94.128 156.416 92.848 156.8 91.488H156.864C157.248 92.848 157.616 94.128 158.032 95.44L160.096 102H161.648L157.68 90.272H156.016L152.048 102ZM154.128 98.416H159.536V97.248H154.128V98.416ZM166.134 106C168.806 106 170.518 104.624 170.518 103.008C170.518 101.568 169.51 100.944 167.494 100.944H165.798C164.63 100.944 164.262 100.544 164.262 99.984C164.262 99.52 164.518 99.216 164.822 98.96C165.222 99.152 165.702 99.248 166.118 99.248C167.894 99.248 169.302 98.096 169.302 96.24C169.302 95.488 169.014 94.848 168.598 94.448H170.374V93.312H167.35C167.046 93.2 166.614 93.104 166.118 93.104C164.358 93.104 162.854 94.288 162.854 96.208C162.854 97.248 163.43 98.08 164.006 98.544V98.608C163.542 98.928 163.03 99.488 163.03 100.208C163.03 100.896 163.366 101.36 163.814 101.648V101.712C163.014 102.224 162.534 102.944 162.534 103.68C162.534 105.168 164.006 106 166.134 106ZM166.118 98.272C165.11 98.272 164.262 97.456 164.262 96.208C164.262 94.912 165.094 94.16 166.118 94.16C167.142 94.16 167.974 94.928 167.974 96.208C167.974 97.456 167.126 98.272 166.118 98.272ZM166.326 105.008C164.758 105.008 163.814 104.416 163.814 103.472C163.814 102.976 164.07 102.448 164.694 102C165.094 102.112 165.494 102.144 165.83 102.144H167.334C168.47 102.144 169.094 102.416 169.094 103.232C169.094 104.128 168.006 105.008 166.326 105.008ZM175.46 102.224C176.644 102.224 177.556 101.824 178.324 101.328L177.796 100.352C177.156 100.784 176.468 101.056 175.636 101.056C173.972 101.056 172.852 99.856 172.74 98.016H178.596C178.644 97.792 178.66 97.488 178.66 97.184C178.66 94.688 177.412 93.104 175.204 93.104C173.204 93.104 171.3 94.848 171.3 97.68C171.3 100.528 173.14 102.224 175.46 102.224ZM172.724 96.96C172.916 95.248 174.004 94.272 175.22 94.272C176.596 94.272 177.38 95.216 177.38 96.96H172.724ZM181.552 95.76C182.144 95.76 182.624 95.312 182.624 94.656C182.624 93.984 182.144 93.536 181.552 93.536C180.976 93.536 180.512 93.984 180.512 94.656C180.512 95.312 180.976 95.76 181.552 95.76ZM181.552 102.224C182.144 102.224 182.624 101.76 182.624 101.104C182.624 100.432 182.144 99.984 181.552 99.984C180.976 99.984 180.512 100.432 180.512 101.104C180.512 101.76 180.976 102.224 181.552 102.224ZM191.583 102.224C193.679 102.224 195.359 100.992 195.359 98.96C195.359 97.408 194.239 96.384 192.863 96.064V96C194.111 95.536 194.943 94.656 194.943 93.28C194.943 91.44 193.503 90.4 191.535 90.4C190.191 90.4 189.151 90.992 188.271 91.808L189.055 92.736C189.711 92.064 190.543 91.568 191.487 91.568C192.703 91.568 193.455 92.272 193.455 93.376C193.455 94.576 192.639 95.52 190.223 95.52V96.64C192.927 96.64 193.871 97.552 193.871 98.912C193.871 100.192 192.879 101.008 191.487 101.008C190.143 101.008 189.263 100.368 188.575 99.648L187.839 100.608C188.607 101.456 189.743 102.224 191.583 102.224ZM200.698 102.224C202.954 102.224 204.33 100.096 204.33 96.272C204.33 92.448 202.954 90.4 200.698 90.4C198.41 90.4 197.034 92.448 197.034 96.272C197.034 100.096 198.41 102.224 200.698 102.224ZM200.698 101.04C199.354 101.04 198.442 99.616 198.442 96.272C198.442 92.912 199.354 91.568 200.698 91.568C202.026 91.568 202.922 92.912 202.922 96.272C202.922 99.616 202.026 101.04 200.698 101.04Z" fill="black"/>
<circle cx="309" cy="253" r="70" stroke="black" stroke-width="2"/>
<path d="M296 216.224C298.896 216.224 300.576 214.608 300.576 210.688V204.16H298.304V210.896C298.304 213.344 297.392 214.176 296 214.176C294.608 214.176 293.744 213.344 293.744 210.896V204.16H291.392V210.688C291.392 214.608 293.104 216.224 296 216.224ZM305.574 216.224C307.894 216.224 309.126 214.976 309.126 213.392C309.126 211.744 307.83 211.136 306.646 210.688C305.686 210.352 304.87 210.096 304.87 209.456C304.87 208.928 305.238 208.576 306.054 208.576C306.71 208.576 307.35 208.896 307.974 209.344L309.046 207.936C308.31 207.36 307.286 206.832 305.99 206.832C303.942 206.832 302.662 207.968 302.662 209.552C302.662 211.072 303.926 211.744 305.062 212.192C305.99 212.544 306.934 212.864 306.934 213.52C306.934 214.08 306.518 214.48 305.622 214.48C304.79 214.48 304.038 214.112 303.222 213.488L302.166 214.976C303.046 215.712 304.374 216.224 305.574 216.224ZM314.84 216.224C315.944 216.224 317.064 215.856 317.944 215.248L317.16 213.792C316.504 214.192 315.864 214.416 315.144 214.416C313.816 214.416 312.856 213.664 312.648 212.192H318.184C318.232 211.968 318.28 211.552 318.28 211.104C318.28 208.624 317.016 206.832 314.536 206.832C312.424 206.832 310.376 208.624 310.376 211.536C310.376 214.496 312.328 216.224 314.84 216.224ZM312.616 210.624C312.808 209.312 313.64 208.64 314.584 208.64C315.736 208.64 316.28 209.408 316.28 210.624H312.616ZM320.233 216H322.585V210.672C323.081 209.376 323.929 208.896 324.617 208.896C325.001 208.896 325.241 208.96 325.561 209.04L325.961 207.024C325.689 206.896 325.401 206.832 324.921 206.832C323.993 206.832 323.017 207.456 322.377 208.64H322.329L322.137 207.056H320.233V216Z" fill="black"/>
<path d="M260 236H363V294H260V236Z" fill="#D9D9D9" fill-opacity="0.28"/>
<path d="M271.6 261H273.008V254.856C273.008 253.608 272.896 252.376 272.816 251.192H272.896L274.16 253.608L278.416 261H279.952V249.272H278.528V255.368C278.528 256.584 278.64 257.912 278.736 259.096H278.656L277.392 256.664L273.12 249.272H271.6V261ZM285.035 261.224C286.107 261.224 287.083 260.664 287.899 259.976H287.963L288.091 261H289.291V255.672C289.291 253.512 288.395 252.104 286.266 252.104C284.875 252.104 283.659 252.712 282.859 253.224L283.435 254.248C284.107 253.784 285.019 253.304 286.043 253.304C287.467 253.304 287.819 254.376 287.819 255.496C284.123 255.912 282.491 256.856 282.491 258.744C282.491 260.312 283.579 261.224 285.035 261.224ZM285.435 260.04C284.587 260.04 283.914 259.64 283.914 258.648C283.914 257.528 284.891 256.808 287.819 256.472V258.888C286.987 259.64 286.283 260.04 285.435 260.04ZM292.05 261H293.506V254.696C294.29 253.816 295.026 253.368 295.682 253.368C296.802 253.368 297.314 254.056 297.314 255.688V261H298.77V254.696C299.586 253.816 300.274 253.368 300.946 253.368C302.066 253.368 302.578 254.056 302.578 255.688V261H304.034V255.496C304.034 253.288 303.17 252.104 301.394 252.104C300.338 252.104 299.426 252.792 298.514 253.752C298.178 252.728 297.458 252.104 296.13 252.104C295.09 252.104 294.178 252.76 293.426 253.576H293.378L293.234 252.312H292.05V261ZM310.367 261.224C311.551 261.224 312.463 260.824 313.231 260.328L312.703 259.352C312.063 259.784 311.375 260.056 310.543 260.056C308.879 260.056 307.759 258.856 307.647 257.016H313.503C313.551 256.792 313.567 256.488 313.567 256.184C313.567 253.688 312.319 252.104 310.111 252.104C308.111 252.104 306.207 253.848 306.207 256.68C306.207 259.528 308.047 261.224 310.367 261.224ZM307.631 255.96C307.823 254.248 308.911 253.272 310.127 253.272C311.503 253.272 312.287 254.216 312.287 255.96H307.631ZM316.458 254.76C317.05 254.76 317.53 254.312 317.53 253.656C317.53 252.984 317.05 252.536 316.458 252.536C315.882 252.536 315.418 252.984 315.418 253.656C315.418 254.312 315.882 254.76 316.458 254.76ZM316.458 261.224C317.05 261.224 317.53 260.76 317.53 260.104C317.53 259.432 317.05 258.984 316.458 258.984C315.882 258.984 315.418 259.432 315.418 260.104C315.418 260.76 315.882 261.224 316.458 261.224ZM327.129 261.224C329.593 261.224 331.113 259.752 331.113 257.896C331.113 256.152 330.073 255.336 328.697 254.744L327.033 254.024C326.121 253.64 325.097 253.224 325.097 252.072C325.097 251.032 325.961 250.36 327.289 250.36C328.361 250.36 329.225 250.792 329.945 251.464L330.729 250.52C329.913 249.656 328.681 249.064 327.289 249.064C325.145 249.064 323.593 250.376 323.593 252.184C323.593 253.896 324.873 254.728 325.977 255.192L327.657 255.928C328.761 256.408 329.609 256.792 329.609 258.008C329.609 259.144 328.697 259.912 327.161 259.912C325.945 259.912 324.761 259.352 323.913 258.456L323.033 259.48C324.057 260.552 325.481 261.224 327.129 261.224ZM335.285 261.224C336.357 261.224 337.333 260.664 338.149 259.976H338.213L338.341 261H339.541V255.672C339.541 253.512 338.645 252.104 336.516 252.104C335.125 252.104 333.909 252.712 333.109 253.224L333.685 254.248C334.357 253.784 335.269 253.304 336.293 253.304C337.717 253.304 338.069 254.376 338.069 255.496C334.373 255.912 332.741 256.856 332.741 258.744C332.741 260.312 333.829 261.224 335.285 261.224ZM335.685 260.04C334.837 260.04 334.164 259.64 334.164 258.648C334.164 257.528 335.141 256.808 338.069 256.472V258.888C337.237 259.64 336.533 260.04 335.685 260.04ZM342.3 261H343.756V254.696C344.54 253.816 345.276 253.368 345.932 253.368C347.052 253.368 347.564 254.056 347.564 255.688V261H349.02V254.696C349.836 253.816 350.524 253.368 351.196 253.368C352.316 253.368 352.828 254.056 352.828 255.688V261H354.284V255.496C354.284 253.288 353.42 252.104 351.644 252.104C350.588 252.104 349.676 252.792 348.764 253.752C348.428 252.728 347.708 252.104 346.38 252.104C345.34 252.104 344.428 252.76 343.676 253.576H343.628L343.484 252.312H342.3V261ZM270.048 284H271.552L273.616 277.44C274.048 276.128 274.416 274.848 274.8 273.488H274.864C275.248 274.848 275.616 276.128 276.032 277.44L278.096 284H279.648L275.68 272.272H274.016L270.048 284ZM272.128 280.416H277.536V279.248H272.128V280.416ZM284.134 288C286.806 288 288.518 286.624 288.518 285.008C288.518 283.568 287.51 282.944 285.494 282.944H283.798C282.63 282.944 282.262 282.544 282.262 281.984C282.262 281.52 282.518 281.216 282.822 280.96C283.222 281.152 283.702 281.248 284.118 281.248C285.894 281.248 287.302 280.096 287.302 278.24C287.302 277.488 287.014 276.848 286.598 276.448H288.374V275.312H285.35C285.046 275.2 284.614 275.104 284.118 275.104C282.358 275.104 280.854 276.288 280.854 278.208C280.854 279.248 281.43 280.08 282.006 280.544V280.608C281.542 280.928 281.03 281.488 281.03 282.208C281.03 282.896 281.366 283.36 281.814 283.648V283.712C281.014 284.224 280.534 284.944 280.534 285.68C280.534 287.168 282.006 288 284.134 288ZM284.118 280.272C283.11 280.272 282.262 279.456 282.262 278.208C282.262 276.912 283.094 276.16 284.118 276.16C285.142 276.16 285.974 276.928 285.974 278.208C285.974 279.456 285.126 280.272 284.118 280.272ZM284.326 287.008C282.758 287.008 281.814 286.416 281.814 285.472C281.814 284.976 282.07 284.448 282.694 284C283.094 284.112 283.494 284.144 283.83 284.144H285.334C286.47 284.144 287.094 284.416 287.094 285.232C287.094 286.128 286.006 287.008 284.326 287.008ZM293.46 284.224C294.644 284.224 295.556 283.824 296.324 283.328L295.796 282.352C295.156 282.784 294.468 283.056 293.636 283.056C291.972 283.056 290.852 281.856 290.74 280.016H296.596C296.644 279.792 296.66 279.488 296.66 279.184C296.66 276.688 295.412 275.104 293.204 275.104C291.204 275.104 289.3 276.848 289.3 279.68C289.3 282.528 291.14 284.224 293.46 284.224ZM290.724 278.96C290.916 277.248 292.004 276.272 293.22 276.272C294.596 276.272 295.38 277.216 295.38 278.96H290.724ZM299.552 277.76C300.144 277.76 300.624 277.312 300.624 276.656C300.624 275.984 300.144 275.536 299.552 275.536C298.976 275.536 298.512 275.984 298.512 276.656C298.512 277.312 298.976 277.76 299.552 277.76ZM299.552 284.224C300.144 284.224 300.624 283.76 300.624 283.104C300.624 282.432 300.144 281.984 299.552 281.984C298.976 281.984 298.512 282.432 298.512 283.104C298.512 283.76 298.976 284.224 299.552 284.224ZM309.583 284.224C311.679 284.224 313.359 282.992 313.359 280.96C313.359 279.408 312.239 278.384 310.863 278.064V278C312.111 277.536 312.943 276.656 312.943 275.28C312.943 273.44 311.503 272.4 309.535 272.4C308.191 272.4 307.151 272.992 306.271 273.808L307.055 274.736C307.711 274.064 308.543 273.568 309.487 273.568C310.703 273.568 311.455 274.272 311.455 275.376C311.455 276.576 310.639 277.52 308.223 277.52V278.64C310.927 278.64 311.871 279.552 311.871 280.912C311.871 282.192 310.879 283.008 309.487 283.008C308.143 283.008 307.263 282.368 306.575 281.648L305.839 282.608C306.607 283.456 307.743 284.224 309.583 284.224ZM318.698 284.224C320.954 284.224 322.33 282.096 322.33 278.272C322.33 274.448 320.954 272.4 318.698 272.4C316.41 272.4 315.034 274.448 315.034 278.272C315.034 282.096 316.41 284.224 318.698 284.224ZM318.698 283.04C317.354 283.04 316.442 281.616 316.442 278.272C316.442 274.912 317.354 273.568 318.698 273.568C320.026 273.568 320.922 274.912 320.922 278.272C320.922 281.616 320.026 283.04 318.698 283.04Z" fill="black"/>
<circle cx="71" cy="253" r="70" stroke="black" stroke-width="2"/>
<path d="M58 216.224C60.896 216.224 62.576 214.608 62.576 210.688V204.16H60.304V210.896C60.304 213.344 59.392 214.176 58 214.176C56.608 214.176 55.744 213.344 55.744 210.896V204.16H53.392V210.688C53.392 214.608 55.104 216.224 58 216.224ZM67.574 216.224C69.894 216.224 71.126 214.976 71.126 213.392C71.126 211.744 69.83 211.136 68.646 210.688C67.686 210.352 66.87 210.096 66.87 209.456C66.87 208.928 67.238 208.576 68.054 208.576C68.71 208.576 69.35 208.896 69.974 209.344L71.046 207.936C70.31 207.36 69.286 206.832 67.99 206.832C65.942 206.832 64.662 207.968 64.662 209.552C64.662 211.072 65.926 211.744 67.062 212.192C67.99 212.544 68.934 212.864 68.934 213.52C68.934 214.08 68.518 214.48 67.622 214.48C66.79 214.48 66.038 214.112 65.222 213.488L64.166 214.976C65.046 215.712 66.374 216.224 67.574 216.224ZM76.8399 216.224C77.9439 216.224 79.0639 215.856 79.9439 215.248L79.1599 213.792C78.5039 214.192 77.8639 214.416 77.1439 214.416C75.8159 214.416 74.8559 213.664 74.6479 212.192H80.1839C80.2319 211.968 80.2799 211.552 80.2799 211.104C80.2799 208.624 79.0159 206.832 76.5359 206.832C74.4239 206.832 72.3759 208.624 72.3759 211.536C72.3759 214.496 74.3279 216.224 76.8399 216.224ZM74.6159 210.624C74.8079 209.312 75.6399 208.64 76.5839 208.64C77.7359 208.64 78.2799 209.408 78.2799 210.624H74.6159ZM82.2328 216H84.5848V210.672C85.0807 209.376 85.9288 208.896 86.6168 208.896C87.0008 208.896 87.2408 208.96 87.5608 209.04L87.9608 207.024C87.6888 206.896 87.4008 206.832 86.9208 206.832C85.9928 206.832 85.0168 207.456 84.3768 208.64H84.3288L84.1368 207.056H82.2328V216Z" fill="black"/>
<path d="M22 236H125V294H22V236Z" fill="#D9D9D9" fill-opacity="0.28"/>
<path d="M33.6 261H35.008V254.856C35.008 253.608 34.896 252.376 34.816 251.192H34.896L36.16 253.608L40.416 261H41.952V249.272H40.528V255.368C40.528 256.584 40.64 257.912 40.736 259.096H40.656L39.392 256.664L35.12 249.272H33.6V261ZM47.0345 261.224C48.1065 261.224 49.0825 260.664 49.8985 259.976H49.9625L50.0905 261H51.2905V255.672C51.2905 253.512 50.3945 252.104 48.2665 252.104C46.8745 252.104 45.6585 252.712 44.8585 253.224L45.4345 254.248C46.1065 253.784 47.0185 253.304 48.0425 253.304C49.4665 253.304 49.8185 254.376 49.8185 255.496C46.1225 255.912 44.4905 256.856 44.4905 258.744C44.4905 260.312 45.5785 261.224 47.0345 261.224ZM47.4345 260.04C46.5865 260.04 45.9145 259.64 45.9145 258.648C45.9145 257.528 46.8905 256.808 49.8185 256.472V258.888C48.9865 259.64 48.2825 260.04 47.4345 260.04ZM54.0501 261H55.5061V254.696C56.2901 253.816 57.0261 253.368 57.6821 253.368C58.8021 253.368 59.3141 254.056 59.3141 255.688V261H60.7701V254.696C61.5861 253.816 62.2741 253.368 62.9461 253.368C64.0661 253.368 64.5781 254.056 64.5781 255.688V261H66.0341V255.496C66.0341 253.288 65.1701 252.104 63.3941 252.104C62.3381 252.104 61.4261 252.792 60.5141 253.752C60.1781 252.728 59.4581 252.104 58.1301 252.104C57.0901 252.104 56.1781 252.76 55.4261 253.576H55.3781L55.2341 252.312H54.0501V261ZM72.3666 261.224C73.5506 261.224 74.4626 260.824 75.2306 260.328L74.7026 259.352C74.0626 259.784 73.3746 260.056 72.5426 260.056C70.8786 260.056 69.7586 258.856 69.6466 257.016H75.5026C75.5506 256.792 75.5666 256.488 75.5666 256.184C75.5666 253.688 74.3186 252.104 72.1106 252.104C70.1106 252.104 68.2066 253.848 68.2066 256.68C68.2066 259.528 70.0466 261.224 72.3666 261.224ZM69.6306 255.96C69.8226 254.248 70.9106 253.272 72.1266 253.272C73.5026 253.272 74.2866 254.216 74.2866 255.96H69.6306ZM78.458 254.76C79.05 254.76 79.53 254.312 79.53 253.656C79.53 252.984 79.05 252.536 78.458 252.536C77.882 252.536 77.418 252.984 77.418 253.656C77.418 254.312 77.882 254.76 78.458 254.76ZM78.458 261.224C79.05 261.224 79.53 260.76 79.53 260.104C79.53 259.432 79.05 258.984 78.458 258.984C77.882 258.984 77.418 259.432 77.418 260.104C77.418 260.76 77.882 261.224 78.458 261.224ZM89.1293 261.224C91.5933 261.224 93.1133 259.752 93.1133 257.896C93.1133 256.152 92.0733 255.336 90.6973 254.744L89.0333 254.024C88.1213 253.64 87.0973 253.224 87.0973 252.072C87.0973 251.032 87.9613 250.36 89.2893 250.36C90.3613 250.36 91.2253 250.792 91.9453 251.464L92.7292 250.52C91.9133 249.656 90.6813 249.064 89.2893 249.064C87.1453 249.064 85.5933 250.376 85.5933 252.184C85.5933 253.896 86.8733 254.728 87.9773 255.192L89.6573 255.928C90.7613 256.408 91.6093 256.792 91.6093 258.008C91.6093 259.144 90.6973 259.912 89.1613 259.912C87.9453 259.912 86.7613 259.352 85.9133 258.456L85.0333 259.48C86.0573 260.552 87.4813 261.224 89.1293 261.224ZM97.2845 261.224C98.3565 261.224 99.3325 260.664 100.149 259.976H100.213L100.341 261H101.541V255.672C101.541 253.512 100.645 252.104 98.5165 252.104C97.1245 252.104 95.9085 252.712 95.1085 253.224L95.6845 254.248C96.3565 253.784 97.2685 253.304 98.2925 253.304C99.7165 253.304 100.069 254.376 100.069 255.496C96.3725 255.912 94.7405 256.856 94.7405 258.744C94.7405 260.312 95.8285 261.224 97.2845 261.224ZM97.6845 260.04C96.8365 260.04 96.1645 259.64 96.1645 258.648C96.1645 257.528 97.1405 256.808 100.069 256.472V258.888C99.2365 259.64 98.5325 260.04 97.6845 260.04ZM104.3 261H105.756V254.696C106.54 253.816 107.276 253.368 107.932 253.368C109.052 253.368 109.564 254.056 109.564 255.688V261H111.02V254.696C111.836 253.816 112.524 253.368 113.196 253.368C114.316 253.368 114.828 254.056 114.828 255.688V261H116.284V255.496C116.284 253.288 115.42 252.104 113.644 252.104C112.588 252.104 111.676 252.792 110.764 253.752C110.428 252.728 109.708 252.104 108.38 252.104C107.34 252.104 106.428 252.76 105.676 253.576H105.628L105.484 252.312H104.3V261ZM32.048 284H33.552L35.616 277.44C36.048 276.128 36.416 274.848 36.8 273.488H36.864C37.248 274.848 37.616 276.128 38.032 277.44L40.096 284H41.648L37.68 272.272H36.016L32.048 284ZM34.128 280.416H39.536V279.248H34.128V280.416ZM46.1344 288C48.8064 288 50.5184 286.624 50.5184 285.008C50.5184 283.568 49.5104 282.944 47.4944 282.944H45.7984C44.6304 282.944 44.2624 282.544 44.2624 281.984C44.2624 281.52 44.5184 281.216 44.8224 280.96C45.2224 281.152 45.7024 281.248 46.1184 281.248C47.8944 281.248 49.3024 280.096 49.3024 278.24C49.3024 277.488 49.0144 276.848 48.5984 276.448H50.3744V275.312H47.3504C47.0464 275.2 46.6144 275.104 46.1184 275.104C44.3584 275.104 42.8544 276.288 42.8544 278.208C42.8544 279.248 43.4304 280.08 44.0064 280.544V280.608C43.5424 280.928 43.0304 281.488 43.0304 282.208C43.0304 282.896 43.3664 283.36 43.8144 283.648V283.712C43.0144 284.224 42.5344 284.944 42.5344 285.68C42.5344 287.168 44.0064 288 46.1344 288ZM46.1184 280.272C45.1104 280.272 44.2624 279.456 44.2624 278.208C44.2624 276.912 45.0944 276.16 46.1184 276.16C47.1424 276.16 47.9744 276.928 47.9744 278.208C47.9744 279.456 47.1264 280.272 46.1184 280.272ZM46.3264 287.008C44.7584 287.008 43.8144 286.416 43.8144 285.472C43.8144 284.976 44.0704 284.448 44.6944 284C45.0944 284.112 45.4944 284.144 45.8304 284.144H47.3344C48.4704 284.144 49.0944 284.416 49.0944 285.232C49.0944 286.128 48.0064 287.008 46.3264 287.008ZM55.4604 284.224C56.6444 284.224 57.5564 283.824 58.3244 283.328L57.7964 282.352C57.1564 282.784 56.4684 283.056 55.6364 283.056C53.9724 283.056 52.8524 281.856 52.7404 280.016H58.5964C58.6444 279.792 58.6604 279.488 58.6604 279.184C58.6604 276.688 57.4124 275.104 55.2044 275.104C53.2044 275.104 51.3004 276.848 51.3004 279.68C51.3004 282.528 53.1404 284.224 55.4604 284.224ZM52.7244 278.96C52.9164 277.248 54.0044 276.272 55.2204 276.272C56.5964 276.272 57.3804 277.216 57.3804 278.96H52.7244ZM61.5518 277.76C62.1438 277.76 62.6238 277.312 62.6238 276.656C62.6238 275.984 62.1438 275.536 61.5518 275.536C60.9758 275.536 60.5118 275.984 60.5118 276.656C60.5118 277.312 60.9758 277.76 61.5518 277.76ZM61.5518 284.224C62.1438 284.224 62.6238 283.76 62.6238 283.104C62.6238 282.432 62.1438 281.984 61.5518 281.984C60.9758 281.984 60.5118 282.432 60.5118 283.104C60.5118 283.76 60.9758 284.224 61.5518 284.224ZM71.583 284.224C73.679 284.224 75.359 282.992 75.359 280.96C75.359 279.408 74.239 278.384 72.863 278.064V278C74.111 277.536 74.943 276.656 74.943 275.28C74.943 273.44 73.503 272.4 71.535 272.4C70.191 272.4 69.151 272.992 68.271 273.808L69.055 274.736C69.711 274.064 70.543 273.568 71.487 273.568C72.703 273.568 73.455 274.272 73.455 275.376C73.455 276.576 72.639 277.52 70.223 277.52V278.64C72.927 278.64 73.871 279.552 73.871 280.912C73.871 282.192 72.879 283.008 71.487 283.008C70.143 283.008 69.263 282.368 68.575 281.648L67.839 282.608C68.607 283.456 69.743 284.224 71.583 284.224ZM80.698 284.224C82.954 284.224 84.33 282.096 84.33 278.272C84.33 274.448 82.954 272.4 80.698 272.4C78.41 272.4 77.034 274.448 77.034 278.272C77.034 282.096 78.41 284.224 80.698 284.224ZM80.698 283.04C79.354 283.04 78.442 281.616 78.442 278.272C78.442 274.912 79.354 273.568 80.698 273.568C82.026 273.568 82.922 274.912 82.922 278.272C82.922 281.616 82.026 283.04 80.698 283.04Z" fill="black"/>
<path d="M143.46 131.657C143.271 130.851 142.464 130.35 141.657 130.54L128.514 133.623C127.708 133.812 127.207 134.619 127.396 135.426C127.586 136.232 128.393 136.733 129.199 136.543L140.882 133.803L143.623 145.486C143.812 146.292 144.619 146.793 145.426 146.604C146.232 146.414 146.733 145.607 146.543 144.801L143.46 131.657ZM112.275 182.79L143.275 132.79L140.725 131.21L109.725 181.21L112.275 182.79Z" fill="black"/>
<path d="M417.061 62.0607C417.646 61.4749 417.646 60.5251 417.061 59.9393L407.515 50.3934C406.929 49.8076 405.979 49.8076 405.393 50.3934C404.808 50.9792 404.808 51.9289 405.393 52.5147L413.879 61L405.393 69.4853C404.808 70.0711 404.808 71.0208 405.393 71.6066C405.979 72.1924 406.929 72.1924 407.515 71.6066L417.061 62.0607ZM299 62.5H416V59.5H299V62.5Z" fill="black"/>
<path d="M245.203 130.514C244.382 130.402 243.626 130.977 243.514 131.797L241.69 145.174C241.578 145.994 242.152 146.751 242.973 146.862C243.794 146.974 244.55 146.4 244.662 145.579L246.284 133.689L258.174 135.31C258.994 135.422 259.751 134.848 259.862 134.027C259.974 133.206 259.4 132.45 258.579 132.338L245.203 130.514ZM284.194 181.092L246.194 131.092L243.806 132.908L281.806 182.908L284.194 181.092Z" fill="black"/>
<path d="M220.061 254.061C220.646 253.475 220.646 252.525 220.061 251.939L210.515 242.393C209.929 241.808 208.979 241.808 208.393 242.393C207.808 242.979 207.808 243.929 208.393 244.515L216.879 253L208.393 261.485C207.808 262.071 207.808 263.021 208.393 263.607C208.979 264.192 209.929 264.192 210.515 263.607L220.061 254.061ZM157 254.5H219V251.5H157V254.5Z" fill="black"/>
<path d="M304.6 152H306.088V146.736H310.552V145.504H306.088V141.52H311.352V140.272H304.6V152ZM316.395 152.224C318.523 152.224 320.411 150.544 320.411 147.68C320.411 144.768 318.523 143.104 316.395 143.104C314.251 143.104 312.363 144.768 312.363 147.68C312.363 150.544 314.251 152.224 316.395 152.224ZM316.395 151.008C314.875 151.008 313.867 149.664 313.867 147.68C313.867 145.664 314.875 144.32 316.395 144.32C317.899 144.32 318.907 145.664 318.907 147.68C318.907 149.664 317.899 151.008 316.395 151.008ZM324.258 152.224C324.658 152.224 324.882 152.16 325.09 152.096L324.898 150.976C324.722 151.008 324.658 151.008 324.594 151.008C324.37 151.008 324.178 150.832 324.178 150.368V139.28H322.722V150.272C322.722 151.52 323.154 152.224 324.258 152.224ZM328.805 152.224C329.205 152.224 329.429 152.16 329.637 152.096L329.445 150.976C329.269 151.008 329.205 151.008 329.141 151.008C328.917 151.008 328.725 150.832 328.725 150.368V139.28H327.269V150.272C327.269 151.52 327.701 152.224 328.805 152.224ZM335.192 152.224C337.32 152.224 339.208 150.544 339.208 147.68C339.208 144.768 337.32 143.104 335.192 143.104C333.048 143.104 331.16 144.768 331.16 147.68C331.16 150.544 333.048 152.224 335.192 152.224ZM335.192 151.008C333.672 151.008 332.664 149.664 332.664 147.68C332.664 145.664 333.672 144.32 335.192 144.32C336.696 144.32 337.704 145.664 337.704 147.68C337.704 149.664 336.696 151.008 335.192 151.008ZM342.786 152H344.482L345.698 147.344C345.938 146.512 346.114 145.712 346.29 144.816H346.37C346.578 145.712 346.738 146.496 346.962 147.328L348.226 152H350.002L352.338 143.312H350.946L349.682 148.352C349.474 149.184 349.314 149.952 349.138 150.768H349.074C348.866 149.952 348.674 149.184 348.466 148.352L347.09 143.312H345.666L344.322 148.352C344.098 149.168 343.922 149.952 343.73 150.768H343.65C343.49 149.952 343.33 149.184 343.154 148.352L341.842 143.312H340.354L342.786 152Z" fill="black"/>
<path d="M166.6 305H168.088V299.736H172.552V298.504H168.088V294.52H173.352V293.272H166.6V305ZM178.395 305.224C180.523 305.224 182.411 303.544 182.411 300.68C182.411 297.768 180.523 296.104 178.395 296.104C176.251 296.104 174.363 297.768 174.363 300.68C174.363 303.544 176.251 305.224 178.395 305.224ZM178.395 304.008C176.875 304.008 175.867 302.664 175.867 300.68C175.867 298.664 176.875 297.32 178.395 297.32C179.899 297.32 180.907 298.664 180.907 300.68C180.907 302.664 179.899 304.008 178.395 304.008ZM186.258 305.224C186.658 305.224 186.882 305.16 187.09 305.096L186.898 303.976C186.722 304.008 186.658 304.008 186.594 304.008C186.37 304.008 186.178 303.832 186.178 303.368V292.28H184.722V303.272C184.722 304.52 185.154 305.224 186.258 305.224ZM190.805 305.224C191.205 305.224 191.429 305.16 191.637 305.096L191.445 303.976C191.269 304.008 191.205 304.008 191.141 304.008C190.917 304.008 190.725 303.832 190.725 303.368V292.28H189.269V303.272C189.269 304.52 189.701 305.224 190.805 305.224ZM197.192 305.224C199.32 305.224 201.208 303.544 201.208 300.68C201.208 297.768 199.32 296.104 197.192 296.104C195.048 296.104 193.16 297.768 193.16 300.68C193.16 303.544 195.048 305.224 197.192 305.224ZM197.192 304.008C195.672 304.008 194.664 302.664 194.664 300.68C194.664 298.664 195.672 297.32 197.192 297.32C198.696 297.32 199.704 298.664 199.704 300.68C199.704 302.664 198.696 304.008 197.192 304.008ZM204.786 305H206.482L207.698 300.344C207.938 299.512 208.114 298.712 208.29 297.816H208.37C208.578 298.712 208.738 299.496 208.962 300.328L210.226 305H212.002L214.338 296.312H212.946L211.682 301.352C211.474 302.184 211.314 302.952 211.138 303.768H211.074C210.866 302.952 210.674 302.184 210.466 301.352L209.09 296.312H207.666L206.322 301.352C206.098 302.168 205.922 302.952 205.73 303.768H205.65C205.49 302.952 205.33 302.184 205.154 301.352L203.842 296.312H202.354L204.786 305Z" fill="black"/>
<path d="M47.6 150H49.088V144.736H53.552V143.504H49.088V139.52H54.352V138.272H47.6V150ZM59.3949 150.224C61.5229 150.224 63.4109 148.544 63.4109 145.68C63.4109 142.768 61.5229 141.104 59.3949 141.104C57.2509 141.104 55.3629 142.768 55.3629 145.68C55.3629 148.544 57.2509 150.224 59.3949 150.224ZM59.3949 149.008C57.8749 149.008 56.8669 147.664 56.8669 145.68C56.8669 143.664 57.8749 142.32 59.3949 142.32C60.8989 142.32 61.9069 143.664 61.9069 145.68C61.9069 147.664 60.8989 149.008 59.3949 149.008ZM67.258 150.224C67.658 150.224 67.882 150.16 68.09 150.096L67.898 148.976C67.722 149.008 67.658 149.008 67.594 149.008C67.37 149.008 67.178 148.832 67.178 148.368V137.28H65.722V148.272C65.722 149.52 66.154 150.224 67.258 150.224ZM71.8049 150.224C72.2049 150.224 72.4289 150.16 72.6369 150.096L72.4449 148.976C72.2689 149.008 72.2049 149.008 72.1409 149.008C71.9169 149.008 71.7249 148.832 71.7249 148.368V137.28H70.2689V148.272C70.2689 149.52 70.7009 150.224 71.8049 150.224ZM78.1918 150.224C80.3198 150.224 82.2078 148.544 82.2078 145.68C82.2078 142.768 80.3198 141.104 78.1918 141.104C76.0478 141.104 74.1598 142.768 74.1598 145.68C74.1598 148.544 76.0478 150.224 78.1918 150.224ZM78.1918 149.008C76.6718 149.008 75.6638 147.664 75.6638 145.68C75.6638 143.664 76.6718 142.32 78.1918 142.32C79.6958 142.32 80.7038 143.664 80.7038 145.68C80.7038 147.664 79.6958 149.008 78.1918 149.008ZM85.7855 150H87.4815L88.6975 145.344C88.9375 144.512 89.1135 143.712 89.2895 142.816H89.3695C89.5775 143.712 89.7375 144.496 89.9615 145.328L91.2255 150H93.0015L95.3375 141.312H93.9455L92.6815 146.352C92.4735 147.184 92.3135 147.952 92.1375 148.768H92.0735C91.8655 147.952 91.6735 147.184 91.4655 146.352L90.0895 141.312H88.6655L87.3215 146.352C87.0975 147.168 86.9215 147.952 86.7295 148.768H86.6495C86.4895 147.952 86.3295 147.184 86.1535 146.352L84.8415 141.312H83.3535L85.7855 150Z" fill="black"/>
<path d="M323.6 43H325.088V38.344H327.008C329.584 38.344 331.344 37.192 331.344 34.728C331.344 32.152 329.568 31.272 326.944 31.272H323.6V43ZM325.088 37.144V32.488H326.752C328.832 32.488 329.872 33.016 329.872 34.728C329.872 36.392 328.88 37.144 326.832 37.144H325.088ZM336.125 43.224C337.325 43.224 338.189 42.584 339.005 41.64H339.037L339.165 43H340.365V34.312H338.909V40.488C338.093 41.512 337.453 41.944 336.573 41.944C335.421 41.944 334.925 41.256 334.925 39.64V34.312H333.469V39.816C333.469 42.04 334.301 43.224 336.125 43.224ZM343.316 43H344.772V37.432C345.348 35.944 346.244 35.416 346.964 35.416C347.316 35.416 347.508 35.464 347.812 35.56L348.084 34.28C347.796 34.152 347.54 34.104 347.156 34.104C346.18 34.104 345.284 34.792 344.692 35.896H344.644L344.5 34.312H343.316V43ZM352.708 43.224C353.748 43.224 354.756 42.808 355.524 42.12L354.9 41.144C354.356 41.624 353.636 42.008 352.852 42.008C351.252 42.008 350.148 40.664 350.148 38.68C350.148 36.664 351.3 35.32 352.9 35.32C353.572 35.32 354.116 35.624 354.628 36.088L355.364 35.128C354.756 34.568 353.956 34.104 352.82 34.104C350.596 34.104 348.644 35.768 348.644 38.68C348.644 41.544 350.404 43.224 352.708 43.224ZM357.456 43H358.912V36.696C359.776 35.832 360.4 35.368 361.28 35.368C362.432 35.368 362.928 36.056 362.928 37.688V43H364.4V37.496C364.4 35.288 363.568 34.104 361.744 34.104C360.544 34.104 359.664 34.76 358.864 35.544L358.912 33.752V30.28H357.456V43ZM369.175 43.224C370.247 43.224 371.223 42.664 372.039 41.976H372.103L372.231 43H373.431V37.672C373.431 35.512 372.535 34.104 370.407 34.104C369.015 34.104 367.799 34.712 366.999 35.224L367.575 36.248C368.247 35.784 369.159 35.304 370.183 35.304C371.607 35.304 371.959 36.376 371.959 37.496C368.263 37.912 366.631 38.856 366.631 40.744C366.631 42.312 367.719 43.224 369.175 43.224ZM369.575 42.04C368.727 42.04 368.055 41.64 368.055 40.648C368.055 39.528 369.031 38.808 371.959 38.472V40.888C371.127 41.64 370.423 42.04 369.575 42.04ZM378.463 43.224C380.511 43.224 381.615 42.056 381.615 40.632C381.615 38.984 380.239 38.472 378.975 37.992C377.983 37.64 377.103 37.32 377.103 36.488C377.103 35.816 377.599 35.24 378.703 35.24C379.471 35.24 380.095 35.576 380.687 36.008L381.391 35.08C380.719 34.536 379.759 34.104 378.687 34.104C376.799 34.104 375.695 35.176 375.695 36.552C375.695 38.04 377.023 38.616 378.223 39.08C379.183 39.432 380.223 39.832 380.223 40.712C380.223 41.48 379.647 42.088 378.495 42.088C377.455 42.088 376.687 41.656 375.935 41.048L375.215 42.024C376.031 42.696 377.231 43.224 378.463 43.224ZM387.179 43.224C388.363 43.224 389.275 42.824 390.043 42.328L389.515 41.352C388.875 41.784 388.187 42.056 387.355 42.056C385.691 42.056 384.571 40.856 384.459 39.016H390.315C390.363 38.792 390.379 38.488 390.379 38.184C390.379 35.688 389.131 34.104 386.923 34.104C384.923 34.104 383.019 35.848 383.019 38.68C383.019 41.528 384.859 43.224 387.179 43.224ZM384.443 37.96C384.635 36.248 385.723 35.272 386.939 35.272C388.315 35.272 389.099 36.216 389.099 37.96H384.443Z" fill="black"/>
</svg>
