<svg width="242" height="251" viewBox="0 0 242 251" fill="none" xmlns="http://www.w3.org/2000/svg">
<rect x="124" y="1" width="117" height="52" fill="#1A69C6"/>
<path d="M164.036 33.5H166.852L170.484 21.66H168.068L166.532 27.42C166.18 28.748 165.924 29.916 165.54 31.26H165.46C165.092 29.916 164.82 28.748 164.452 27.42L162.9 21.66H160.404L164.036 33.5ZM173.206 33.724C174.23 33.724 175.126 33.228 175.91 32.556H175.974L176.15 33.5H178.07V28.284C178.07 25.676 176.902 24.332 174.63 24.332C173.206 24.332 171.942 24.86 170.886 25.5L171.734 27.068C172.55 26.572 173.366 26.22 174.198 26.22C175.302 26.22 175.67 26.876 175.718 27.756C172.118 28.156 170.566 29.164 170.566 31.068C170.566 32.604 171.606 33.724 173.206 33.724ZM173.974 31.884C173.286 31.884 172.806 31.58 172.806 30.892C172.806 30.076 173.526 29.484 175.718 29.212V31.02C175.142 31.58 174.646 31.884 173.974 31.884ZM182.675 33.724C183.235 33.724 183.603 33.628 183.875 33.532L183.587 31.788C183.427 31.82 183.363 31.82 183.283 31.82C183.059 31.82 182.819 31.644 182.819 31.084V20.748H180.467V30.988C180.467 32.652 181.027 33.724 182.675 33.724ZM188.186 33.724C189.402 33.724 190.25 33.132 191.034 32.22H191.082L191.258 33.5H193.178V24.556H190.842V30.588C190.234 31.388 189.754 31.708 189.018 31.708C188.138 31.708 187.754 31.228 187.754 29.852V24.556H185.402V30.14C185.402 32.396 186.25 33.724 188.186 33.724ZM199.606 33.724C200.71 33.724 201.83 33.356 202.71 32.748L201.926 31.292C201.27 31.692 200.63 31.916 199.91 31.916C198.582 31.916 197.622 31.164 197.414 29.692H202.95C202.998 29.468 203.046 29.052 203.046 28.604C203.046 26.124 201.782 24.332 199.302 24.332C197.19 24.332 195.142 26.124 195.142 29.036C195.142 31.996 197.094 33.724 199.606 33.724ZM197.382 28.124C197.574 26.812 198.406 26.14 199.35 26.14C200.502 26.14 201.046 26.908 201.046 28.124H197.382Z" fill="white"/>
<rect x="124" y="1" width="117" height="52" stroke="#B3B3B3"/>
<rect x="124" y="53" width="117" height="49" fill="white"/>
<path d="M170.348 84.224C172.812 84.224 174.332 82.752 174.332 80.896C174.332 79.152 173.292 78.336 171.916 77.744L170.252 77.024C169.34 76.64 168.316 76.224 168.316 75.072C168.316 74.032 169.18 73.36 170.508 73.36C171.58 73.36 172.444 73.792 173.164 74.464L173.948 73.52C173.132 72.656 171.9 72.064 170.508 72.064C168.364 72.064 166.812 73.376 166.812 75.184C166.812 76.896 168.092 77.728 169.196 78.192L170.876 78.928C171.98 79.408 172.828 79.792 172.828 81.008C172.828 82.144 171.916 82.912 170.38 82.912C169.164 82.912 167.98 82.352 167.132 81.456L166.252 82.48C167.276 83.552 168.7 84.224 170.348 84.224ZM178.503 84.224C179.575 84.224 180.551 83.664 181.367 82.976H181.431L181.559 84H182.759V78.672C182.759 76.512 181.863 75.104 179.735 75.104C178.343 75.104 177.127 75.712 176.327 76.224L176.903 77.248C177.575 76.784 178.487 76.304 179.511 76.304C180.935 76.304 181.287 77.376 181.287 78.496C177.591 78.912 175.959 79.856 175.959 81.744C175.959 83.312 177.047 84.224 178.503 84.224ZM178.903 83.04C178.055 83.04 177.383 82.64 177.383 81.648C177.383 80.528 178.359 79.808 181.287 79.472V81.888C180.455 82.64 179.751 83.04 178.903 83.04ZM185.519 84H186.975V77.696C187.759 76.816 188.495 76.368 189.151 76.368C190.271 76.368 190.783 77.056 190.783 78.688V84H192.239V77.696C193.055 76.816 193.743 76.368 194.415 76.368C195.535 76.368 196.047 77.056 196.047 78.688V84H197.503V78.496C197.503 76.288 196.639 75.104 194.863 75.104C193.807 75.104 192.895 75.792 191.983 76.752C191.647 75.728 190.927 75.104 189.599 75.104C188.559 75.104 187.647 75.76 186.895 76.576H186.847L186.703 75.312H185.519V84Z" fill="black"/>
<rect x="124" y="53" width="117" height="49" stroke="#B3B3B3"/>
<rect x="124" y="102" width="117" height="50" fill="white"/>
<path d="M167.048 133.5H168.552L170.616 126.94C171.048 125.628 171.416 124.348 171.8 122.988H171.864C172.248 124.348 172.616 125.628 173.032 126.94L175.096 133.5H176.648L172.68 121.772H171.016L167.048 133.5ZM169.128 129.916H174.536V128.748H169.128V129.916ZM179.742 133.724C180.142 133.724 180.366 133.66 180.574 133.596L180.382 132.476C180.206 132.508 180.142 132.508 180.078 132.508C179.854 132.508 179.662 132.332 179.662 131.868V120.78H178.206V131.772C178.206 133.02 178.638 133.724 179.742 133.724ZM186.257 133.724C187.441 133.724 188.353 133.324 189.121 132.828L188.593 131.852C187.953 132.284 187.265 132.556 186.433 132.556C184.769 132.556 183.649 131.356 183.537 129.516H189.393C189.441 129.292 189.457 128.988 189.457 128.684C189.457 126.188 188.209 124.604 186.001 124.604C184.001 124.604 182.097 126.348 182.097 129.18C182.097 132.028 183.937 133.724 186.257 133.724ZM183.521 128.46C183.713 126.748 184.801 125.772 186.017 125.772C187.393 125.772 188.177 126.716 188.177 128.46H183.521ZM190.209 133.5H191.745L192.913 131.468C193.201 130.94 193.489 130.412 193.793 129.916H193.873C194.193 130.412 194.513 130.956 194.817 131.468L196.097 133.5H197.681L194.833 129.116L197.457 124.812H195.937L194.881 126.716C194.609 127.212 194.353 127.692 194.097 128.188H194.033C193.729 127.692 193.441 127.212 193.169 126.716L192.001 124.812H190.433L193.057 128.972L190.209 133.5Z" fill="black"/>
<rect x="124" y="102" width="117" height="50" stroke="#B3B3B3"/>
<rect x="124" y="152" width="117" height="50" fill="white"/>
<path d="M170.032 183.5H171.536V173.02H175.072V171.772H166.496V173.02H170.032V183.5ZM177.706 183.724C178.778 183.724 179.754 183.164 180.57 182.476H180.634L180.762 183.5H181.962V178.172C181.962 176.012 181.066 174.604 178.938 174.604C177.546 174.604 176.33 175.212 175.53 175.724L176.106 176.748C176.778 176.284 177.69 175.804 178.714 175.804C180.138 175.804 180.49 176.876 180.49 177.996C176.794 178.412 175.162 179.356 175.162 181.244C175.162 182.812 176.25 183.724 177.706 183.724ZM178.106 182.54C177.258 182.54 176.586 182.14 176.586 181.148C176.586 180.028 177.562 179.308 180.49 178.972V181.388C179.658 182.14 178.954 182.54 178.106 182.54ZM184.722 183.5H186.178V177.932C186.754 176.444 187.65 175.916 188.37 175.916C188.722 175.916 188.914 175.964 189.218 176.06L189.49 174.78C189.202 174.652 188.946 174.604 188.562 174.604C187.586 174.604 186.69 175.292 186.098 176.396H186.05L185.906 174.812H184.722V183.5ZM194.082 183.724C196.21 183.724 198.098 182.044 198.098 179.18C198.098 176.268 196.21 174.604 194.082 174.604C191.938 174.604 190.05 176.268 190.05 179.18C190.05 182.044 191.938 183.724 194.082 183.724ZM194.082 182.508C192.562 182.508 191.554 181.164 191.554 179.18C191.554 177.164 192.562 175.82 194.082 175.82C195.586 175.82 196.594 177.164 196.594 179.18C196.594 181.164 195.586 182.508 194.082 182.508Z" fill="black"/>
<rect x="124" y="152" width="117" height="50" stroke="#B3B3B3"/>
<rect x="1" y="1" width="123" height="52" fill="#1A69C6"/>
<path d="M22.272 33.724C23.808 33.724 25.072 33.132 26.048 31.996L24.8 30.508C24.176 31.196 23.376 31.676 22.368 31.676C20.48 31.676 19.28 30.14 19.28 27.548C19.28 25.02 20.624 23.484 22.4 23.484C23.312 23.484 23.984 23.884 24.592 24.476L25.84 22.956C25.072 22.156 23.872 21.452 22.368 21.452C19.36 21.452 16.864 23.724 16.864 27.628C16.864 31.58 19.28 33.724 22.272 33.724ZM30.1704 33.724C31.3864 33.724 32.2344 33.132 33.0184 32.22H33.0664L33.2424 33.5H35.1624V24.556H32.8264V30.588C32.2184 31.388 31.7384 31.708 31.0024 31.708C30.1224 31.708 29.7384 31.228 29.7384 29.852V24.556H27.3864V30.14C27.3864 32.396 28.2344 33.724 30.1704 33.724ZM40.2459 33.724C42.5659 33.724 43.7979 32.476 43.7979 30.892C43.7979 29.244 42.5019 28.636 41.3179 28.188C40.3579 27.852 39.5419 27.596 39.5419 26.956C39.5419 26.428 39.9099 26.076 40.7259 26.076C41.3819 26.076 42.0219 26.396 42.6459 26.844L43.7179 25.436C42.9819 24.86 41.9579 24.332 40.6619 24.332C38.6139 24.332 37.3339 25.468 37.3339 27.052C37.3339 28.572 38.5979 29.244 39.7339 29.692C40.6619 30.044 41.6059 30.364 41.6059 31.02C41.6059 31.58 41.1899 31.98 40.2939 31.98C39.4619 31.98 38.7099 31.612 37.8939 30.988L36.8379 32.476C37.7179 33.212 39.0459 33.724 40.2459 33.724ZM48.4186 33.724C49.2186 33.724 49.8426 33.548 50.3226 33.388L49.9386 31.676C49.6826 31.772 49.3466 31.884 49.0426 31.884C48.2586 31.884 47.8266 31.404 47.8266 30.38V26.396H50.0506V24.556H47.8266V22.124H45.8746L45.6186 24.556L44.2266 24.652V26.396H45.4746V30.38C45.4746 32.38 46.2906 33.724 48.4186 33.724ZM55.2424 33.724C57.4824 33.724 59.5304 31.996 59.5304 29.036C59.5304 26.06 57.4824 24.332 55.2424 24.332C52.9864 24.332 50.9384 26.06 50.9384 29.036C50.9384 31.996 52.9864 33.724 55.2424 33.724ZM55.2424 31.82C54.0104 31.82 53.3384 30.716 53.3384 29.036C53.3384 27.34 54.0104 26.252 55.2424 26.252C56.4584 26.252 57.1304 27.34 57.1304 29.036C57.1304 30.716 56.4584 31.82 55.2424 31.82ZM61.514 33.5H63.866V27.34C64.474 26.668 65.066 26.348 65.562 26.348C66.426 26.348 66.826 26.812 66.826 28.22V33.5H69.178V27.34C69.818 26.668 70.378 26.348 70.89 26.348C71.754 26.348 72.138 26.812 72.138 28.22V33.5H74.49V27.916C74.49 25.676 73.626 24.332 71.722 24.332C70.554 24.332 69.69 25.036 68.858 25.884C68.442 24.892 67.69 24.332 66.394 24.332C65.242 24.332 64.41 24.972 63.658 25.74H63.61L63.418 24.556H61.514V33.5ZM80.8399 33.724C81.9439 33.724 83.0639 33.356 83.9439 32.748L83.1599 31.292C82.5039 31.692 81.8639 31.916 81.1439 31.916C79.8159 31.916 78.8559 31.164 78.6479 29.692H84.1839C84.2319 29.468 84.2799 29.052 84.2799 28.604C84.2799 26.124 83.0159 24.332 80.5359 24.332C78.4239 24.332 76.3759 26.124 76.3759 29.036C76.3759 31.996 78.3279 33.724 80.8399 33.724ZM78.6159 28.124C78.8079 26.812 79.6399 26.14 80.5839 26.14C81.7359 26.14 82.2799 26.908 82.2799 28.124H78.6159ZM86.2328 33.5H88.5848V28.172C89.0807 26.876 89.9288 26.396 90.6168 26.396C91.0008 26.396 91.2408 26.46 91.5608 26.54L91.9608 24.524C91.6888 24.396 91.4008 24.332 90.9208 24.332C89.9928 24.332 89.0168 24.956 88.3768 26.14H88.3288L88.1368 24.556H86.2328V33.5ZM93.4091 33.5H95.7771V21.66H93.4091V33.5ZM98.6904 33.5H102.066C105.554 33.5 107.778 31.516 107.778 27.532C107.778 23.532 105.554 21.66 101.938 21.66H98.6904V33.5ZM101.058 31.596V23.548H101.778C104.002 23.548 105.362 24.652 105.362 27.532C105.362 30.412 104.002 31.596 101.778 31.596H101.058Z" fill="white"/>
<rect x="1" y="1" width="123" height="52" stroke="#B3B3B3"/>
<rect x="1" y="53" width="123" height="49" fill="white"/>
<path d="M41.408 84H47.84V82.784H45.472V72.272H44.352C43.728 72.656 42.976 72.928 41.92 73.104V74.048H44.016V82.784H41.408V84ZM53.323 84.224C55.531 84.224 56.955 82.192 56.955 78.096C56.955 74.032 55.531 72.064 53.323 72.064C51.083 72.064 49.659 74.032 49.659 78.096C49.659 82.192 51.083 84.224 53.323 84.224ZM53.323 83.04C51.979 83.04 51.067 81.552 51.067 78.096C51.067 74.688 51.979 73.232 53.323 73.232C54.651 73.232 55.547 74.688 55.547 78.096C55.547 81.552 54.651 83.04 53.323 83.04ZM62.198 84.224C64.406 84.224 65.83 82.192 65.83 78.096C65.83 74.032 64.406 72.064 62.198 72.064C59.958 72.064 58.534 74.032 58.534 78.096C58.534 82.192 59.958 84.224 62.198 84.224ZM62.198 83.04C60.854 83.04 59.942 81.552 59.942 78.096C59.942 74.688 60.854 73.232 62.198 73.232C63.526 73.232 64.422 74.688 64.422 78.096C64.422 81.552 63.526 83.04 62.198 83.04ZM71.073 84.224C73.281 84.224 74.705 82.192 74.705 78.096C74.705 74.032 73.281 72.064 71.073 72.064C68.833 72.064 67.409 74.032 67.409 78.096C67.409 82.192 68.833 84.224 71.073 84.224ZM71.073 83.04C69.729 83.04 68.817 81.552 68.817 78.096C68.817 74.688 69.729 73.232 71.073 73.232C72.401 73.232 73.297 74.688 73.297 78.096C73.297 81.552 72.401 83.04 71.073 83.04ZM76.908 84H83.34V82.784H80.972V72.272H79.852C79.228 72.656 78.476 72.928 77.42 73.104V74.048H79.516V82.784H76.908V84Z" fill="black"/>
<rect x="1" y="53" width="123" height="49" stroke="#B3B3B3"/>
<rect x="1" y="102" width="123" height="50" fill="white"/>
<path d="M41.408 133.5H47.84V132.284H45.472V121.772H44.352C43.728 122.156 42.976 122.428 41.92 122.604V123.548H44.016V132.284H41.408V133.5ZM53.323 133.724C55.531 133.724 56.955 131.692 56.955 127.596C56.955 123.532 55.531 121.564 53.323 121.564C51.083 121.564 49.659 123.532 49.659 127.596C49.659 131.692 51.083 133.724 53.323 133.724ZM53.323 132.54C51.979 132.54 51.067 131.052 51.067 127.596C51.067 124.188 51.979 122.732 53.323 122.732C54.651 122.732 55.547 124.188 55.547 127.596C55.547 131.052 54.651 132.54 53.323 132.54ZM62.198 133.724C64.406 133.724 65.83 131.692 65.83 127.596C65.83 123.532 64.406 121.564 62.198 121.564C59.958 121.564 58.534 123.532 58.534 127.596C58.534 131.692 59.958 133.724 62.198 133.724ZM62.198 132.54C60.854 132.54 59.942 131.052 59.942 127.596C59.942 124.188 60.854 122.732 62.198 122.732C63.526 122.732 64.422 124.188 64.422 127.596C64.422 131.052 63.526 132.54 62.198 132.54ZM71.073 133.724C73.281 133.724 74.705 131.692 74.705 127.596C74.705 123.532 73.281 121.564 71.073 121.564C68.833 121.564 67.409 123.532 67.409 127.596C67.409 131.692 68.833 133.724 71.073 133.724ZM71.073 132.54C69.729 132.54 68.817 131.052 68.817 127.596C68.817 124.188 69.729 122.732 71.073 122.732C72.401 122.732 73.297 124.188 73.297 127.596C73.297 131.052 72.401 132.54 71.073 132.54ZM76.204 133.5H83.564V132.252H80.316C79.724 132.252 79.02 132.3 78.396 132.364C81.164 129.756 83.004 127.372 83.004 125.02C83.004 122.924 81.692 121.564 79.596 121.564C78.108 121.564 77.084 122.252 76.124 123.292L76.972 124.108C77.628 123.34 78.46 122.748 79.42 122.748C80.876 122.748 81.564 123.74 81.564 125.084C81.564 127.084 79.884 129.436 76.204 132.652V133.5Z" fill="black"/>
<rect x="1" y="102" width="123" height="50" stroke="#B3B3B3"/>
<rect x="1" y="152" width="123" height="50" fill="white"/>
<path d="M41.408 183.5H47.84V182.284H45.472V171.772H44.352C43.728 172.156 42.976 172.428 41.92 172.604V173.548H44.016V182.284H41.408V183.5ZM53.323 183.724C55.531 183.724 56.955 181.692 56.955 177.596C56.955 173.532 55.531 171.564 53.323 171.564C51.083 171.564 49.659 173.532 49.659 177.596C49.659 181.692 51.083 183.724 53.323 183.724ZM53.323 182.54C51.979 182.54 51.067 181.052 51.067 177.596C51.067 174.188 51.979 172.732 53.323 172.732C54.651 172.732 55.547 174.188 55.547 177.596C55.547 181.052 54.651 182.54 53.323 182.54ZM62.198 183.724C64.406 183.724 65.83 181.692 65.83 177.596C65.83 173.532 64.406 171.564 62.198 171.564C59.958 171.564 58.534 173.532 58.534 177.596C58.534 181.692 59.958 183.724 62.198 183.724ZM62.198 182.54C60.854 182.54 59.942 181.052 59.942 177.596C59.942 174.188 60.854 172.732 62.198 172.732C63.526 172.732 64.422 174.188 64.422 177.596C64.422 181.052 63.526 182.54 62.198 182.54ZM71.073 183.724C73.281 183.724 74.705 181.692 74.705 177.596C74.705 173.532 73.281 171.564 71.073 171.564C68.833 171.564 67.409 173.532 67.409 177.596C67.409 181.692 68.833 183.724 71.073 183.724ZM71.073 182.54C69.729 182.54 68.817 181.052 68.817 177.596C68.817 174.188 69.729 172.732 71.073 172.732C72.401 172.732 73.297 174.188 73.297 177.596C73.297 181.052 72.401 182.54 71.073 182.54ZM79.708 183.724C81.804 183.724 83.484 182.46 83.484 180.38C83.484 178.764 82.364 177.724 80.988 177.388V177.324C82.236 176.876 83.068 175.932 83.068 174.508C83.068 172.636 81.628 171.564 79.66 171.564C78.316 171.564 77.276 172.156 76.396 172.956L77.18 173.9C77.836 173.228 78.668 172.748 79.612 172.748C80.828 172.748 81.58 173.484 81.58 174.604C81.58 175.884 80.764 176.844 78.348 176.844V177.98C81.052 177.98 81.996 178.908 81.996 180.316C81.996 181.66 81.004 182.508 79.612 182.508C78.268 182.508 77.388 181.868 76.7 181.148L75.964 182.108C76.732 182.956 77.868 183.724 79.708 183.724Z" fill="black"/>
<rect x="1" y="152" width="123" height="50" stroke="#B3B3B3"/>
<path d="M34.456 243H36.824V239.672L38.376 237.688L41.448 243H44.024L39.768 235.816L43.4 231.16H40.792L36.856 236.296H36.824V231.16H34.456V243ZM48.793 243.224C49.897 243.224 51.017 242.856 51.897 242.248L51.113 240.792C50.457 241.192 49.817 241.416 49.097 241.416C47.769 241.416 46.809 240.664 46.601 239.192H52.137C52.185 238.968 52.233 238.552 52.233 238.104C52.233 235.624 50.969 233.832 48.489 233.832C46.377 233.832 44.329 235.624 44.329 238.536C44.329 241.496 46.281 243.224 48.793 243.224ZM46.569 237.624C46.761 236.312 47.593 235.64 48.537 235.64C49.689 235.64 50.233 236.408 50.233 237.624H46.569ZM54.7976 246.6C56.8136 246.6 57.7736 245.384 58.5576 243.288L61.7416 234.056H59.4856L58.2376 238.2C58.0296 239.048 57.8056 239.896 57.6136 240.744H57.5336C57.2616 239.88 57.0376 239.016 56.7656 238.2L55.3576 234.056H52.9736L56.4616 242.84L56.3176 243.368C56.0456 244.168 55.5336 244.744 54.6376 244.744C54.4136 244.744 54.1736 244.664 54.0136 244.616L53.5816 246.424C53.9176 246.536 54.2856 246.6 54.7976 246.6ZM62.7211 239.272H67.1051V237.592H62.7211V239.272ZM70.9735 243H73.7895L77.4215 231.16H75.0055L73.4695 236.92C73.1175 238.248 72.8615 239.416 72.4775 240.76H72.3975C72.0295 239.416 71.7575 238.248 71.3895 236.92L69.8375 231.16H67.3415L70.9735 243ZM80.1435 243.224C81.1675 243.224 82.0635 242.728 82.8475 242.056H82.9115L83.0875 243H85.0075V237.784C85.0075 235.176 83.8395 233.832 81.5675 233.832C80.1435 233.832 78.8795 234.36 77.8235 235L78.6715 236.568C79.4875 236.072 80.3035 235.72 81.1355 235.72C82.2395 235.72 82.6075 236.376 82.6555 237.256C79.0555 237.656 77.5035 238.664 77.5035 240.568C77.5035 242.104 78.5435 243.224 80.1435 243.224ZM80.9115 241.384C80.2235 241.384 79.7435 241.08 79.7435 240.392C79.7435 239.576 80.4635 238.984 82.6555 238.712V240.52C82.0795 241.08 81.5835 241.384 80.9115 241.384ZM89.6126 243.224C90.1726 243.224 90.5406 243.128 90.8126 243.032L90.5246 241.288C90.3646 241.32 90.3006 241.32 90.2206 241.32C89.9966 241.32 89.7566 241.144 89.7566 240.584V230.248H87.4046V240.488C87.4046 242.152 87.9646 243.224 89.6126 243.224ZM95.1235 243.224C96.3395 243.224 97.1875 242.632 97.9715 241.72H98.0195L98.1955 243H100.116V234.056H97.7795V240.088C97.1715 240.888 96.6915 241.208 95.9555 241.208C95.0755 241.208 94.6915 240.728 94.6915 239.352V234.056H92.3395V239.64C92.3395 241.896 93.1875 243.224 95.1235 243.224ZM106.543 243.224C107.647 243.224 108.767 242.856 109.647 242.248L108.863 240.792C108.207 241.192 107.567 241.416 106.847 241.416C105.519 241.416 104.559 240.664 104.351 239.192H109.887C109.935 238.968 109.983 238.552 109.983 238.104C109.983 235.624 108.719 233.832 106.239 233.832C104.127 233.832 102.079 235.624 102.079 238.536C102.079 241.496 104.031 243.224 106.543 243.224ZM104.319 237.624C104.511 236.312 105.343 235.64 106.287 235.64C107.439 235.64 107.983 236.408 107.983 237.624H104.319ZM118.713 243.224C119.641 243.224 120.537 242.728 121.193 242.072H121.241L121.417 243H123.337V230.248H120.985V233.384L121.081 234.792C120.425 234.2 119.801 233.832 118.793 233.832C116.873 233.832 115.033 235.608 115.033 238.536C115.033 241.48 116.473 243.224 118.713 243.224ZM119.305 241.288C118.137 241.288 117.449 240.376 117.449 238.504C117.449 236.712 118.313 235.752 119.321 235.752C119.881 235.752 120.457 235.944 120.985 236.44V240.376C120.473 241.032 119.945 241.288 119.305 241.288ZM128.05 243.224C129.074 243.224 129.97 242.728 130.754 242.056H130.818L130.994 243H132.914V237.784C132.914 235.176 131.746 233.832 129.474 233.832C128.05 233.832 126.786 234.36 125.73 235L126.578 236.568C127.394 236.072 128.21 235.72 129.042 235.72C130.146 235.72 130.514 236.376 130.562 237.256C126.962 237.656 125.41 238.664 125.41 240.568C125.41 242.104 126.45 243.224 128.05 243.224ZM128.818 241.384C128.13 241.384 127.65 241.08 127.65 240.392C127.65 239.576 128.37 238.984 130.562 238.712V240.52C129.986 241.08 129.49 241.384 128.818 241.384ZM138.184 243.224C138.984 243.224 139.608 243.048 140.088 242.888L139.704 241.176C139.448 241.272 139.112 241.384 138.808 241.384C138.024 241.384 137.592 240.904 137.592 239.88V235.896H139.816V234.056H137.592V231.624H135.64L135.384 234.056L133.992 234.152V235.896H135.24V239.88C135.24 241.88 136.056 243.224 138.184 243.224ZM143.362 243.224C144.386 243.224 145.282 242.728 146.066 242.056H146.13L146.306 243H148.226V237.784C148.226 235.176 147.058 233.832 144.786 233.832C143.362 233.832 142.098 234.36 141.042 235L141.89 236.568C142.706 236.072 143.522 235.72 144.354 235.72C145.458 235.72 145.826 236.376 145.874 237.256C142.274 237.656 140.722 238.664 140.722 240.568C140.722 242.104 141.762 243.224 143.362 243.224ZM144.13 241.384C143.442 241.384 142.962 241.08 142.962 240.392C142.962 239.576 143.682 238.984 145.874 238.712V240.52C145.298 241.08 144.802 241.384 144.13 241.384ZM156.808 243.224C159.128 243.224 160.36 241.976 160.36 240.392C160.36 238.744 159.064 238.136 157.88 237.688C156.92 237.352 156.104 237.096 156.104 236.456C156.104 235.928 156.472 235.576 157.288 235.576C157.944 235.576 158.584 235.896 159.208 236.344L160.28 234.936C159.544 234.36 158.52 233.832 157.224 233.832C155.176 233.832 153.896 234.968 153.896 236.552C153.896 238.072 155.16 238.744 156.296 239.192C157.224 239.544 158.168 239.864 158.168 240.52C158.168 241.08 157.752 241.48 156.856 241.48C156.024 241.48 155.272 241.112 154.456 240.488L153.4 241.976C154.28 242.712 155.608 243.224 156.808 243.224ZM164.981 243.224C165.781 243.224 166.405 243.048 166.885 242.888L166.501 241.176C166.245 241.272 165.909 241.384 165.605 241.384C164.821 241.384 164.389 240.904 164.389 239.88V235.896H166.613V234.056H164.389V231.624H162.437L162.181 234.056L160.789 234.152V235.896H162.037V239.88C162.037 241.88 162.853 243.224 164.981 243.224ZM171.805 243.224C174.045 243.224 176.093 241.496 176.093 238.536C176.093 235.56 174.045 233.832 171.805 233.832C169.549 233.832 167.501 235.56 167.501 238.536C167.501 241.496 169.549 243.224 171.805 243.224ZM171.805 241.32C170.573 241.32 169.901 240.216 169.901 238.536C169.901 236.84 170.573 235.752 171.805 235.752C173.021 235.752 173.693 236.84 173.693 238.536C173.693 240.216 173.021 241.32 171.805 241.32ZM178.077 243H180.429V237.672C180.924 236.376 181.773 235.896 182.461 235.896C182.845 235.896 183.085 235.96 183.405 236.04L183.805 234.024C183.533 233.896 183.245 233.832 182.765 233.832C181.837 233.832 180.861 234.456 180.221 235.64H180.173L179.981 234.056H178.077V243ZM186.675 243.224C187.699 243.224 188.595 242.728 189.379 242.056H189.443L189.619 243H191.539V237.784C191.539 235.176 190.371 233.832 188.099 233.832C186.675 233.832 185.411 234.36 184.355 235L185.203 236.568C186.019 236.072 186.835 235.72 187.667 235.72C188.771 235.72 189.139 236.376 189.187 237.256C185.587 237.656 184.035 238.664 184.035 240.568C184.035 242.104 185.075 243.224 186.675 243.224ZM187.443 241.384C186.755 241.384 186.275 241.08 186.275 240.392C186.275 239.576 186.995 238.984 189.187 238.712V240.52C188.611 241.08 188.115 241.384 187.443 241.384ZM197.072 246.888C200.064 246.888 201.968 245.528 201.968 243.72C201.968 242.136 200.784 241.48 198.624 241.48H197.088C196.048 241.48 195.68 241.208 195.68 240.744C195.68 240.376 195.824 240.184 196.064 239.96C196.464 240.104 196.864 240.168 197.216 240.168C199.152 240.168 200.688 239.16 200.688 237.128C200.688 236.584 200.512 236.088 200.272 235.784H201.808V234.056H198.576C198.208 233.912 197.728 233.832 197.216 233.832C195.328 233.832 193.6 234.952 193.6 237.064C193.6 238.12 194.192 238.968 194.816 239.416V239.48C194.256 239.864 193.808 240.472 193.808 241.144C193.808 241.88 194.16 242.36 194.624 242.664V242.744C193.792 243.192 193.344 243.848 193.344 244.6C193.344 246.168 194.976 246.888 197.072 246.888ZM197.216 238.728C196.432 238.728 195.808 238.12 195.808 237.064C195.808 236.008 196.432 235.432 197.216 235.432C198.016 235.432 198.624 236.008 198.624 237.064C198.624 238.12 198 238.728 197.216 238.728ZM197.44 245.4C196.128 245.4 195.296 244.984 195.296 244.232C195.296 243.864 195.472 243.512 195.888 243.176C196.208 243.272 196.576 243.304 197.12 243.304H198.208C199.168 243.304 199.696 243.48 199.696 244.12C199.696 244.808 198.784 245.4 197.44 245.4ZM206.996 243.224C208.1 243.224 209.22 242.856 210.1 242.248L209.316 240.792C208.66 241.192 208.02 241.416 207.3 241.416C205.972 241.416 205.012 240.664 204.804 239.192H210.34C210.388 238.968 210.436 238.552 210.436 238.104C210.436 235.624 209.172 233.832 206.692 233.832C204.58 233.832 202.532 235.624 202.532 238.536C202.532 241.496 204.484 243.224 206.996 243.224ZM204.772 237.624C204.964 236.312 205.796 235.64 206.74 235.64C207.892 235.64 208.436 236.408 208.436 237.624H204.772Z" fill="black"/>
</svg>
