<svg width="902" height="252" viewBox="0 0 902 252" fill="none" xmlns="http://www.w3.org/2000/svg">
<rect x="1" y="1" width="180" height="50" fill="#1A69C6"/>
<path d="M50.772 32.724C52.308 32.724 53.572 32.132 54.548 30.996L53.3 29.508C52.676 30.196 51.876 30.676 50.868 30.676C48.98 30.676 47.78 29.14 47.78 26.548C47.78 24.02 49.124 22.484 50.9 22.484C51.812 22.484 52.484 22.884 53.092 23.476L54.34 21.956C53.572 21.156 52.372 20.452 50.868 20.452C47.86 20.452 45.364 22.724 45.364 26.628C45.364 30.58 47.78 32.724 50.772 32.724ZM58.6704 32.724C59.8864 32.724 60.7344 32.132 61.5184 31.22H61.5664L61.7424 32.5H63.6624V23.556H61.3264V29.588C60.7184 30.388 60.2384 30.708 59.5024 30.708C58.6224 30.708 58.2384 30.228 58.2384 28.852V23.556H55.8864V29.14C55.8864 31.396 56.7344 32.724 58.6704 32.724ZM68.7459 32.724C71.0659 32.724 72.2979 31.476 72.2979 29.892C72.2979 28.244 71.0019 27.636 69.8179 27.188C68.8579 26.852 68.0419 26.596 68.0419 25.956C68.0419 25.428 68.4099 25.076 69.2259 25.076C69.8819 25.076 70.5219 25.396 71.1459 25.844L72.2179 24.436C71.4819 23.86 70.4579 23.332 69.1619 23.332C67.1139 23.332 65.8339 24.468 65.8339 26.052C65.8339 27.572 67.0979 28.244 68.2339 28.692C69.1619 29.044 70.1059 29.364 70.1059 30.02C70.1059 30.58 69.6899 30.98 68.7939 30.98C67.9619 30.98 67.2099 30.612 66.3939 29.988L65.3379 31.476C66.2179 32.212 67.5459 32.724 68.7459 32.724ZM76.9186 32.724C77.7186 32.724 78.3426 32.548 78.8226 32.388L78.4386 30.676C78.1826 30.772 77.8466 30.884 77.5426 30.884C76.7586 30.884 76.3266 30.404 76.3266 29.38V25.396H78.5506V23.556H76.3266V21.124H74.3746L74.1186 23.556L72.7266 23.652V25.396H73.9746V29.38C73.9746 31.38 74.7906 32.724 76.9186 32.724ZM83.7424 32.724C85.9824 32.724 88.0304 30.996 88.0304 28.036C88.0304 25.06 85.9824 23.332 83.7424 23.332C81.4864 23.332 79.4384 25.06 79.4384 28.036C79.4384 30.996 81.4864 32.724 83.7424 32.724ZM83.7424 30.82C82.5104 30.82 81.8384 29.716 81.8384 28.036C81.8384 26.34 82.5104 25.252 83.7424 25.252C84.9584 25.252 85.6304 26.34 85.6304 28.036C85.6304 29.716 84.9584 30.82 83.7424 30.82ZM90.014 32.5H92.366V26.34C92.974 25.668 93.566 25.348 94.062 25.348C94.926 25.348 95.326 25.812 95.326 27.22V32.5H97.678V26.34C98.318 25.668 98.878 25.348 99.39 25.348C100.254 25.348 100.638 25.812 100.638 27.22V32.5H102.99V26.916C102.99 24.676 102.126 23.332 100.222 23.332C99.054 23.332 98.19 24.036 97.358 24.884C96.942 23.892 96.19 23.332 94.894 23.332C93.742 23.332 92.91 23.972 92.158 24.74H92.11L91.918 23.556H90.014V32.5ZM109.34 32.724C110.444 32.724 111.564 32.356 112.444 31.748L111.66 30.292C111.004 30.692 110.364 30.916 109.644 30.916C108.316 30.916 107.356 30.164 107.148 28.692H112.684C112.732 28.468 112.78 28.052 112.78 27.604C112.78 25.124 111.516 23.332 109.036 23.332C106.924 23.332 104.876 25.124 104.876 28.036C104.876 30.996 106.828 32.724 109.34 32.724ZM107.116 27.124C107.308 25.812 108.14 25.14 109.084 25.14C110.236 25.14 110.78 25.908 110.78 27.124H107.116ZM114.733 32.5H117.085V27.172C117.581 25.876 118.429 25.396 119.117 25.396C119.501 25.396 119.741 25.46 120.061 25.54L120.461 23.524C120.189 23.396 119.901 23.332 119.421 23.332C118.493 23.332 117.517 23.956 116.877 25.14H116.829L116.637 23.556H114.733V32.5ZM121.909 32.5H124.277V20.66H121.909V32.5ZM127.19 32.5H130.566C134.054 32.5 136.278 30.516 136.278 26.532C136.278 22.532 134.054 20.66 130.438 20.66H127.19V32.5ZM129.558 30.596V22.548H130.278C132.502 22.548 133.862 23.652 133.862 26.532C133.862 29.412 132.502 30.596 130.278 30.596H129.558Z" fill="white"/>
<rect x="1" y="1" width="180" height="50" stroke="#B3B3B3"/>
<rect x="181" y="1" width="180" height="50" fill="#1A69C6"/>
<path d="M248.956 32.5H251.196V27.764C251.196 26.388 251.004 24.9 250.892 23.636H250.972L252.172 26.164L255.596 32.5H258.012V20.66H255.756V25.38C255.756 26.724 255.948 28.308 256.076 29.54H255.996L254.796 26.98L251.356 20.66H248.956V32.5ZM262.94 32.724C263.964 32.724 264.86 32.228 265.644 31.556H265.708L265.884 32.5H267.804V27.284C267.804 24.676 266.636 23.332 264.364 23.332C262.94 23.332 261.676 23.86 260.62 24.5L261.468 26.068C262.284 25.572 263.1 25.22 263.932 25.22C265.036 25.22 265.404 25.876 265.452 26.756C261.852 27.156 260.3 28.164 260.3 30.068C260.3 31.604 261.34 32.724 262.94 32.724ZM263.708 30.884C263.02 30.884 262.54 30.58 262.54 29.892C262.54 29.076 263.26 28.484 265.452 28.212V30.02C264.876 30.58 264.38 30.884 263.708 30.884ZM270.202 32.5H272.554V26.34C273.161 25.668 273.754 25.348 274.25 25.348C275.114 25.348 275.514 25.812 275.514 27.22V32.5H277.866V26.34C278.506 25.668 279.066 25.348 279.578 25.348C280.442 25.348 280.826 25.812 280.826 27.22V32.5H283.178V26.916C283.178 24.676 282.314 23.332 280.41 23.332C279.242 23.332 278.378 24.036 277.546 24.884C277.13 23.892 276.378 23.332 275.082 23.332C273.93 23.332 273.098 23.972 272.346 24.74H272.298L272.106 23.556H270.202V32.5ZM289.527 32.724C290.631 32.724 291.751 32.356 292.631 31.748L291.847 30.292C291.191 30.692 290.551 30.916 289.831 30.916C288.503 30.916 287.543 30.164 287.335 28.692H292.871C292.919 28.468 292.967 28.052 292.967 27.604C292.967 25.124 291.703 23.332 289.223 23.332C287.111 23.332 285.063 25.124 285.063 28.036C285.063 30.996 287.015 32.724 289.527 32.724ZM287.303 27.124C287.495 25.812 288.327 25.14 289.271 25.14C290.423 25.14 290.967 25.908 290.967 27.124H287.303Z" fill="white"/>
<rect x="181" y="1" width="180" height="50" stroke="#B3B3B3"/>
<rect x="361" y="1" width="180" height="50" fill="#1A69C6"/>
<path d="M441.272 32.724C442.808 32.724 444.072 32.132 445.048 30.996L443.8 29.508C443.176 30.196 442.376 30.676 441.368 30.676C439.48 30.676 438.28 29.14 438.28 26.548C438.28 24.02 439.624 22.484 441.4 22.484C442.312 22.484 442.984 22.884 443.592 23.476L444.84 21.956C444.072 21.156 442.872 20.452 441.368 20.452C438.36 20.452 435.864 22.724 435.864 26.628C435.864 30.58 438.28 32.724 441.272 32.724ZM446.764 32.5H449.116V23.556H446.764V32.5ZM447.932 22.1C448.748 22.1 449.308 21.588 449.308 20.804C449.308 20.036 448.748 19.54 447.932 19.54C447.116 19.54 446.572 20.036 446.572 20.804C446.572 21.588 447.116 22.1 447.932 22.1ZM454.887 32.724C455.687 32.724 456.311 32.548 456.791 32.388L456.407 30.676C456.151 30.772 455.815 30.884 455.511 30.884C454.727 30.884 454.295 30.404 454.295 29.38V25.396H456.519V23.556H454.295V21.124H452.343L452.087 23.556L450.695 23.652V25.396H451.943V29.38C451.943 31.38 452.759 32.724 454.887 32.724ZM459.126 36.1C461.142 36.1 462.102 34.884 462.886 32.788L466.07 23.556H463.814L462.566 27.7C462.358 28.548 462.134 29.396 461.942 30.244H461.862C461.59 29.38 461.366 28.516 461.094 27.7L459.686 23.556H457.302L460.79 32.34L460.646 32.868C460.374 33.668 459.862 34.244 458.966 34.244C458.742 34.244 458.502 34.164 458.342 34.116L457.91 35.924C458.246 36.036 458.614 36.1 459.126 36.1Z" fill="white"/>
<rect x="361" y="1" width="180" height="50" stroke="#B3B3B3"/>
<rect x="541" y="1" width="180" height="50" fill="#1A69C6"/>
<path d="M616.436 32.5H618.836L620.532 26.34C620.884 25.108 621.22 23.748 621.54 22.468H621.604C621.94 23.732 622.276 25.108 622.628 26.34L624.324 32.5H626.804L623.012 20.66H620.228L616.436 32.5ZM618.788 29.46H624.42V27.636H618.788V29.46ZM631.15 36.388C634.142 36.388 636.046 35.028 636.046 33.22C636.046 31.636 634.862 30.98 632.702 30.98H631.166C630.126 30.98 629.758 30.708 629.758 30.244C629.758 29.876 629.902 29.684 630.142 29.46C630.542 29.604 630.942 29.668 631.294 29.668C633.23 29.668 634.766 28.66 634.766 26.628C634.766 26.084 634.59 25.588 634.35 25.284H635.886V23.556H632.654C632.286 23.412 631.806 23.332 631.294 23.332C629.406 23.332 627.678 24.452 627.678 26.564C627.678 27.62 628.27 28.468 628.894 28.916V28.98C628.334 29.364 627.886 29.972 627.886 30.644C627.886 31.38 628.238 31.86 628.702 32.164V32.244C627.87 32.692 627.422 33.348 627.422 34.1C627.422 35.668 629.054 36.388 631.15 36.388ZM631.294 28.228C630.51 28.228 629.886 27.62 629.886 26.564C629.886 25.508 630.51 24.932 631.294 24.932C632.094 24.932 632.702 25.508 632.702 26.564C632.702 27.62 632.078 28.228 631.294 28.228ZM631.518 34.9C630.206 34.9 629.374 34.484 629.374 33.732C629.374 33.364 629.55 33.012 629.966 32.676C630.286 32.772 630.654 32.804 631.198 32.804H632.286C633.246 32.804 633.774 32.98 633.774 33.62C633.774 34.308 632.862 34.9 631.518 34.9ZM641.074 32.724C642.178 32.724 643.298 32.356 644.178 31.748L643.394 30.292C642.738 30.692 642.098 30.916 641.378 30.916C640.05 30.916 639.09 30.164 638.882 28.692H644.418C644.466 28.468 644.514 28.052 644.514 27.604C644.514 25.124 643.25 23.332 640.77 23.332C638.658 23.332 636.61 25.124 636.61 28.036C636.61 30.996 638.562 32.724 641.074 32.724ZM638.85 27.124C639.042 25.812 639.874 25.14 640.818 25.14C641.97 25.14 642.514 25.908 642.514 27.124H638.85Z" fill="white"/>
<rect x="541" y="1" width="180" height="50" stroke="#B3B3B3"/>
<rect x="721" y="1" width="180" height="50" fill="#1A69C6"/>
<path d="M785.272 32.724C786.808 32.724 788.072 32.132 789.048 30.996L787.8 29.508C787.176 30.196 786.376 30.676 785.368 30.676C783.48 30.676 782.28 29.14 782.28 26.548C782.28 24.02 783.624 22.484 785.4 22.484C786.312 22.484 786.984 22.884 787.592 23.476L788.84 21.956C788.072 21.156 786.872 20.452 785.368 20.452C782.36 20.452 779.864 22.724 779.864 26.628C779.864 30.58 782.28 32.724 785.272 32.724ZM794.508 32.724C796.748 32.724 798.796 30.996 798.796 28.036C798.796 25.06 796.748 23.332 794.508 23.332C792.252 23.332 790.204 25.06 790.204 28.036C790.204 30.996 792.252 32.724 794.508 32.724ZM794.508 30.82C793.276 30.82 792.604 29.716 792.604 28.036C792.604 26.34 793.276 25.252 794.508 25.252C795.724 25.252 796.396 26.34 796.396 28.036C796.396 29.716 795.724 30.82 794.508 30.82ZM803.452 32.724C804.668 32.724 805.516 32.132 806.3 31.22H806.348L806.524 32.5H808.444V23.556H806.108V29.588C805.5 30.388 805.02 30.708 804.284 30.708C803.404 30.708 803.02 30.228 803.02 28.852V23.556H800.668V29.14C800.668 31.396 801.516 32.724 803.452 32.724ZM810.967 32.5H813.319V26.34C813.975 25.7 814.439 25.348 815.175 25.348C816.039 25.348 816.439 25.812 816.439 27.22V32.5H818.791V26.916C818.791 24.676 817.943 23.332 816.023 23.332C814.807 23.332 813.879 23.972 813.111 24.74H813.063L812.871 23.556H810.967V32.5ZM824.481 32.724C825.281 32.724 825.905 32.548 826.385 32.388L826.001 30.676C825.745 30.772 825.409 30.884 825.105 30.884C824.321 30.884 823.889 30.404 823.889 29.38V25.396H826.113V23.556H823.889V21.124H821.937L821.681 23.556L820.289 23.652V25.396H821.537V29.38C821.537 31.38 822.353 32.724 824.481 32.724ZM827.952 32.5H830.304V27.172C830.799 25.876 831.648 25.396 832.336 25.396C832.72 25.396 832.96 25.46 833.28 25.54L833.68 23.524C833.408 23.396 833.12 23.332 832.64 23.332C831.712 23.332 830.736 23.956 830.096 25.14H830.048L829.856 23.556H827.952V32.5ZM835.845 36.1C837.861 36.1 838.821 34.884 839.605 32.788L842.789 23.556H840.533L839.285 27.7C839.077 28.548 838.853 29.396 838.661 30.244H838.581C838.309 29.38 838.085 28.516 837.812 27.7L836.405 23.556H834.021L837.509 32.34L837.365 32.868C837.093 33.668 836.581 34.244 835.685 34.244C835.461 34.244 835.221 34.164 835.061 34.116L834.629 35.924C834.965 36.036 835.333 36.1 835.845 36.1Z" fill="white"/>
<rect x="721" y="1" width="180" height="50" stroke="#B3B3B3"/>
<rect x="1" y="51" width="180" height="50" fill="white"/>
<path d="M15.908 82.5H22.34V81.284H19.972V70.772H18.852C18.228 71.156 17.476 71.428 16.42 71.604V72.548H18.516V81.284H15.908V82.5ZM27.823 82.724C30.031 82.724 31.455 80.692 31.455 76.596C31.455 72.532 30.031 70.564 27.823 70.564C25.583 70.564 24.159 72.532 24.159 76.596C24.159 80.692 25.583 82.724 27.823 82.724ZM27.823 81.54C26.479 81.54 25.567 80.052 25.567 76.596C25.567 73.188 26.479 71.732 27.823 71.732C29.151 71.732 30.047 73.188 30.047 76.596C30.047 80.052 29.151 81.54 27.823 81.54ZM36.698 82.724C38.906 82.724 40.33 80.692 40.33 76.596C40.33 72.532 38.906 70.564 36.698 70.564C34.458 70.564 33.034 72.532 33.034 76.596C33.034 80.692 34.458 82.724 36.698 82.724ZM36.698 81.54C35.354 81.54 34.442 80.052 34.442 76.596C34.442 73.188 35.354 71.732 36.698 71.732C38.026 71.732 38.922 73.188 38.922 76.596C38.922 80.052 38.026 81.54 36.698 81.54ZM45.573 82.724C47.781 82.724 49.205 80.692 49.205 76.596C49.205 72.532 47.781 70.564 45.573 70.564C43.333 70.564 41.909 72.532 41.909 76.596C41.909 80.692 43.333 82.724 45.573 82.724ZM45.573 81.54C44.229 81.54 43.317 80.052 43.317 76.596C43.317 73.188 44.229 71.732 45.573 71.732C46.901 71.732 47.797 73.188 47.797 76.596C47.797 80.052 46.901 81.54 45.573 81.54ZM51.408 82.5H57.84V81.284H55.472V70.772H54.352C53.728 71.156 52.976 71.428 51.92 71.604V72.548H54.016V81.284H51.408V82.5Z" fill="black"/>
<rect x="1" y="51" width="180" height="50" stroke="#B3B3B3"/>
<rect x="181" y="51" width="180" height="50" fill="white"/>
<path d="M199.348 82.724C201.812 82.724 203.332 81.252 203.332 79.396C203.332 77.652 202.292 76.836 200.916 76.244L199.252 75.524C198.34 75.14 197.316 74.724 197.316 73.572C197.316 72.532 198.18 71.86 199.508 71.86C200.58 71.86 201.444 72.292 202.164 72.964L202.948 72.02C202.132 71.156 200.9 70.564 199.508 70.564C197.364 70.564 195.812 71.876 195.812 73.684C195.812 75.396 197.092 76.228 198.196 76.692L199.876 77.428C200.98 77.908 201.828 78.292 201.828 79.508C201.828 80.644 200.916 81.412 199.38 81.412C198.164 81.412 196.98 80.852 196.132 79.956L195.252 80.98C196.276 82.052 197.7 82.724 199.348 82.724ZM207.503 82.724C208.575 82.724 209.551 82.164 210.367 81.476H210.431L210.559 82.5H211.759V77.172C211.759 75.012 210.863 73.604 208.735 73.604C207.343 73.604 206.127 74.212 205.327 74.724L205.903 75.748C206.575 75.284 207.487 74.804 208.511 74.804C209.935 74.804 210.287 75.876 210.287 76.996C206.591 77.412 204.959 78.356 204.959 80.244C204.959 81.812 206.047 82.724 207.503 82.724ZM207.903 81.54C207.055 81.54 206.383 81.14 206.383 80.148C206.383 79.028 207.359 78.308 210.287 77.972V80.388C209.455 81.14 208.751 81.54 207.903 81.54ZM214.519 82.5H215.975V76.196C216.759 75.316 217.495 74.868 218.151 74.868C219.271 74.868 219.783 75.556 219.783 77.188V82.5H221.239V76.196C222.055 75.316 222.743 74.868 223.415 74.868C224.535 74.868 225.047 75.556 225.047 77.188V82.5H226.503V76.996C226.503 74.788 225.639 73.604 223.863 73.604C222.807 73.604 221.895 74.292 220.983 75.252C220.647 74.228 219.927 73.604 218.599 73.604C217.559 73.604 216.647 74.26 215.895 75.076H215.847L215.703 73.812H214.519V82.5Z" fill="black"/>
<rect x="181" y="51" width="180" height="50" stroke="#B3B3B3"/>
<rect x="361" y="51" width="180" height="50" fill="white"/>
<path d="M472.532 82.5H474.036V72.02H477.572V70.772H468.996V72.02H472.532V82.5ZM481.692 82.724C483.82 82.724 485.708 81.044 485.708 78.18C485.708 75.268 483.82 73.604 481.692 73.604C479.548 73.604 477.66 75.268 477.66 78.18C477.66 81.044 479.548 82.724 481.692 82.724ZM481.692 81.508C480.172 81.508 479.164 80.164 479.164 78.18C479.164 76.164 480.172 74.82 481.692 74.82C483.196 74.82 484.204 76.164 484.204 78.18C484.204 80.164 483.196 81.508 481.692 81.508ZM488.019 82.5H489.475V76.932C490.051 75.444 490.947 74.916 491.667 74.916C492.019 74.916 492.211 74.964 492.515 75.06L492.787 73.78C492.499 73.652 492.243 73.604 491.859 73.604C490.883 73.604 489.987 74.292 489.395 75.396H489.347L489.203 73.812H488.019V82.5ZM497.379 82.724C499.507 82.724 501.395 81.044 501.395 78.18C501.395 75.268 499.507 73.604 497.379 73.604C495.235 73.604 493.347 75.268 493.347 78.18C493.347 81.044 495.235 82.724 497.379 82.724ZM497.379 81.508C495.859 81.508 494.851 80.164 494.851 78.18C494.851 76.164 495.859 74.82 497.379 74.82C498.883 74.82 499.891 76.164 499.891 78.18C499.891 80.164 498.883 81.508 497.379 81.508ZM503.706 82.5H505.162V76.196C506.026 75.332 506.65 74.868 507.53 74.868C508.682 74.868 509.178 75.556 509.178 77.188V82.5H510.65V76.996C510.65 74.788 509.818 73.604 507.994 73.604C506.794 73.604 505.898 74.26 505.082 75.076H505.034L504.89 73.812H503.706V82.5ZM516.192 82.724C516.736 82.724 517.312 82.564 517.792 82.388L517.504 81.3C517.232 81.412 516.832 81.54 516.528 81.54C515.52 81.54 515.184 80.916 515.184 79.86V74.996H517.536V73.812H515.184V71.364H513.952L513.792 73.812L512.432 73.908V74.996H513.728V79.828C513.728 81.556 514.336 82.724 516.192 82.724ZM522.598 82.724C524.726 82.724 526.614 81.044 526.614 78.18C526.614 75.268 524.726 73.604 522.598 73.604C520.454 73.604 518.566 75.268 518.566 78.18C518.566 81.044 520.454 82.724 522.598 82.724ZM522.598 81.508C521.078 81.508 520.07 80.164 520.07 78.18C520.07 76.164 521.078 74.82 522.598 74.82C524.102 74.82 525.11 76.164 525.11 78.18C525.11 80.164 524.102 81.508 522.598 81.508Z" fill="black"/>
<rect x="361" y="51" width="180" height="50" stroke="#B3B3B3"/>
<rect x="541" y="51" width="180" height="50" fill="white"/>
<path d="M693.708 82.724C695.804 82.724 697.484 81.46 697.484 79.38C697.484 77.764 696.364 76.724 694.988 76.388V76.324C696.236 75.876 697.068 74.932 697.068 73.508C697.068 71.636 695.628 70.564 693.66 70.564C692.316 70.564 691.276 71.156 690.396 71.956L691.18 72.9C691.836 72.228 692.668 71.748 693.612 71.748C694.828 71.748 695.58 72.484 695.58 73.604C695.58 74.884 694.764 75.844 692.348 75.844V76.98C695.052 76.98 695.996 77.908 695.996 79.316C695.996 80.66 695.004 81.508 693.612 81.508C692.268 81.508 691.388 80.868 690.7 80.148L689.964 81.108C690.732 81.956 691.868 82.724 693.708 82.724ZM702.823 82.724C705.031 82.724 706.455 80.692 706.455 76.596C706.455 72.532 705.031 70.564 702.823 70.564C700.583 70.564 699.159 72.532 699.159 76.596C699.159 80.692 700.583 82.724 702.823 82.724ZM702.823 81.54C701.479 81.54 700.567 80.052 700.567 76.596C700.567 73.188 701.479 71.732 702.823 71.732C704.151 71.732 705.047 73.188 705.047 76.596C705.047 80.052 704.151 81.54 702.823 81.54Z" fill="black"/>
<rect x="541" y="51" width="180" height="50" stroke="#B3B3B3"/>
<rect x="721" y="51" width="180" height="50" fill="white"/>
<path d="M836.532 82.724C838.052 82.724 839.188 82.116 840.116 81.028L839.316 80.1C838.564 80.932 837.7 81.412 836.596 81.412C834.356 81.412 832.948 79.572 832.948 76.612C832.948 73.684 834.42 71.86 836.644 71.86C837.636 71.86 838.42 72.308 839.028 72.964L839.844 72.004C839.156 71.252 838.052 70.564 836.628 70.564C833.652 70.564 831.428 72.868 831.428 76.644C831.428 80.452 833.604 82.724 836.532 82.724ZM844.175 82.724C845.247 82.724 846.223 82.164 847.039 81.476H847.103L847.231 82.5H848.431V77.172C848.431 75.012 847.535 73.604 845.407 73.604C844.015 73.604 842.799 74.212 841.999 74.724L842.575 75.748C843.247 75.284 844.159 74.804 845.183 74.804C846.607 74.804 846.959 75.876 846.959 76.996C843.263 77.412 841.631 78.356 841.631 80.244C841.631 81.812 842.719 82.724 844.175 82.724ZM844.575 81.54C843.727 81.54 843.055 81.14 843.055 80.148C843.055 79.028 844.031 78.308 846.959 77.972V80.388C846.127 81.14 845.423 81.54 844.575 81.54ZM851.191 82.5H852.647V76.196C853.511 75.332 854.135 74.868 855.015 74.868C856.167 74.868 856.663 75.556 856.663 77.188V82.5H858.135V76.996C858.135 74.788 857.303 73.604 855.479 73.604C854.279 73.604 853.383 74.26 852.567 75.076H852.519L852.375 73.812H851.191V82.5ZM862.956 82.724C864.028 82.724 865.004 82.164 865.82 81.476H865.884L866.012 82.5H867.212V77.172C867.212 75.012 866.316 73.604 864.188 73.604C862.796 73.604 861.58 74.212 860.78 74.724L861.356 75.748C862.028 75.284 862.94 74.804 863.964 74.804C865.388 74.804 865.74 75.876 865.74 76.996C862.044 77.412 860.412 78.356 860.412 80.244C860.412 81.812 861.5 82.724 862.956 82.724ZM863.356 81.54C862.508 81.54 861.836 81.14 861.836 80.148C861.836 79.028 862.812 78.308 865.74 77.972V80.388C864.908 81.14 864.204 81.54 863.356 81.54ZM872.916 82.724C873.972 82.724 874.884 82.164 875.572 81.476H875.604L875.732 82.5H876.932V69.78H875.476V73.108L875.54 74.612C874.788 73.972 874.116 73.604 873.108 73.604C871.124 73.604 869.332 75.348 869.332 78.18C869.332 81.076 870.74 82.724 872.916 82.724ZM873.236 81.492C871.716 81.492 870.852 80.244 870.852 78.164C870.852 76.18 871.956 74.82 873.348 74.82C874.068 74.82 874.74 75.076 875.476 75.748V80.308C874.756 81.092 874.052 81.492 873.236 81.492ZM881.894 82.724C882.966 82.724 883.942 82.164 884.758 81.476H884.822L884.95 82.5H886.15V77.172C886.15 75.012 885.254 73.604 883.126 73.604C881.734 73.604 880.518 74.212 879.718 74.724L880.294 75.748C880.966 75.284 881.878 74.804 882.902 74.804C884.326 74.804 884.678 75.876 884.678 76.996C880.982 77.412 879.35 78.356 879.35 80.244C879.35 81.812 880.438 82.724 881.894 82.724ZM882.294 81.54C881.446 81.54 880.774 81.14 880.774 80.148C880.774 79.028 881.75 78.308 884.678 77.972V80.388C883.846 81.14 883.142 81.54 882.294 81.54Z" fill="black"/>
<rect x="721" y="51" width="180" height="50" stroke="#B3B3B3"/>
<rect x="1" y="101" width="180" height="50" fill="white"/>
<path d="M15.908 132.5H22.34V131.284H19.972V120.772H18.852C18.228 121.156 17.476 121.428 16.42 121.604V122.548H18.516V131.284H15.908V132.5ZM27.823 132.724C30.031 132.724 31.455 130.692 31.455 126.596C31.455 122.532 30.031 120.564 27.823 120.564C25.583 120.564 24.159 122.532 24.159 126.596C24.159 130.692 25.583 132.724 27.823 132.724ZM27.823 131.54C26.479 131.54 25.567 130.052 25.567 126.596C25.567 123.188 26.479 121.732 27.823 121.732C29.151 121.732 30.047 123.188 30.047 126.596C30.047 130.052 29.151 131.54 27.823 131.54ZM36.698 132.724C38.906 132.724 40.33 130.692 40.33 126.596C40.33 122.532 38.906 120.564 36.698 120.564C34.458 120.564 33.034 122.532 33.034 126.596C33.034 130.692 34.458 132.724 36.698 132.724ZM36.698 131.54C35.354 131.54 34.442 130.052 34.442 126.596C34.442 123.188 35.354 121.732 36.698 121.732C38.026 121.732 38.922 123.188 38.922 126.596C38.922 130.052 38.026 131.54 36.698 131.54ZM45.573 132.724C47.781 132.724 49.205 130.692 49.205 126.596C49.205 122.532 47.781 120.564 45.573 120.564C43.333 120.564 41.909 122.532 41.909 126.596C41.909 130.692 43.333 132.724 45.573 132.724ZM45.573 131.54C44.229 131.54 43.317 130.052 43.317 126.596C43.317 123.188 44.229 121.732 45.573 121.732C46.901 121.732 47.797 123.188 47.797 126.596C47.797 130.052 46.901 131.54 45.573 131.54ZM50.704 132.5H58.064V131.252H54.816C54.224 131.252 53.52 131.3 52.896 131.364C55.664 128.756 57.504 126.372 57.504 124.02C57.504 121.924 56.192 120.564 54.096 120.564C52.608 120.564 51.584 121.252 50.624 122.292L51.472 123.108C52.128 122.34 52.96 121.748 53.92 121.748C55.376 121.748 56.064 122.74 56.064 124.084C56.064 126.084 54.384 128.436 50.704 131.652V132.5Z" fill="black"/>
<rect x="1" y="101" width="180" height="50" stroke="#B3B3B3"/>
<rect x="181" y="101" width="180" height="50" fill="white"/>
<path d="M194.548 132.5H196.052L198.116 125.94C198.548 124.628 198.916 123.348 199.3 121.988H199.364C199.748 123.348 200.116 124.628 200.532 125.94L202.596 132.5H204.148L200.18 120.772H198.516L194.548 132.5ZM196.628 128.916H202.036V127.748H196.628V128.916ZM207.242 132.724C207.642 132.724 207.866 132.66 208.074 132.596L207.882 131.476C207.706 131.508 207.642 131.508 207.578 131.508C207.354 131.508 207.162 131.332 207.162 130.868V119.78H205.706V130.772C205.706 132.02 206.138 132.724 207.242 132.724ZM213.757 132.724C214.941 132.724 215.853 132.324 216.621 131.828L216.093 130.852C215.453 131.284 214.765 131.556 213.933 131.556C212.269 131.556 211.149 130.356 211.037 128.516H216.893C216.941 128.292 216.957 127.988 216.957 127.684C216.957 125.188 215.709 123.604 213.501 123.604C211.501 123.604 209.597 125.348 209.597 128.18C209.597 131.028 211.437 132.724 213.757 132.724ZM211.021 127.46C211.213 125.748 212.301 124.772 213.517 124.772C214.893 124.772 215.677 125.716 215.677 127.46H211.021ZM217.709 132.5H219.245L220.413 130.468C220.701 129.94 220.989 129.412 221.293 128.916H221.373C221.693 129.412 222.013 129.956 222.317 130.468L223.597 132.5H225.181L222.333 128.116L224.957 123.812H223.437L222.381 125.716C222.109 126.212 221.853 126.692 221.597 127.188H221.533C221.229 126.692 220.941 126.212 220.669 125.716L219.501 123.812H217.933L220.557 127.972L217.709 132.5Z" fill="black"/>
<rect x="181" y="101" width="180" height="50" stroke="#B3B3B3"/>
<rect x="361" y="101" width="180" height="50" fill="white"/>
<path d="M452.244 132.5H453.956L457.7 120.772H456.18L454.308 127.124C453.892 128.516 453.604 129.62 453.172 131.012H453.092C452.66 129.62 452.372 128.516 451.956 127.124L450.068 120.772H448.5L452.244 132.5ZM460.753 132.724C461.825 132.724 462.801 132.164 463.617 131.476H463.681L463.809 132.5H465.009V127.172C465.009 125.012 464.113 123.604 461.985 123.604C460.593 123.604 459.377 124.212 458.577 124.724L459.153 125.748C459.825 125.284 460.737 124.804 461.761 124.804C463.185 124.804 463.537 125.876 463.537 126.996C459.841 127.412 458.209 128.356 458.209 130.244C458.209 131.812 459.297 132.724 460.753 132.724ZM461.153 131.54C460.305 131.54 459.633 131.14 459.633 130.148C459.633 129.028 460.609 128.308 463.537 127.972V130.388C462.705 131.14 462.001 131.54 461.153 131.54ZM467.769 132.5H469.225V126.196C470.089 125.332 470.713 124.868 471.593 124.868C472.745 124.868 473.241 125.556 473.241 127.188V132.5H474.713V126.996C474.713 124.788 473.881 123.604 472.057 123.604C470.857 123.604 469.961 124.26 469.145 125.076H469.097L468.953 123.812H467.769V132.5ZM480.943 132.724C481.983 132.724 482.991 132.308 483.759 131.62L483.135 130.644C482.591 131.124 481.871 131.508 481.087 131.508C479.487 131.508 478.383 130.164 478.383 128.18C478.383 126.164 479.535 124.82 481.135 124.82C481.807 124.82 482.351 125.124 482.863 125.588L483.599 124.628C482.991 124.068 482.191 123.604 481.055 123.604C478.831 123.604 476.879 125.268 476.879 128.18C476.879 131.044 478.639 132.724 480.943 132.724ZM488.645 132.724C490.773 132.724 492.661 131.044 492.661 128.18C492.661 125.268 490.773 123.604 488.645 123.604C486.501 123.604 484.613 125.268 484.613 128.18C484.613 131.044 486.501 132.724 488.645 132.724ZM488.645 131.508C487.125 131.508 486.117 130.164 486.117 128.18C486.117 126.164 487.125 124.82 488.645 124.82C490.149 124.82 491.157 126.164 491.157 128.18C491.157 130.164 490.149 131.508 488.645 131.508ZM497.5 132.724C498.7 132.724 499.564 132.084 500.38 131.14H500.412L500.54 132.5H501.74V123.812H500.284V129.988C499.468 131.012 498.828 131.444 497.948 131.444C496.796 131.444 496.3 130.756 496.3 129.14V123.812H494.844V129.316C494.844 131.54 495.676 132.724 497.5 132.724ZM506.563 132.5H508.259L511.331 123.812H509.907L508.243 128.772C507.987 129.62 507.715 130.5 507.443 131.316H507.379C507.107 130.5 506.835 129.62 506.579 128.772L504.931 123.812H503.427L506.563 132.5ZM516.429 132.724C517.613 132.724 518.525 132.324 519.293 131.828L518.765 130.852C518.125 131.284 517.437 131.556 516.605 131.556C514.941 131.556 513.821 130.356 513.709 128.516H519.565C519.613 128.292 519.629 127.988 519.629 127.684C519.629 125.188 518.381 123.604 516.173 123.604C514.173 123.604 512.269 125.348 512.269 128.18C512.269 131.028 514.109 132.724 516.429 132.724ZM513.693 127.46C513.885 125.748 514.973 124.772 516.189 124.772C517.565 124.772 518.349 125.716 518.349 127.46H513.693ZM521.785 132.5H523.241V126.932C523.817 125.444 524.713 124.916 525.433 124.916C525.785 124.916 525.977 124.964 526.281 125.06L526.553 123.78C526.265 123.652 526.009 123.604 525.625 123.604C524.649 123.604 523.753 124.292 523.161 125.396H523.113L522.969 123.812H521.785V132.5Z" fill="black"/>
<rect x="361" y="101" width="180" height="50" stroke="#B3B3B3"/>
<rect x="541" y="101" width="180" height="50" fill="white"/>
<path d="M690.204 132.5H697.564V131.252H694.316C693.724 131.252 693.02 131.3 692.396 131.364C695.164 128.756 697.004 126.372 697.004 124.02C697.004 121.924 695.692 120.564 693.596 120.564C692.108 120.564 691.084 121.252 690.124 122.292L690.972 123.108C691.628 122.34 692.46 121.748 693.42 121.748C694.876 121.748 695.564 122.74 695.564 124.084C695.564 126.084 693.884 128.436 690.204 131.652V132.5ZM702.839 132.724C705.031 132.724 706.519 131.396 706.519 129.684C706.519 128.084 705.559 127.188 704.535 126.596V126.516C705.239 125.972 706.103 124.932 706.103 123.684C706.103 121.892 704.887 120.612 702.887 120.612C701.047 120.612 699.655 121.796 699.655 123.572C699.655 124.804 700.391 125.7 701.255 126.292V126.356C700.183 126.932 699.095 128.02 699.095 129.604C699.095 131.412 700.679 132.724 702.839 132.724ZM703.639 126.148C702.263 125.604 700.999 124.98 700.999 123.572C700.999 122.452 701.783 121.684 702.855 121.684C704.119 121.684 704.855 122.612 704.855 123.764C704.855 124.644 704.439 125.444 703.639 126.148ZM702.871 131.62C701.463 131.62 700.407 130.708 700.407 129.46C700.407 128.34 701.063 127.412 702.023 126.804C703.671 127.476 705.111 128.068 705.111 129.636C705.111 130.804 704.215 131.62 702.871 131.62Z" fill="black"/>
<rect x="541" y="101" width="180" height="50" stroke="#B3B3B3"/>
<rect x="721" y="101" width="180" height="50" fill="white"/>
<path d="M836.532 132.724C838.052 132.724 839.188 132.116 840.116 131.028L839.316 130.1C838.564 130.932 837.7 131.412 836.596 131.412C834.356 131.412 832.948 129.572 832.948 126.612C832.948 123.684 834.42 121.86 836.644 121.86C837.636 121.86 838.42 122.308 839.028 122.964L839.844 122.004C839.156 121.252 838.052 120.564 836.628 120.564C833.652 120.564 831.428 122.868 831.428 126.644C831.428 130.452 833.604 132.724 836.532 132.724ZM844.175 132.724C845.247 132.724 846.223 132.164 847.039 131.476H847.103L847.231 132.5H848.431V127.172C848.431 125.012 847.535 123.604 845.407 123.604C844.015 123.604 842.799 124.212 841.999 124.724L842.575 125.748C843.247 125.284 844.159 124.804 845.183 124.804C846.607 124.804 846.959 125.876 846.959 126.996C843.263 127.412 841.631 128.356 841.631 130.244C841.631 131.812 842.719 132.724 844.175 132.724ZM844.575 131.54C843.727 131.54 843.055 131.14 843.055 130.148C843.055 129.028 844.031 128.308 846.959 127.972V130.388C846.127 131.14 845.423 131.54 844.575 131.54ZM851.191 132.5H852.647V126.196C853.511 125.332 854.135 124.868 855.015 124.868C856.167 124.868 856.663 125.556 856.663 127.188V132.5H858.135V126.996C858.135 124.788 857.303 123.604 855.479 123.604C854.279 123.604 853.383 124.26 852.567 125.076H852.519L852.375 123.812H851.191V132.5ZM862.956 132.724C864.028 132.724 865.004 132.164 865.82 131.476H865.884L866.012 132.5H867.212V127.172C867.212 125.012 866.316 123.604 864.188 123.604C862.796 123.604 861.58 124.212 860.78 124.724L861.356 125.748C862.028 125.284 862.94 124.804 863.964 124.804C865.388 124.804 865.74 125.876 865.74 126.996C862.044 127.412 860.412 128.356 860.412 130.244C860.412 131.812 861.5 132.724 862.956 132.724ZM863.356 131.54C862.508 131.54 861.836 131.14 861.836 130.148C861.836 129.028 862.812 128.308 865.74 127.972V130.388C864.908 131.14 864.204 131.54 863.356 131.54ZM872.916 132.724C873.972 132.724 874.884 132.164 875.572 131.476H875.604L875.732 132.5H876.932V119.78H875.476V123.108L875.54 124.612C874.788 123.972 874.116 123.604 873.108 123.604C871.124 123.604 869.332 125.348 869.332 128.18C869.332 131.076 870.74 132.724 872.916 132.724ZM873.236 131.492C871.716 131.492 870.852 130.244 870.852 128.164C870.852 126.18 871.956 124.82 873.348 124.82C874.068 124.82 874.74 125.076 875.476 125.748V130.308C874.756 131.092 874.052 131.492 873.236 131.492ZM881.894 132.724C882.966 132.724 883.942 132.164 884.758 131.476H884.822L884.95 132.5H886.15V127.172C886.15 125.012 885.254 123.604 883.126 123.604C881.734 123.604 880.518 124.212 879.718 124.724L880.294 125.748C880.966 125.284 881.878 124.804 882.902 124.804C884.326 124.804 884.678 125.876 884.678 126.996C880.982 127.412 879.35 128.356 879.35 130.244C879.35 131.812 880.438 132.724 881.894 132.724ZM882.294 131.54C881.446 131.54 880.774 131.14 880.774 130.148C880.774 129.028 881.75 128.308 884.678 127.972V130.388C883.846 131.14 883.142 131.54 882.294 131.54Z" fill="black"/>
<rect x="721" y="101" width="180" height="50" stroke="#B3B3B3"/>
<rect x="1" y="151" width="180" height="50" fill="white"/>
<path d="M15.908 182.5H22.34V181.284H19.972V170.772H18.852C18.228 171.156 17.476 171.428 16.42 171.604V172.548H18.516V181.284H15.908V182.5ZM27.823 182.724C30.031 182.724 31.455 180.692 31.455 176.596C31.455 172.532 30.031 170.564 27.823 170.564C25.583 170.564 24.159 172.532 24.159 176.596C24.159 180.692 25.583 182.724 27.823 182.724ZM27.823 181.54C26.479 181.54 25.567 180.052 25.567 176.596C25.567 173.188 26.479 171.732 27.823 171.732C29.151 171.732 30.047 173.188 30.047 176.596C30.047 180.052 29.151 181.54 27.823 181.54ZM36.698 182.724C38.906 182.724 40.33 180.692 40.33 176.596C40.33 172.532 38.906 170.564 36.698 170.564C34.458 170.564 33.034 172.532 33.034 176.596C33.034 180.692 34.458 182.724 36.698 182.724ZM36.698 181.54C35.354 181.54 34.442 180.052 34.442 176.596C34.442 173.188 35.354 171.732 36.698 171.732C38.026 171.732 38.922 173.188 38.922 176.596C38.922 180.052 38.026 181.54 36.698 181.54ZM45.573 182.724C47.781 182.724 49.205 180.692 49.205 176.596C49.205 172.532 47.781 170.564 45.573 170.564C43.333 170.564 41.909 172.532 41.909 176.596C41.909 180.692 43.333 182.724 45.573 182.724ZM45.573 181.54C44.229 181.54 43.317 180.052 43.317 176.596C43.317 173.188 44.229 171.732 45.573 171.732C46.901 171.732 47.797 173.188 47.797 176.596C47.797 180.052 46.901 181.54 45.573 181.54ZM54.208 182.724C56.304 182.724 57.984 181.46 57.984 179.38C57.984 177.764 56.864 176.724 55.488 176.388V176.324C56.736 175.876 57.568 174.932 57.568 173.508C57.568 171.636 56.128 170.564 54.16 170.564C52.816 170.564 51.776 171.156 50.896 171.956L51.68 172.9C52.336 172.228 53.168 171.748 54.112 171.748C55.328 171.748 56.08 172.484 56.08 173.604C56.08 174.884 55.264 175.844 52.848 175.844V176.98C55.552 176.98 56.496 177.908 56.496 179.316C56.496 180.66 55.504 181.508 54.112 181.508C52.768 181.508 51.888 180.868 51.2 180.148L50.464 181.108C51.232 181.956 52.368 182.724 54.208 182.724Z" fill="black"/>
<rect x="1" y="151" width="180" height="50" stroke="#B3B3B3"/>
<rect x="181" y="151" width="180" height="50" fill="white"/>
<path d="M198.532 182.5H200.036V172.02H203.572V170.772H194.996V172.02H198.532V182.5ZM206.206 182.724C207.278 182.724 208.254 182.164 209.07 181.476H209.134L209.262 182.5H210.462V177.172C210.462 175.012 209.566 173.604 207.438 173.604C206.046 173.604 204.83 174.212 204.03 174.724L204.606 175.748C205.278 175.284 206.19 174.804 207.214 174.804C208.638 174.804 208.99 175.876 208.99 176.996C205.294 177.412 203.662 178.356 203.662 180.244C203.662 181.812 204.75 182.724 206.206 182.724ZM206.606 181.54C205.758 181.54 205.086 181.14 205.086 180.148C205.086 179.028 206.062 178.308 208.99 177.972V180.388C208.158 181.14 207.454 181.54 206.606 181.54ZM213.222 182.5H214.678V176.932C215.254 175.444 216.15 174.916 216.87 174.916C217.222 174.916 217.414 174.964 217.718 175.06L217.99 173.78C217.702 173.652 217.446 173.604 217.062 173.604C216.086 173.604 215.19 174.292 214.598 175.396H214.55L214.406 173.812H213.222V182.5ZM222.582 182.724C224.71 182.724 226.598 181.044 226.598 178.18C226.598 175.268 224.71 173.604 222.582 173.604C220.438 173.604 218.55 175.268 218.55 178.18C218.55 181.044 220.438 182.724 222.582 182.724ZM222.582 181.508C221.062 181.508 220.054 180.164 220.054 178.18C220.054 176.164 221.062 174.82 222.582 174.82C224.086 174.82 225.094 176.164 225.094 178.18C225.094 180.164 224.086 181.508 222.582 181.508Z" fill="black"/>
<rect x="181" y="151" width="180" height="50" stroke="#B3B3B3"/>
<rect x="361" y="151" width="180" height="50" fill="white"/>
<path d="M486.532 182.5H488.036V172.02H491.572V170.772H482.996V172.02H486.532V182.5ZM495.692 182.724C497.82 182.724 499.708 181.044 499.708 178.18C499.708 175.268 497.82 173.604 495.692 173.604C493.548 173.604 491.66 175.268 491.66 178.18C491.66 181.044 493.548 182.724 495.692 182.724ZM495.692 181.508C494.172 181.508 493.164 180.164 493.164 178.18C493.164 176.164 494.172 174.82 495.692 174.82C497.196 174.82 498.204 176.164 498.204 178.18C498.204 180.164 497.196 181.508 495.692 181.508ZM502.019 182.5H503.459V180.212L505.075 178.308L507.619 182.5H509.203L505.939 177.316L508.835 173.812H507.203L503.507 178.404H503.459V169.78H502.019V182.5ZM510.975 186.26C512.719 186.26 513.615 184.948 514.223 183.236L517.503 173.812H516.079L514.511 178.644C514.287 179.428 514.031 180.292 513.791 181.092H513.711C513.423 180.292 513.135 179.412 512.863 178.644L511.087 173.812H509.583L513.071 182.516L512.879 183.172C512.511 184.244 511.887 185.044 510.911 185.044C510.671 185.044 510.415 184.98 510.255 184.916L509.967 186.084C510.239 186.196 510.575 186.26 510.975 186.26ZM522.457 182.724C524.585 182.724 526.473 181.044 526.473 178.18C526.473 175.268 524.585 173.604 522.457 173.604C520.313 173.604 518.425 175.268 518.425 178.18C518.425 181.044 520.313 182.724 522.457 182.724ZM522.457 181.508C520.937 181.508 519.929 180.164 519.929 178.18C519.929 176.164 520.937 174.82 522.457 174.82C523.961 174.82 524.969 176.164 524.969 178.18C524.969 180.164 523.961 181.508 522.457 181.508Z" fill="black"/>
<rect x="361" y="151" width="180" height="50" stroke="#B3B3B3"/>
<rect x="541" y="151" width="180" height="50" fill="white"/>
<path d="M690.204 182.5H697.564V181.252H694.316C693.724 181.252 693.02 181.3 692.396 181.364C695.164 178.756 697.004 176.372 697.004 174.02C697.004 171.924 695.692 170.564 693.596 170.564C692.108 170.564 691.084 171.252 690.124 172.292L690.972 173.108C691.628 172.34 692.46 171.748 693.42 171.748C694.876 171.748 695.564 172.74 695.564 174.084C695.564 176.084 693.884 178.436 690.204 181.652V182.5ZM703.799 182.5H705.175V170.772H703.559L698.679 178.308V179.268H706.743V178.116H700.215L702.887 174.116C703.207 173.54 703.527 172.948 703.815 172.372H703.895C703.847 172.98 703.799 173.924 703.799 174.516V182.5Z" fill="black"/>
<rect x="541" y="151" width="180" height="50" stroke="#B3B3B3"/>
<rect x="721" y="151" width="180" height="50" fill="white"/>
<path d="M845.276 182.724C847.564 182.724 848.508 181.092 848.508 179.06V170.772H847.02V178.932C847.02 180.708 846.412 181.412 845.132 181.412C844.3 181.412 843.628 181.044 843.116 180.1L842.044 180.852C842.748 182.084 843.788 182.724 845.276 182.724ZM853.535 182.724C854.607 182.724 855.583 182.164 856.399 181.476H856.463L856.591 182.5H857.791V177.172C857.791 175.012 856.895 173.604 854.766 173.604C853.375 173.604 852.159 174.212 851.359 174.724L851.935 175.748C852.607 175.284 853.519 174.804 854.543 174.804C855.967 174.804 856.319 175.876 856.319 176.996C852.623 177.412 850.991 178.356 850.991 180.244C850.991 181.812 852.079 182.724 853.535 182.724ZM853.935 181.54C853.087 181.54 852.414 181.14 852.414 180.148C852.414 179.028 853.391 178.308 856.319 177.972V180.388C855.487 181.14 854.783 181.54 853.935 181.54ZM860.55 186.164H862.006V183.236L861.974 181.716C862.758 182.356 863.574 182.724 864.358 182.724C866.358 182.724 868.134 180.996 868.134 178.036C868.134 175.348 866.934 173.604 864.678 173.604C863.67 173.604 862.71 174.164 861.926 174.82H861.878L861.734 173.812H860.55V186.164ZM864.134 181.492C863.558 181.492 862.79 181.252 862.006 180.596V176.02C862.854 175.236 863.59 174.82 864.326 174.82C865.974 174.82 866.63 176.116 866.63 178.052C866.63 180.196 865.558 181.492 864.134 181.492ZM872.175 182.724C873.247 182.724 874.223 182.164 875.039 181.476H875.103L875.231 182.5H876.431V177.172C876.431 175.012 875.535 173.604 873.407 173.604C872.015 173.604 870.799 174.212 869.999 174.724L870.575 175.748C871.247 175.284 872.159 174.804 873.183 174.804C874.607 174.804 874.959 175.876 874.959 176.996C871.263 177.412 869.631 178.356 869.631 180.244C869.631 181.812 870.719 182.724 872.175 182.724ZM872.575 181.54C871.727 181.54 871.055 181.14 871.055 180.148C871.055 179.028 872.031 178.308 874.959 177.972V180.388C874.127 181.14 873.423 181.54 872.575 181.54ZM879.191 182.5H880.647V176.196C881.511 175.332 882.135 174.868 883.015 174.868C884.167 174.868 884.663 175.556 884.663 177.188V182.5H886.135V176.996C886.135 174.788 885.303 173.604 883.479 173.604C882.279 173.604 881.383 174.26 880.567 175.076H880.519L880.375 173.812H879.191V182.5Z" fill="black"/>
<rect x="721" y="151" width="180" height="50" stroke="#B3B3B3"/>
<path d="M323.456 248H325.824V243.536H327.568C330.048 243.536 332.016 242.384 332.016 239.744C332.016 237.024 330.048 236.16 327.568 236.16H323.456V248ZM325.824 241.664V238.048H327.344C328.88 238.048 329.712 238.48 329.712 239.744C329.712 241.008 328.88 241.664 327.344 241.664H325.824ZM329.888 248H332.528L328.784 241.44L327.136 242.928L329.888 248ZM337.649 248.224C339.889 248.224 341.937 246.496 341.937 243.536C341.937 240.56 339.889 238.832 337.649 238.832C335.393 238.832 333.345 240.56 333.345 243.536C333.345 246.496 335.393 248.224 337.649 248.224ZM337.649 246.32C336.417 246.32 335.745 245.216 335.745 243.536C335.745 241.84 336.417 240.752 337.649 240.752C338.865 240.752 339.537 241.84 339.537 243.536C339.537 245.216 338.865 246.32 337.649 246.32ZM345.174 248H347.862L348.774 244.112C348.966 243.264 349.11 242.448 349.27 241.488H349.35C349.526 242.448 349.67 243.264 349.862 244.096L350.806 248H353.574L355.798 239.056H353.606L352.646 243.472C352.47 244.352 352.358 245.2 352.198 246.08H352.118C351.926 245.2 351.75 244.352 351.542 243.472L350.422 239.056H348.342L347.254 243.472C347.03 244.336 346.87 245.2 346.71 246.08H346.63C346.47 245.2 346.358 244.352 346.198 243.472L345.206 239.056H342.87L345.174 248ZM357.018 244.272H361.402V242.592H357.018V244.272ZM367.18 248.224C369.42 248.224 371.468 246.496 371.468 243.536C371.468 240.56 369.42 238.832 367.18 238.832C364.924 238.832 362.876 240.56 362.876 243.536C362.876 246.496 364.924 248.224 367.18 248.224ZM367.18 246.32C365.948 246.32 365.276 245.216 365.276 243.536C365.276 241.84 365.948 240.752 367.18 240.752C368.396 240.752 369.068 241.84 369.068 243.536C369.068 245.216 368.396 246.32 367.18 246.32ZM373.452 248H375.804V242.672C376.299 241.376 377.148 240.896 377.836 240.896C378.22 240.896 378.46 240.96 378.78 241.04L379.18 239.024C378.908 238.896 378.62 238.832 378.14 238.832C377.212 238.832 376.236 239.456 375.596 240.64H375.548L375.356 239.056H373.452V248ZM380.436 248H382.788V239.056H380.436V248ZM381.604 237.6C382.42 237.6 382.98 237.088 382.98 236.304C382.98 235.536 382.42 235.04 381.604 235.04C380.788 235.04 380.244 235.536 380.244 236.304C380.244 237.088 380.788 237.6 381.604 237.6ZM389.199 248.224C390.303 248.224 391.423 247.856 392.303 247.248L391.519 245.792C390.863 246.192 390.223 246.416 389.503 246.416C388.175 246.416 387.215 245.664 387.007 244.192H392.543C392.591 243.968 392.639 243.552 392.639 243.104C392.639 240.624 391.375 238.832 388.895 238.832C386.783 238.832 384.735 240.624 384.735 243.536C384.735 246.496 386.687 248.224 389.199 248.224ZM386.975 242.624C387.167 241.312 387.999 240.64 388.943 240.64C390.095 240.64 390.639 241.408 390.639 242.624H386.975ZM394.592 248H396.944V241.84C397.6 241.2 398.064 240.848 398.8 240.848C399.664 240.848 400.064 241.312 400.064 242.72V248H402.416V242.416C402.416 240.176 401.568 238.832 399.648 238.832C398.432 238.832 397.504 239.472 396.736 240.24H396.688L396.496 239.056H394.592V248ZM408.106 248.224C408.906 248.224 409.53 248.048 410.01 247.888L409.626 246.176C409.37 246.272 409.034 246.384 408.73 246.384C407.946 246.384 407.514 245.904 407.514 244.88V240.896H409.738V239.056H407.514V236.624H405.562L405.306 239.056L403.914 239.152V240.896H405.162V244.88C405.162 246.88 405.978 248.224 408.106 248.224ZM415.09 248.224C416.194 248.224 417.314 247.856 418.194 247.248L417.41 245.792C416.754 246.192 416.114 246.416 415.394 246.416C414.066 246.416 413.106 245.664 412.898 244.192H418.434C418.482 243.968 418.53 243.552 418.53 243.104C418.53 240.624 417.266 238.832 414.786 238.832C412.674 238.832 410.626 240.624 410.626 243.536C410.626 246.496 412.578 248.224 415.09 248.224ZM412.866 242.624C413.058 241.312 413.89 240.64 414.834 240.64C415.986 240.64 416.53 241.408 416.53 242.624H412.866ZM423.635 248.224C424.563 248.224 425.459 247.728 426.115 247.072H426.163L426.339 248H428.259V235.248H425.907V238.384L426.003 239.792C425.347 239.2 424.723 238.832 423.715 238.832C421.795 238.832 419.955 240.608 419.955 243.536C419.955 246.48 421.395 248.224 423.635 248.224ZM424.227 246.288C423.059 246.288 422.371 245.376 422.371 243.504C422.371 241.712 423.235 240.752 424.243 240.752C424.803 240.752 425.379 240.944 425.907 241.44V245.376C425.395 246.032 424.867 246.288 424.227 246.288ZM437.557 248.224C438.485 248.224 439.381 247.728 440.037 247.072H440.085L440.261 248H442.181V235.248H439.829V238.384L439.925 239.792C439.269 239.2 438.645 238.832 437.637 238.832C435.717 238.832 433.877 240.608 433.877 243.536C433.877 246.48 435.317 248.224 437.557 248.224ZM438.149 246.288C436.981 246.288 436.293 245.376 436.293 243.504C436.293 241.712 437.157 240.752 438.165 240.752C438.725 240.752 439.301 240.944 439.829 241.44V245.376C439.317 246.032 438.789 246.288 438.149 246.288ZM446.894 248.224C447.918 248.224 448.814 247.728 449.598 247.056H449.662L449.838 248H451.758V242.784C451.758 240.176 450.59 238.832 448.318 238.832C446.894 238.832 445.63 239.36 444.574 240L445.422 241.568C446.238 241.072 447.054 240.72 447.886 240.72C448.99 240.72 449.358 241.376 449.406 242.256C445.806 242.656 444.254 243.664 444.254 245.568C444.254 247.104 445.294 248.224 446.894 248.224ZM447.661 246.384C446.974 246.384 446.494 246.08 446.494 245.392C446.494 244.576 447.214 243.984 449.406 243.712V245.52C448.83 246.08 448.334 246.384 447.661 246.384ZM457.028 248.224C457.828 248.224 458.452 248.048 458.932 247.888L458.548 246.176C458.292 246.272 457.956 246.384 457.652 246.384C456.868 246.384 456.436 245.904 456.436 244.88V240.896H458.66V239.056H456.436V236.624H454.484L454.228 239.056L452.836 239.152V240.896H454.084V244.88C454.084 246.88 454.9 248.224 457.028 248.224ZM462.206 248.224C463.23 248.224 464.126 247.728 464.91 247.056H464.974L465.15 248H467.07V242.784C467.07 240.176 465.902 238.832 463.63 238.832C462.206 238.832 460.942 239.36 459.886 240L460.734 241.568C461.55 241.072 462.366 240.72 463.198 240.72C464.302 240.72 464.67 241.376 464.718 242.256C461.118 242.656 459.566 243.664 459.566 245.568C459.566 247.104 460.606 248.224 462.206 248.224ZM462.974 246.384C462.286 246.384 461.806 246.08 461.806 245.392C461.806 244.576 462.526 243.984 464.718 243.712V245.52C464.142 246.08 463.646 246.384 462.974 246.384ZM475.652 248.224C477.972 248.224 479.204 246.976 479.204 245.392C479.204 243.744 477.908 243.136 476.724 242.688C475.764 242.352 474.948 242.096 474.948 241.456C474.948 240.928 475.316 240.576 476.132 240.576C476.788 240.576 477.428 240.896 478.052 241.344L479.124 239.936C478.388 239.36 477.364 238.832 476.068 238.832C474.02 238.832 472.74 239.968 472.74 241.552C472.74 243.072 474.004 243.744 475.14 244.192C476.068 244.544 477.012 244.864 477.012 245.52C477.012 246.08 476.596 246.48 475.7 246.48C474.868 246.48 474.116 246.112 473.3 245.488L472.244 246.976C473.124 247.712 474.452 248.224 475.652 248.224ZM483.825 248.224C484.625 248.224 485.249 248.048 485.729 247.888L485.345 246.176C485.089 246.272 484.753 246.384 484.449 246.384C483.665 246.384 483.233 245.904 483.233 244.88V240.896H485.457V239.056H483.233V236.624H481.281L481.025 239.056L479.633 239.152V240.896H480.881V244.88C480.881 246.88 481.697 248.224 483.825 248.224ZM490.649 248.224C492.889 248.224 494.937 246.496 494.937 243.536C494.937 240.56 492.889 238.832 490.649 238.832C488.393 238.832 486.345 240.56 486.345 243.536C486.345 246.496 488.393 248.224 490.649 248.224ZM490.649 246.32C489.417 246.32 488.745 245.216 488.745 243.536C488.745 241.84 489.417 240.752 490.649 240.752C491.865 240.752 492.537 241.84 492.537 243.536C492.537 245.216 491.865 246.32 490.649 246.32ZM496.92 248H499.272V242.672C499.768 241.376 500.616 240.896 501.304 240.896C501.688 240.896 501.928 240.96 502.248 241.04L502.648 239.024C502.376 238.896 502.088 238.832 501.608 238.832C500.68 238.832 499.704 239.456 499.064 240.64H499.016L498.824 239.056H496.92V248ZM505.519 248.224C506.543 248.224 507.439 247.728 508.223 247.056H508.287L508.463 248H510.383V242.784C510.383 240.176 509.215 238.832 506.943 238.832C505.519 238.832 504.255 239.36 503.199 240L504.047 241.568C504.863 241.072 505.679 240.72 506.511 240.72C507.615 240.72 507.983 241.376 508.031 242.256C504.431 242.656 502.879 243.664 502.879 245.568C502.879 247.104 503.919 248.224 505.519 248.224ZM506.286 246.384C505.599 246.384 505.119 246.08 505.119 245.392C505.119 244.576 505.839 243.984 508.031 243.712V245.52C507.455 246.08 506.959 246.384 506.286 246.384ZM515.916 251.888C518.908 251.888 520.812 250.528 520.812 248.72C520.812 247.136 519.628 246.48 517.468 246.48H515.932C514.892 246.48 514.524 246.208 514.524 245.744C514.524 245.376 514.668 245.184 514.908 244.96C515.308 245.104 515.708 245.168 516.06 245.168C517.996 245.168 519.532 244.16 519.532 242.128C519.532 241.584 519.356 241.088 519.116 240.784H520.652V239.056H517.42C517.052 238.912 516.572 238.832 516.06 238.832C514.172 238.832 512.444 239.952 512.444 242.064C512.444 243.12 513.036 243.968 513.66 244.416V244.48C513.1 244.864 512.652 245.472 512.652 246.144C512.652 246.88 513.004 247.36 513.468 247.664V247.744C512.636 248.192 512.188 248.848 512.188 249.6C512.188 251.168 513.82 251.888 515.916 251.888ZM516.06 243.728C515.276 243.728 514.652 243.12 514.652 242.064C514.652 241.008 515.276 240.432 516.06 240.432C516.86 240.432 517.468 241.008 517.468 242.064C517.468 243.12 516.844 243.728 516.06 243.728ZM516.284 250.4C514.972 250.4 514.14 249.984 514.14 249.232C514.14 248.864 514.316 248.512 514.732 248.176C515.052 248.272 515.42 248.304 515.964 248.304H517.052C518.012 248.304 518.54 248.48 518.54 249.12C518.54 249.808 517.628 250.4 516.284 250.4ZM525.84 248.224C526.944 248.224 528.064 247.856 528.944 247.248L528.16 245.792C527.504 246.192 526.864 246.416 526.144 246.416C524.816 246.416 523.856 245.664 523.648 244.192H529.184C529.232 243.968 529.28 243.552 529.28 243.104C529.28 240.624 528.016 238.832 525.536 238.832C523.424 238.832 521.376 240.624 521.376 243.536C521.376 246.496 523.328 248.224 525.84 248.224ZM523.616 242.624C523.808 241.312 524.64 240.64 525.584 240.64C526.736 240.64 527.28 241.408 527.28 242.624H523.616Z" fill="black"/>
</svg>
